<?xml version="1.0" encoding="UTF-8"?>
<svg id="Layer_1" data-name="Layer 1" xmlns="http://www.w3.org/2000/svg" viewBox="0 0 841.89 595.28">
  <defs>
    <style>
      .cls-1 {
        fill: #f15a24;
      }

      .cls-2 {
        fill: #076476;
      }

      .cls-3 {
        fill: #ffc114;
      }

      .cls-4 {
        fill: #06b6a9;
      }

      .cls-5, .cls-6 {
        fill: #fff;
      }

      .cls-7 {
        fill: #022d36;
      }

      .cls-6 {
        font-family: Aileron-SemiBold, Aileron;
        font-size: 15.58px;
        font-weight: 600;
      }

      .cls-8 {
        letter-spacing: .05em;
      }

      .cls-9 {
        fill: #fb9600;
      }

      .cls-10 {
        letter-spacing: .01em;
      }
    </style>
  </defs>
  <rect class="cls-2" x="-5.96" y="-11.75" width="856.79" height="611.57"/>
  <text class="cls-6" transform="translate(49.3 56.33)"><tspan class="cls-10" x="0" y="0">L</tspan><tspan class="cls-8" x="9.33" y="0">OGO OPTION 3</tspan></text>
  <rect class="cls-3" x="271.63" y="306.12" width="296.67" height="278.98" transform="translate(-25.65 865.57) rotate(-90)"/>
  <rect class="cls-1" x="553.22" y="306.12" width="296.67" height="278.98" transform="translate(255.95 1147.17) rotate(-90)"/>
  <rect class="cls-4" x="-9.01" y="306.12" width="296.67" height="278.98" transform="translate(-306.28 584.93) rotate(-90)"/>
  <g>
    <g>
      <path class="cls-5" d="M354.83,164.94c-.04,1.07-.1,2.21-.19,3.41-.09,1.21-.18,2.44-.28,3.68-.12,1.54-.23,3.08-.34,4.62-.11,1.53-.16,2.93-.16,4.17,0,.51.03,1.27.1,2.26.07.99.15,2.1.25,3.33.1,1.05.19,2.14.27,3.27.08,1.13.15,2.21.21,3.25s.09,1.99.09,2.84-.03,1.52-.09,2.02c-.08.51-.26.96-.53,1.34s-.62.69-1.02.95c-.41.26-.85.45-1.34.58-.49.13-.97.19-1.44.19-.63,0-1.25-.12-1.84-.36s-1.09-.55-1.49-.95c-.75-.75-1.11-1.71-1.07-2.88.02-.28.02-.7.02-1.28-.01-.57-.02-1.21-.02-1.9s0-1.42-.02-2.18c-.01-.76-.03-1.47-.04-2.12-.02-.65-.04-1.22-.05-1.71-.01-.48-.02-.8-.02-.93-.04-.61-.25-1.09-.62-1.43-.26-.24-.56-.42-.91-.53-.35-.12-.7-.21-1.05-.27-.36-.06-.69-.09-1.01-.1s-.57,0-.77.02h-.45c-.5.02-.99.05-1.47.1-.49.05-.92.16-1.31.33s-.71.4-.97.7c-.26.3-.42.7-.48,1.22-.02.3-.04.68-.05,1.14s-.01.98,0,1.54c.01.56.02,1.16.03,1.78.01.62.03,1.23.04,1.83.04,1.05.07,1.99.09,2.81.02.82.01,1.4-.03,1.74-.06.42-.18.83-.37,1.23-.19.41-.46.77-.82,1.1-.36.33-.8.59-1.34.8-.53.21-1.17.31-1.9.31h-.56c-.91-.06-1.65-.21-2.21-.45-.56-.24-1-.55-1.31-.93s-.51-.85-.61-1.4-.14-1.16-.12-1.86c0-.46,0-.98.02-1.59.01-.6.02-1.25.02-1.95.02-.97.04-2,.06-3.1.02-1.1.04-2.19.06-3.27.02-1.08.05-2.1.09-3.07.04-.97.08-1.8.12-2.49.04-.71.03-1.66-.04-2.85s-.15-2.46-.25-3.83c-.1-1.43-.2-2.82-.3-4.19-.1-1.37-.13-2.58-.09-3.65.08-3.7,1.8-5.55,5.17-5.55,1.47,0,2.55.39,3.27,1.16.34.34.58.72.74,1.16s.26.89.31,1.37c.05.48.07.95.06,1.43-.01.47-.04.92-.07,1.34l-.03.42c-.04.63-.08,1.4-.13,2.3s-.1,1.79-.15,2.66c-.05.87-.08,1.65-.09,2.35-.01.69,0,1.14.02,1.34.06.34.21.62.46.86.25.24.54.43.88.56s.7.24,1.08.31.74.12,1.07.15c.33.03.71.04,1.14.04l.21-.03c.4-.02.83-.05,1.31-.07.48-.03.92-.1,1.34-.22.42-.12.78-.3,1.08-.55.31-.25.5-.58.58-1,.08-.36.13-.84.15-1.44.02-.6.03-1.26.03-1.96s-.01-1.43-.03-2.17c-.02-.74-.05-1.44-.07-2.09-.03-.65-.06-1.23-.09-1.72-.03-.5-.06-.83-.07-1.01-.18-1.44.14-2.63.95-3.56.53-.59,1.15-1.01,1.86-1.25.7-.24,1.34-.36,1.92-.36.22,0,.48.02.79.04.31.03.62.09.95.18.33.09.65.22.98.39.33.17.62.39.88.67.73.73,1.08,1.73,1.04,3Z"/>
      <path class="cls-5" d="M380.2,160.69c.93.06,1.68.2,2.24.43.56.23,1,.53,1.31.92.31.39.51.85.61,1.4s.14,1.16.12,1.86c-.02.87-.05,1.97-.09,3.3-.04,1.33-.09,2.71-.15,4.14s-.12,2.84-.18,4.22c-.06,1.38-.12,2.54-.18,3.49-.06.77-.1,1.5-.13,2.2-.03.69-.06,1.4-.09,2.12-.03.72-.06,1.49-.09,2.3-.03.81-.06,1.72-.07,2.73-.04,2.08-.37,3.83-1,5.26-.62,1.43-1.48,2.58-2.58,3.47-1.1.89-2.42,1.53-3.96,1.92-1.54.39-3.26.58-5.14.58-1.19,0-2.35-.07-3.49-.22-1.14-.15-2.15-.37-3.04-.67-2.06-.67-3.56-1.93-4.51-3.76-.95-1.83-1.42-4.37-1.4-7.62,0-.18,0-.45.02-.8.01-.36.02-.78.02-1.28,0-.53,0-1.14.02-1.81s.02-1.38.03-2.11c.01-.73.02-1.48.03-2.24s.02-1.5.02-2.21c.02-1.09.02-2.19.02-3.31-.01-1.12-.03-2.21-.05-3.28,0-.93,0-1.82-.02-2.67-.01-.85-.01-1.63,0-2.35.01-.71.03-1.34.05-1.87.02-.53.05-.95.09-1.25.08-.53.28-.98.61-1.35.33-.37.72-.66,1.17-.89s.94-.39,1.45-.49.98-.15,1.4-.15c.22,0,.48.01.79.04s.62.08.95.16c.33.08.65.2.98.36.33.16.62.38.88.65.63.63.93,1.48.89,2.53,0,.24,0,.71-.02,1.43-.01.71-.03,1.58-.04,2.6-.02,1.02-.04,2.13-.06,3.34-.02,1.21-.04,2.44-.06,3.68-.02,1.25-.04,2.46-.06,3.64-.02,1.18-.04,2.24-.06,3.18-.02.94-.04,1.72-.05,2.33s-.01.97-.01,1.07c0,1.03.06,1.89.19,2.58.13.69.34,1.25.62,1.68.29.43.67.73,1.14.91.48.18,1.07.27,1.78.27.81,0,1.45-.13,1.92-.4.47-.27.83-.64,1.08-1.13.26-.49.43-1.06.53-1.74s.19-1.41.27-2.2c.02-.28.04-.81.06-1.6.02-.79.04-1.73.06-2.82.02-1.09.04-2.27.05-3.55,0-1.28.02-2.54.02-3.79.02-1.23.03-2.39.04-3.49.01-1.1.02-2.09.03-2.97,0-.88.02-1.61.04-2.18.02-.57.04-.95.06-1.13.06-.42.18-.83.37-1.25.19-.42.46-.79.82-1.11.36-.33.8-.59,1.34-.8.53-.21,1.17-.31,1.9-.31.1,0,.19,0,.27.02s.17.02.27.02Z"/>
      <path class="cls-5" d="M411.69,180.32c2.36.22,4.08,1.24,5.17,3.06.44.73.74,1.55.91,2.45s.23,1.83.19,2.78c-.04.95-.16,1.88-.37,2.79-.21.91-.48,1.74-.82,2.49-1.09,2.44-2.69,4.29-4.8,5.55-2.11,1.27-4.64,1.9-7.59,1.9-.67,0-1.28-.03-1.81-.09-.53-.06-1.04-.17-1.53-.33-.48-.16-.96-.38-1.42-.65-.47-.28-.97-.63-1.5-1.07-.26-.22-.47-.38-.64-.49-.17-.11-.33-.16-.49-.16-.08.02-.16.08-.25.18-.09.1-.18.21-.28.33-.14.18-.31.37-.52.58s-.46.4-.76.58c-.3.18-.65.33-1.05.45-.41.12-.9.18-1.47.18-1.52,0-2.66-.38-3.42-1.13-.77-.79-1.13-2.04-1.07-3.74,0-.53.02-1.15.05-1.84.03-.69.06-1.43.1-2.2.04-.77.08-1.57.13-2.4.05-.83.1-1.66.16-2.49.08-1.15.15-2.24.21-3.28s.11-1.94.15-2.69c.04-.91,0-1.99-.09-3.24-.1-1.25-.22-2.57-.36-3.98-.14-1.37-.27-2.71-.39-4.02-.12-1.32-.16-2.51-.12-3.58.04-1.92.46-3.33,1.26-4.23.8-.9,2.04-1.35,3.73-1.35.65,0,9.38-.09,10.69-.09.48,0,.98.03,1.51.07.53.05,1.11.13,1.72.25,1.13.22,2.23.51,3.3.88,1.07.37,2.03.88,2.9,1.53.86.65,1.58,1.5,2.17,2.54s.96,2.34,1.11,3.91c.1.95.07,1.93-.07,2.94-.15,1.01-.43,1.96-.85,2.85-.42.89-.98,1.69-1.68,2.39s-1.58,1.23-2.63,1.59c-.28.1-.46.19-.53.28-.08.09-.12.14-.12.16,0,.04.08.1.24.18.16.08.46.14.92.18ZM397.73,186.47c-.2.46-.32.95-.37,1.47-.05.52-.07,1.02-.06,1.5.01.47.05.9.12,1.28s.12.63.16.77c.14.48.43.89.88,1.23s.96.63,1.54.85,1.17.38,1.77.49c.59.11,1.11.16,1.54.16.36,0,.77-.03,1.23-.1.46-.07.93-.21,1.41-.42s.91-.5,1.32-.89c.41-.39.73-.91.97-1.56.57-1.52.27-3.1-.92-4.72-.5-.48-1.24-.83-2.23-1.07-.99-.24-2-.36-3.03-.36-.28,0-.64.02-1.08.06-.45.04-.89.11-1.32.21-.44.1-.84.24-1.2.42-.37.18-.61.41-.73.68ZM407.65,172.3c0-.81-.17-1.47-.52-1.96s-.79-.88-1.32-1.16c-.53-.28-1.14-.46-1.81-.56s-1.34-.15-1.99-.15-1.31.06-1.92.18c-.6.12-1.09.32-1.47.59-.32.24-.56.51-.74.8-.18.3-.31.61-.39.95-.08.34-.12.69-.13,1.05-.01.37-.02.73-.02,1.08v.27c-.04.75,0,1.41.1,1.98.11.56.43,1.12.97,1.68.22.22.52.38.92.49.4.11.85.16,1.37.16.81,0,1.63-.1,2.46-.31.83-.21,1.58-.53,2.24-.98s1.2-1.01,1.62-1.69c.42-.68.62-1.49.62-2.42Z"/>
    </g>
    <g>
      <path class="cls-3" d="M332.94,151.69s-7.06,1.32-6.23-12.33c.83-13.65,1.92-14.87.36-20.33-1.55-5.46-.78-10.7,5.31-11.03,5.28-.29,3.56,5.43,3.9,11.69.34,6.26,1.69,11.31,2.06,14.22.37,2.91-.35,16.25-5.41,17.78Z"/>
      <g>
        <path class="cls-3" d="M375.97,110.32c4.71,1.72,6.86,5.53,6.44,11.43-.02.32-.05.83-.09,1.53-.04.7-.08,1.51-.12,2.44-.04.92-.08,1.9-.12,2.94-.04,1.04-.06,2.06-.06,3.07v3.3c0,1.11.01,2.2.03,3.27,0,.93,0,1.83.02,2.69,0,.86,0,1.65,0,2.36-.01.71-.03,1.33-.05,1.86-.02.52-.05.93-.09,1.23-.08.53-.28.99-.61,1.35-.33.37-.72.67-1.17.91s-.93.41-1.44.5c-.5.1-.98.15-1.41.15-.22,0-.48-.02-.79-.04-.31-.03-.62-.08-.95-.16-.33-.08-.65-.2-.98-.36-.33-.16-.62-.38-.88-.65-.63-.63-.93-1.47-.89-2.52,0-.24,0-.71.02-1.43.01-.71.02-1.57.04-2.58.02-1.01.04-2.12.06-3.34.02-1.22.04-2.45.06-3.7.02-1.25.04-2.46.06-3.64.02-1.18.04-2.24.06-3.18.02-.94.03-1.72.05-2.33,0-.61.01-.97.01-1.07,0-.38-.02-.84-.06-1.4-.04-.55-.14-1.09-.3-1.6-.16-.51-.4-.96-.71-1.32-.32-.37-.74-.55-1.28-.55-.42,0-.83.1-1.23.3-.41.2-.77.46-1.1.77-.33.32-.6.68-.82,1.08-.22.41-.35.82-.39,1.23,0,.1-.02.41-.06.92-.04.51-.07,1.17-.1,1.97-.03.8-.06,1.72-.1,2.75-.04,1.03-.06,2.13-.06,3.3,0,1.09,0,2.19.02,3.3.01,1.11.02,2.2.02,3.27.02.93.03,1.82.04,2.67.01.85.01,1.63,0,2.35-.01.71-.03,1.34-.04,1.87-.02.53-.05.95-.09,1.25-.08.53-.28.99-.61,1.35-.33.37-.72.67-1.17.91s-.94.41-1.46.5-.98.15-1.4.15c-.24,0-.51-.01-.82-.04s-.62-.09-.95-.18c-.33-.09-.65-.21-.98-.37-.33-.16-.62-.37-.88-.62-.61-.65-.91-1.5-.89-2.53,0-.22.01-.66.03-1.34.02-.67.04-1.49.06-2.45.02-.96.04-2.02.06-3.19.02-1.17.04-2.35.06-3.53.02-1.19.04-2.35.06-3.49.02-1.14.03-2.16.04-3.07.01-.91.02-1.66.03-2.26,0-.59.01-.94.01-1.04,0-.59-.01-1.18-.04-1.77s-.09-1.13-.18-1.63c-.09-.5-.21-.95-.36-1.34-.15-.39-.35-.67-.61-.85-.2-.18-.46-.27-.77-.27-.1,0-.2.01-.31.03-.11.02-.22.05-.34.09-.3.08-.63.23-1.01.45s-.74.52-1.1.91c-.36.39-.67.87-.94,1.44s-.44,1.26-.52,2.05c-.02.28-.04.82-.06,1.62-.02.8-.04,1.75-.06,2.84-.02,1.09-.04,2.27-.05,3.55-.01,1.28-.03,2.54-.04,3.79,0,1.21,0,2.37-.02,3.47-.01,1.11-.02,2.1-.03,2.99s-.03,1.61-.04,2.18c-.02.57-.04.95-.06,1.13-.06.42-.18.83-.37,1.23-.19.41-.46.77-.82,1.1-.36.33-.8.59-1.34.8-.53.21-1.17.31-1.9.31h-.56c-.91-.06-1.65-.21-2.21-.45-.56-.24-1.01-.55-1.32-.93-.32-.39-.53-.85-.62-1.4-.1-.54-.14-1.16-.12-1.86.02-.95.06-2.1.1-3.46.05-1.36.1-2.75.16-4.19.06-1.43.12-2.82.18-4.16.06-1.34.12-2.45.18-3.34.04-.69.01-1.64-.09-2.85s-.21-2.5-.33-3.89c-.14-1.47-.26-2.92-.37-4.35-.11-1.44-.15-2.69-.13-3.76.08-3.7,1.79-5.55,5.14-5.55,1.5,0,2.6.37,3.3,1.1.24.26.42.54.53.86.12.32.2.63.25.95.05.32.07.62.06.92s-.03.57-.04.83l-.03.27c0,.18.03.3.09.36.08-.02.18-.08.3-.18.1-.08.22-.2.36-.37.14-.17.32-.42.53-.76.42-.67.87-1.23,1.35-1.66.49-.44.97-.78,1.46-1.02.48-.25.98-.42,1.47-.52.49-.1.96-.15,1.4-.15.57,0,1.1.05,1.57.16.47.11.87.22,1.19.34.65.24,1.2.51,1.65.83s.82.63,1.11.95c.3.32.54.63.73.94.19.31.35.58.49.82.1.22.19.4.28.53s.17.21.25.21c.04-.02.21-.17.51-.45s.7-.73,1.22-1.37c.85-1.01,1.85-1.75,2.99-2.21,1.14-.47,2.26-.7,3.37-.7.89,0,1.7.14,2.43.42Z"/>
        <path class="cls-3" d="M442.37,110.28c.93.06,1.68.2,2.24.43.56.23,1,.53,1.31.92.31.39.51.85.61,1.4s.14,1.16.12,1.86c-.02.87-.05,1.97-.09,3.3-.04,1.33-.09,2.71-.15,4.14s-.12,2.84-.18,4.22c-.06,1.38-.12,2.54-.18,3.49-.06.77-.1,1.5-.13,2.2-.03.69-.06,1.4-.09,2.12-.03.72-.06,1.49-.09,2.3-.03.81-.06,1.72-.07,2.73-.04,2.08-.37,3.83-1,5.26-.62,1.43-1.48,2.58-2.58,3.47-1.1.89-2.42,1.53-3.96,1.92-1.54.39-3.26.58-5.14.58-1.19,0-2.35-.07-3.49-.22-1.14-.15-2.15-.37-3.04-.67-2.06-.67-3.56-1.93-4.51-3.76-.95-1.83-1.42-4.37-1.4-7.62,0-.18,0-.45.02-.8.01-.36.02-.78.02-1.28,0-.53,0-1.14.02-1.81s.02-1.38.03-2.11.02-1.48.03-2.24c.01-.76.02-1.5.02-2.21.02-1.09.02-2.19.02-3.31-.01-1.12-.03-2.21-.05-3.28,0-.93,0-1.82-.02-2.67-.01-.85-.01-1.63,0-2.35.01-.71.03-1.34.05-1.87.02-.53.05-.95.09-1.25.08-.53.28-.98.61-1.35.33-.37.72-.66,1.17-.89s.94-.39,1.45-.49c.51-.1.98-.15,1.4-.15.22,0,.48.01.79.04s.62.08.95.16c.33.08.65.2.98.36.33.16.62.38.88.65.63.63.93,1.48.89,2.53,0,.24,0,.71-.02,1.43-.01.71-.03,1.58-.04,2.6-.02,1.02-.04,2.13-.06,3.34-.02,1.21-.04,2.44-.06,3.68-.02,1.25-.04,2.46-.06,3.64-.02,1.18-.04,2.24-.06,3.18-.02.94-.04,1.72-.05,2.33s-.01.97-.01,1.07c0,1.03.06,1.89.19,2.58.13.69.34,1.25.62,1.68.29.43.67.73,1.14.91.48.18,1.07.27,1.78.27.81,0,1.45-.13,1.92-.4.47-.27.83-.64,1.08-1.13.26-.49.43-1.06.53-1.74s.19-1.41.27-2.2c.02-.28.04-.81.06-1.6.02-.79.04-1.73.06-2.82.02-1.09.04-2.27.05-3.55,0-1.28.02-2.54.02-3.79.02-1.23.03-2.39.04-3.49.01-1.1.02-2.09.03-2.97,0-.88.02-1.61.04-2.18.02-.57.04-.95.06-1.13.06-.42.18-.83.37-1.25.19-.42.46-.79.82-1.11.36-.33.8-.59,1.34-.8.53-.21,1.17-.31,1.9-.31.1,0,.19,0,.27.02s.17.02.27.02Z"/>
        <path class="cls-3" d="M478.69,114.42c0,.36-.07.76-.22,1.22-.15.46-.42.88-.82,1.28-.77.71-1.8,1.04-3.09.98-.77-.04-1.42-.07-1.93-.09-.71-.06-1.28-.09-1.69-.09-.63,0-1.12.1-1.46.3-.16.1-.32.34-.49.73-.17.39-.27,1.05-.31,2v.06c-.02.59-.03,1.09-.04,1.5-.01.41-.02.77-.03,1.08s-.01.6,0,.85.02.5.02.76v1.75c0,.38,0,.82-.02,1.34-.01.52-.03,1.12-.04,1.81-.02.65-.02,1.4.02,2.23.03.83.06,1.69.1,2.58s.09,1.8.15,2.72c.06.92.12,1.8.18,2.63.1,1.37.18,2.54.24,3.52.06.98.07,1.64.03,1.98-.04.4-.16.82-.37,1.26s-.5.86-.89,1.25c-.39.39-.87.71-1.44.97-.57.26-1.25.39-2.02.39h-.47c-1.62-.12-2.79-.56-3.49-1.32-.7-.76-1.03-1.95-.99-3.55.02-.53.04-1.15.07-1.84.03-.69.06-1.43.1-2.2.04-.77.08-1.57.13-2.4.05-.83.1-1.66.16-2.49.08-1.15.15-2.24.21-3.28.06-1.04.11-1.94.15-2.69.04-.81.06-1.66.07-2.54.01-.88.01-1.75,0-2.6-.01-.85-.02-1.64-.03-2.38s-.03-1.35-.05-1.84v-.71c0-.32-.06-.59-.19-.83-.13-.24-.27-.44-.43-.59s-.33-.28-.52-.36c-.19-.08-.34-.13-.46-.15-.2-.02-.37-.03-.52-.02s-.33.03-.55.04c-.22.02-.47.04-.76.06s-.66.03-1.11.03c-.53,0-1.3-.03-2.29-.09-.4-.02-.8-.09-1.2-.21-.41-.12-.77-.31-1.1-.56-.33-.26-.59-.61-.79-1.05-.2-.45-.29-1.01-.27-1.68,0-.22.02-.52.07-.92.05-.4.17-.81.36-1.23.19-.43.47-.82.85-1.19s.9-.63,1.57-.79c.18-.04.41-.07.7-.09.29-.02.63-.03,1.02-.03.89,0,2.02.03,3.39.09.87.02,1.83.04,2.88.06,1.05.02,2.17.03,3.36.03,1.46,0,2.82-.02,4.05-.05,1.24-.03,2.32-.06,3.25-.1.63-.02,1.19-.04,1.66-.06.48-.02.89-.03,1.25-.03,1.43,0,2.45.4,3.09,1.2.63.8.95,1.93.95,3.37Z"/>
        <path class="cls-3" d="M509.28,119.9c.42.99.74,2.09.97,3.31s.38,2.49.46,3.82.09,2.68.03,4.05c-.06,1.38-.18,2.73-.37,4.05-.19,1.33-.43,2.59-.71,3.79-.29,1.2-.62,2.27-1,3.22-.65,1.68-1.41,3.09-2.27,4.23-.86,1.14-1.85,2.04-2.97,2.72s-2.39,1.15-3.8,1.44-3,.43-4.77.43c-1.41,0-2.74-.17-4.01-.5-1.27-.34-2.43-.82-3.49-1.44-1.06-.62-2-1.39-2.82-2.29-.82-.9-1.5-1.92-2.03-3.04-.52-1.13-.96-2.39-1.34-3.79-.38-1.4-.67-2.86-.88-4.4-.21-1.53-.32-3.11-.33-4.74-.01-1.62.08-3.22.27-4.8.19-1.57.49-3.1.92-4.57.43-1.47.98-2.83,1.65-4.05,2.59-4.71,6.64-7.09,12.15-7.13,3.54,0,6.48.8,8.82,2.39,2.34,1.59,4.18,4.02,5.52,7.29ZM500.46,135.76c.18-1.11.31-2.23.4-3.37.09-1.14.13-2.26.12-3.37-.01-1.11-.07-2.18-.18-3.21-.11-1.03-.27-1.99-.49-2.88-.32-1.29-.95-2.33-1.9-3.13-.95-.8-2.04-1.21-3.27-1.23h-.03c-1.25,0-2.33.43-3.24,1.28-.91.85-1.56,2.05-1.96,3.59-.24.91-.41,1.92-.52,3.03-.11,1.11-.19,2.19-.24,3.25-.05,1.06-.07,2.03-.06,2.93,0,.89.02,1.57.04,2.05.02.38.06.83.13,1.37.07.53.18,1.08.34,1.65.16.56.38,1.12.65,1.68.28.55.62,1.05,1.04,1.5s.92.8,1.51,1.07c.59.27,1.3.4,2.11.4,2.93,0,4.77-2.2,5.52-6.59Z"/>
      </g>
      <path class="cls-3" d="M410.66,129.7c2.36.22,4.08,1.24,5.17,3.06.44.73.74,1.55.91,2.45.17.9.23,1.83.19,2.78-.04.95-.16,1.88-.37,2.79-.21.91-.48,1.74-.82,2.49-1.09,2.44-2.69,4.29-4.8,5.55-2.11,1.27-4.64,1.9-7.59,1.9-.67,0-1.28-.03-1.81-.09s-1.04-.17-1.53-.33c-.48-.16-.96-.38-1.42-.65-.47-.28-.97-.63-1.5-1.07-.26-.22-.47-.38-.64-.49-.17-.11-.33-.16-.49-.16-.08.02-.16.08-.25.18-.09.1-.18.21-.28.33-.14.18-.31.37-.52.58s-.46.4-.76.58c-.3.18-.65.33-1.05.45-.41.12-.9.18-1.47.18-1.52,0-2.66-.38-3.42-1.13-.77-.79-1.13-2.04-1.07-3.74,0-.53.02-1.15.05-1.84.03-.69.06-1.43.1-2.2.04-.77.08-1.57.13-2.4.05-.83.1-1.66.16-2.49.08-1.15.15-2.24.21-3.28s.11-1.94.15-2.69c.04-.91,0-1.99-.09-3.24-.1-1.25-.22-2.57-.36-3.98-.14-1.37-.27-2.71-.39-4.02-.12-1.32-.16-2.51-.12-3.58.04-1.92.46-3.33,1.26-4.23.8-.9,2.04-1.35,3.73-1.35.65,0,9.38-.09,10.69-.09.48,0,.98.03,1.51.07.53.05,1.11.13,1.72.25,1.13.22,2.23.51,3.3.88,1.07.37,2.03.88,2.9,1.53.86.65,1.58,1.5,2.17,2.54.58,1.04.96,2.34,1.11,3.91.1.95.07,1.93-.07,2.94-.15,1.01-.43,1.96-.85,2.85-.42.89-.98,1.69-1.68,2.39-.7.7-1.58,1.23-2.63,1.59-.28.1-.46.19-.53.28-.08.09-.12.14-.12.16,0,.04.08.1.24.18.16.08.46.14.92.18ZM397.73,135.85c-.2.46-.32.95-.37,1.47-.05.52-.07,1.02-.06,1.5.01.47.05.9.12,1.28s.12.63.16.77c.14.48.43.89.88,1.23s.96.63,1.54.85,1.17.38,1.77.49c.59.11,1.11.16,1.54.16.36,0,.77-.03,1.23-.1.46-.07.93-.21,1.41-.42s.91-.5,1.32-.89c.41-.39.73-.91.97-1.56.57-1.52.27-3.1-.92-4.72-.5-.48-1.24-.83-2.23-1.07-.99-.24-2-.36-3.03-.36-.28,0-.64.02-1.08.06-.45.04-.89.11-1.32.21-.44.1-.84.24-1.2.42-.37.18-.61.41-.73.68ZM407.65,121.69c0-.81-.17-1.47-.52-1.96s-.79-.88-1.32-1.16c-.53-.28-1.14-.46-1.81-.56s-1.34-.15-1.99-.15-1.31.06-1.92.18c-.6.12-1.09.32-1.47.59-.32.24-.56.51-.74.8-.18.3-.31.61-.39.95-.08.34-.12.69-.13,1.05-.01.37-.02.73-.02,1.08v.27c-.04.75,0,1.41.1,1.98.11.56.43,1.12.97,1.68.22.22.52.38.92.49.4.11.85.16,1.37.16.81,0,1.63-.1,2.46-.31.83-.21,1.58-.53,2.24-.98.66-.45,1.2-1.01,1.62-1.69.42-.68.62-1.49.62-2.42Z"/>
    </g>
    <g>
      <path class="cls-5" d="M326.67,104.33c-.76-.23-1.33-.86-1.53-1.62-.53-1.99-.89-6.59,2.28-10.29,3.55-4.15,6.62-1.94,7.62,3.47s-1.27,7.54-1.81,7.95c-.44.33-4.45,1.11-6.55.49Z"/>
      <g>
        <path class="cls-9" d="M322.91,105.3s-4.38-4.41-15.2-7.83c-8.7-2.74-16.61-4.29-16.61-4.29,0,0,8.5,7.76,16.59,10.2,9.9,2.98,15.21,1.91,15.21,1.91Z"/>
        <path class="cls-9" d="M322.7,101.74s-2.34-7.7-8.09-12.63c-5.75-4.93-12.47-5.47-12.47-5.47,0,0,2.63,2.52,6.08,7.76,5.86,8.9,14.48,10.34,14.48,10.34Z"/>
        <path class="cls-9" d="M305.18,94.21s-3.27-8.39-12.29-10.35c0,0,2.62,8.77,12.29,10.35Z"/>
        <path class="cls-9" d="M322.73,108.88s-5.38-2.17-11.74-.65c-4.42,1.06-8.48,3.63-8.48,3.63,0,0,8.32,1.28,11.73.79,5.8-.82,8.49-3.77,8.49-3.77Z"/>
      </g>
    </g>
  </g>
  <g>
    <g>
      <path class="cls-5" d="M104.14,458.5c-.03.9-.09,1.86-.16,2.88-.08,1.02-.16,2.06-.24,3.11-.1,1.3-.2,2.6-.29,3.9-.09,1.3-.14,2.47-.14,3.52,0,.43.03,1.07.09,1.91.06.84.13,1.77.21,2.81.08.89.16,1.81.23,2.76.07.95.13,1.87.18,2.75s.08,1.68.08,2.39-.03,1.29-.08,1.71c-.07.43-.22.81-.45,1.13s-.52.59-.86.8c-.34.22-.72.38-1.13.49-.41.11-.81.16-1.22.16-.54,0-1.05-.1-1.55-.3-.5-.2-.92-.47-1.25-.8-.64-.64-.94-1.45-.9-2.43.02-.23.02-.59.01-1.08,0-.48-.01-1.02-.01-1.6s0-1.2-.01-1.84-.02-1.24-.04-1.79c-.02-.55-.03-1.03-.04-1.44,0-.41-.01-.67-.01-.79-.03-.52-.21-.92-.53-1.2-.22-.2-.47-.35-.76-.45-.29-.1-.59-.18-.89-.23-.3-.05-.59-.08-.85-.09s-.48,0-.65.01h-.38c-.42.02-.83.05-1.24.09-.41.04-.78.13-1.1.28s-.6.34-.81.59c-.22.25-.35.59-.4,1.03-.02.25-.03.57-.04.97s0,.83,0,1.3c0,.48.02.98.03,1.5,0,.53.02,1.04.04,1.54.03.89.06,1.68.08,2.37.02.69,0,1.18-.02,1.47-.05.35-.16.7-.31,1.04-.16.34-.39.65-.69.93-.3.28-.68.5-1.13.68-.45.18-.99.26-1.6.26h-.48c-.77-.05-1.39-.18-1.87-.38-.48-.2-.84-.46-1.1-.79s-.43-.72-.51-1.18-.12-.98-.1-1.57c0-.38,0-.83.01-1.34,0-.51.01-1.06.01-1.64.02-.82.03-1.69.05-2.62.02-.93.03-1.85.05-2.76.02-.91.04-1.78.08-2.6.03-.82.07-1.52.1-2.11.03-.6.02-1.4-.04-2.41s-.13-2.08-.21-3.24c-.08-1.2-.17-2.38-.25-3.54-.08-1.15-.11-2.18-.08-3.08.07-3.13,1.52-4.69,4.36-4.69,1.24,0,2.16.33,2.76.98.28.28.49.61.63.98s.22.75.26,1.15c.04.4.06.8.05,1.2,0,.4-.03.78-.06,1.13l-.03.35c-.03.54-.07,1.18-.11,1.94s-.08,1.51-.13,2.24c-.04.74-.07,1.4-.08,1.98s0,.96.01,1.13c.05.28.18.53.39.73.21.2.45.36.74.48s.59.21.92.26.63.1.9.13c.28.02.6.04.97.04l.18-.02c.33-.02.7-.04,1.1-.06.4-.03.78-.09,1.13-.19.35-.1.66-.25.92-.46.26-.21.42-.49.49-.84.07-.3.11-.71.13-1.22.02-.51.03-1.06.03-1.65s0-1.2-.03-1.83c-.02-.63-.04-1.22-.06-1.77-.03-.55-.05-1.04-.08-1.45-.03-.42-.05-.7-.06-.85-.15-1.22.12-2.22.8-3.01.45-.5.97-.85,1.57-1.05.59-.2,1.13-.3,1.62-.3.18,0,.4.01.66.04.26.03.53.08.8.15.28.08.55.18.83.33.28.14.52.33.74.56.62.62.91,1.46.88,2.53Z"/>
      <path class="cls-5" d="M125.57,454.92c.79.05,1.42.17,1.89.36.48.19.84.45,1.1.78.26.33.43.72.51,1.18s.12.98.1,1.57c-.02.74-.04,1.66-.08,2.78-.03,1.12-.08,2.29-.13,3.5s-.1,2.4-.15,3.56c-.05,1.16-.1,2.14-.15,2.95-.05.65-.09,1.27-.11,1.86-.02.59-.05,1.18-.07,1.79-.03.61-.05,1.26-.08,1.94-.03.69-.05,1.45-.06,2.31-.03,1.76-.31,3.24-.84,4.44-.53,1.2-1.25,2.18-2.18,2.93-.93.75-2.04,1.29-3.35,1.62-1.3.33-2.75.49-4.34.49-1,0-1.99-.06-2.95-.19-.96-.13-1.82-.31-2.57-.56-1.74-.57-3.01-1.63-3.81-3.17-.8-1.55-1.2-3.69-1.18-6.43,0-.15,0-.38.01-.68,0-.3.01-.66.01-1.08,0-.45,0-.96.01-1.53s.02-1.16.02-1.78.02-1.25.03-1.89.01-1.27.01-1.87c.02-.92.02-1.85.01-2.8,0-.94-.02-1.87-.04-2.77,0-.79,0-1.54-.01-2.26,0-.72,0-1.38,0-1.98,0-.6.02-1.13.04-1.58.02-.45.04-.8.08-1.05.07-.45.24-.83.51-1.14.28-.31.61-.56.99-.75s.79-.33,1.23-.41.83-.13,1.18-.13c.18,0,.4.01.66.04s.53.07.8.14c.28.07.55.17.83.3.28.13.52.32.74.55.53.54.79,1.25.75,2.13,0,.2,0,.6-.01,1.2,0,.6-.02,1.33-.04,2.19-.02.86-.03,1.8-.05,2.82-.02,1.02-.03,2.06-.05,3.11-.02,1.05-.03,2.08-.05,3.07-.02.99-.03,1.89-.05,2.68-.02.79-.03,1.45-.04,1.97s-.01.82-.01.9c0,.87.05,1.6.16,2.18.11.59.28,1.06.53,1.42.24.36.56.61.96.76.4.15.9.23,1.51.23.69,0,1.22-.11,1.62-.34.39-.23.7-.54.92-.95.22-.41.37-.9.45-1.47s.16-1.19.23-1.86c.02-.23.03-.69.05-1.35.02-.67.03-1.46.05-2.38.02-.92.03-1.92.04-3,0-1.08.01-2.14.01-3.2.02-1.04.03-2.02.04-2.95,0-.93.02-1.76.03-2.51,0-.74.02-1.36.04-1.84.02-.49.03-.8.05-.95.05-.35.15-.7.31-1.05.16-.35.39-.66.69-.94.3-.28.68-.5,1.13-.68.45-.18.99-.26,1.61-.26.08,0,.16,0,.23.01s.14.01.23.01Z"/>
      <path class="cls-5" d="M152.16,471.49c1.99.18,3.44,1.05,4.36,2.58.37.62.62,1.31.76,2.07s.2,1.54.16,2.34c-.03.8-.14,1.59-.31,2.36-.18.77-.41,1.47-.69,2.11-.92,2.06-2.27,3.62-4.05,4.69-1.78,1.07-3.92,1.61-6.41,1.61-.57,0-1.08-.03-1.53-.08s-.88-.14-1.29-.28c-.41-.13-.81-.32-1.2-.55-.39-.23-.82-.54-1.27-.9-.22-.18-.4-.32-.54-.41-.14-.09-.28-.14-.41-.14-.07.02-.14.07-.21.15-.08.08-.16.18-.24.28-.12.15-.26.31-.44.49s-.39.34-.64.49c-.25.15-.55.28-.89.38-.34.1-.76.15-1.24.15-1.29,0-2.25-.32-2.88-.95-.65-.67-.95-1.72-.9-3.16,0-.45.01-.97.04-1.55.02-.59.05-1.2.09-1.86.03-.65.07-1.33.11-2.03.04-.7.09-1.4.14-2.11.07-.97.13-1.89.18-2.77s.09-1.63.13-2.27c.03-.77,0-1.68-.08-2.73-.08-1.05-.18-2.17-.3-3.36-.12-1.15-.23-2.29-.33-3.4-.1-1.11-.13-2.12-.1-3.02.03-1.62.39-2.81,1.07-3.57.68-.76,1.73-1.14,3.15-1.14.55,0,7.92-.08,9.03-.08.4,0,.83.02,1.28.06.45.04.94.11,1.45.21.95.18,1.88.43,2.78.74.9.31,1.72.74,2.44,1.29.73.55,1.34,1.27,1.83,2.14s.81,1.98.94,3.3c.08.8.06,1.63-.06,2.48-.13.85-.36,1.66-.71,2.41-.35.75-.82,1.43-1.42,2.02s-1.33,1.04-2.22,1.34c-.23.08-.38.16-.45.24-.07.08-.1.12-.1.14,0,.03.07.08.2.15.13.07.39.12.78.15ZM140.38,476.68c-.17.39-.27.8-.31,1.24-.04.44-.06.86-.05,1.27,0,.4.04.76.1,1.08s.1.53.14.65c.12.4.36.75.74,1.04s.81.53,1.3.71.99.32,1.49.41c.5.09.94.14,1.3.14.3,0,.65-.03,1.04-.09.39-.06.79-.18,1.19-.35s.77-.43,1.12-.75c.34-.33.61-.76.81-1.32.48-1.29.23-2.62-.78-3.99-.42-.4-1.05-.7-1.88-.9s-1.69-.3-2.56-.3c-.23,0-.54.02-.92.05-.38.03-.75.09-1.12.18-.37.08-.71.2-1.02.35-.31.15-.51.34-.61.58ZM148.75,464.72c0-.69-.15-1.24-.44-1.66s-.66-.74-1.12-.98c-.45-.23-.96-.39-1.53-.48s-1.13-.13-1.68-.13-1.11.05-1.62.15c-.51.1-.92.27-1.24.5-.27.2-.48.43-.63.68-.15.25-.26.52-.33.8-.07.28-.11.58-.11.89,0,.31-.01.61-.01.91v.23c-.03.64,0,1.19.09,1.67.09.48.36.95.82,1.42.18.18.44.32.78.41.33.09.72.14,1.15.14.69,0,1.38-.09,2.08-.26.7-.18,1.33-.45,1.89-.83.56-.38,1.02-.85,1.37-1.43.35-.58.53-1.26.53-2.04Z"/>
    </g>
    <g>
      <path class="cls-2" d="M85.67,447.31s-5.96,1.12-5.26-10.41c.7-11.53,1.62-12.55.31-17.17s-.66-9.04,4.49-9.32c4.46-.24,3.01,4.59,3.29,9.87.29,5.29,1.43,9.55,1.74,12.01.31,2.46-.3,13.72-4.57,15.01Z"/>
      <g>
        <path class="cls-2" d="M122,412.38c3.98,1.45,5.79,4.67,5.44,9.66-.02.27-.04.7-.08,1.29-.03.59-.07,1.28-.1,2.06-.03.78-.07,1.6-.1,2.48-.03.88-.05,1.74-.05,2.6v2.78c0,.94,0,1.86.03,2.76,0,.79,0,1.54.01,2.27,0,.73,0,1.39,0,1.99,0,.6-.02,1.12-.04,1.57-.02.44-.04.79-.08,1.04-.07.45-.24.83-.51,1.14-.28.31-.61.56-.99.76s-.79.34-1.22.43c-.43.08-.82.13-1.19.13-.18,0-.41-.01-.66-.04-.26-.03-.53-.07-.8-.14-.28-.07-.55-.17-.83-.3-.28-.13-.52-.32-.74-.55-.54-.53-.79-1.25-.75-2.13,0-.2,0-.6.01-1.2,0-.6.02-1.33.04-2.18.02-.85.03-1.79.05-2.82.02-1.03.03-2.07.05-3.12.02-1.05.03-2.08.05-3.07.02-.99.03-1.89.05-2.68s.03-1.45.04-1.97c0-.52.01-.82.01-.9,0-.32-.02-.71-.05-1.18-.03-.47-.12-.92-.25-1.35-.13-.43-.33-.81-.6-1.12-.27-.31-.63-.46-1.08-.46-.35,0-.7.08-1.04.25-.34.17-.65.38-.93.65-.28.27-.51.57-.69.91-.18.34-.29.69-.33,1.04,0,.08-.02.34-.05.78-.03.43-.06.99-.09,1.67-.03.68-.05,1.45-.09,2.32-.03.87-.05,1.8-.05,2.78,0,.92,0,1.85.01,2.78,0,.94.01,1.86.01,2.76.02.79.03,1.54.04,2.26,0,.72,0,1.38,0,1.98,0,.6-.02,1.13-.04,1.58-.02.45-.04.8-.08,1.05-.07.45-.24.83-.51,1.14-.28.31-.61.56-.99.76s-.79.34-1.23.43-.83.13-1.18.13c-.2,0-.43-.01-.69-.04s-.53-.08-.8-.15c-.28-.07-.55-.18-.83-.31-.28-.13-.52-.31-.74-.53-.52-.55-.77-1.26-.75-2.13,0-.18,0-.56.03-1.13.02-.57.03-1.26.05-2.07.02-.81.03-1.71.05-2.7.02-.99.03-1.98.05-2.98.02-1,.03-1.99.05-2.95.02-.96.03-1.83.04-2.6,0-.77.02-1.4.03-1.91,0-.5.01-.79.01-.88,0-.5-.01-1-.04-1.49s-.08-.95-.15-1.38c-.07-.43-.18-.8-.3-1.13s-.3-.56-.51-.71c-.17-.15-.38-.23-.65-.23-.08,0-.17,0-.26.02-.09.02-.19.04-.29.08-.25.07-.53.19-.85.38s-.63.44-.93.76c-.3.33-.57.73-.79,1.22s-.37,1.06-.44,1.73c-.02.23-.03.69-.05,1.37-.02.68-.03,1.48-.05,2.39-.02.92-.03,1.92-.04,3,0,1.08-.02,2.14-.04,3.2,0,1.02,0,2-.01,2.93,0,.94-.02,1.78-.03,2.52s-.02,1.36-.04,1.84c-.02.49-.03.8-.05.95-.05.35-.16.7-.31,1.04-.16.34-.39.65-.69.93-.3.28-.68.5-1.13.68-.45.18-.99.26-1.6.26h-.48c-.77-.05-1.39-.18-1.87-.38-.48-.2-.85-.46-1.12-.79-.27-.33-.44-.72-.53-1.18-.08-.46-.12-.98-.1-1.57.02-.8.05-1.78.09-2.92.04-1.14.09-2.32.14-3.54.05-1.21.1-2.38.15-3.51.05-1.13.1-2.07.15-2.82.03-.59,0-1.39-.08-2.41s-.18-2.12-.28-3.29c-.12-1.24-.22-2.46-.31-3.67-.09-1.21-.13-2.27-.11-3.17.07-3.13,1.51-4.69,4.34-4.69,1.27,0,2.2.31,2.78.93.2.22.35.46.45.73.1.27.17.54.21.8.04.27.06.53.05.78s-.02.49-.04.7l-.03.23c0,.15.03.25.08.3.07-.02.15-.07.25-.15.08-.07.18-.17.3-.31.12-.14.27-.35.45-.64.35-.57.73-1.04,1.14-1.4.41-.37.82-.66,1.23-.86.41-.21.82-.35,1.24-.44s.81-.13,1.18-.13c.48,0,.93.05,1.33.14.4.09.74.19,1,.29.55.2,1.02.43,1.39.7s.69.54.94.8c.25.27.45.53.61.79.16.26.3.49.41.69.08.18.16.33.24.45s.15.18.21.18c.03-.02.18-.14.43-.38s.59-.62,1.03-1.15c.72-.85,1.56-1.47,2.52-1.87.96-.39,1.91-.59,2.85-.59.75,0,1.44.12,2.06.35Z"/>
        <path class="cls-2" d="M178.07,412.35c.79.05,1.42.17,1.89.36.48.19.84.45,1.1.78.26.33.43.72.51,1.18s.12.98.1,1.57c-.02.74-.04,1.66-.08,2.78-.03,1.12-.08,2.29-.13,3.5s-.1,2.4-.15,3.56c-.05,1.16-.1,2.14-.15,2.95-.05.65-.09,1.27-.11,1.86-.02.59-.05,1.18-.07,1.79-.03.61-.05,1.26-.08,1.94-.03.69-.05,1.45-.06,2.31-.03,1.76-.31,3.24-.84,4.44-.53,1.2-1.25,2.18-2.18,2.93-.93.75-2.04,1.29-3.35,1.62-1.3.33-2.75.49-4.34.49-1,0-1.99-.06-2.95-.19-.96-.13-1.82-.31-2.57-.56-1.74-.57-3.01-1.63-3.81-3.17-.8-1.55-1.2-3.69-1.18-6.43,0-.15,0-.38.01-.68,0-.3.01-.66.01-1.08,0-.45,0-.96.01-1.53s.02-1.16.02-1.78.02-1.25.03-1.89.01-1.27.01-1.87c.02-.92.02-1.85.01-2.8,0-.94-.02-1.87-.04-2.77,0-.79,0-1.54-.01-2.26,0-.72,0-1.38,0-1.98,0-.6.02-1.13.04-1.58.02-.45.04-.8.08-1.05.07-.45.24-.83.51-1.14.28-.31.61-.56.99-.75s.79-.33,1.23-.41.83-.13,1.18-.13c.18,0,.4.01.66.04s.53.07.8.14c.28.07.55.17.83.3.28.13.52.32.74.55.53.54.79,1.25.75,2.13,0,.2,0,.6-.01,1.2,0,.6-.02,1.33-.04,2.19-.02.86-.03,1.8-.05,2.82-.02,1.02-.03,2.06-.05,3.11-.02,1.05-.03,2.08-.05,3.07-.02.99-.03,1.89-.05,2.68-.02.79-.03,1.45-.04,1.97s-.01.82-.01.9c0,.87.05,1.6.16,2.18.11.59.28,1.06.53,1.42.24.36.56.61.96.76.4.15.9.23,1.51.23.69,0,1.22-.11,1.62-.34.39-.23.7-.54.92-.95.22-.41.37-.9.45-1.47s.16-1.19.23-1.86c.02-.23.03-.69.05-1.35.02-.67.03-1.46.05-2.38.02-.92.03-1.92.04-3,0-1.08.01-2.14.01-3.2.02-1.04.03-2.02.04-2.95,0-.93.02-1.76.03-2.51,0-.74.02-1.36.04-1.84.02-.49.03-.8.05-.95.05-.35.15-.7.31-1.05.16-.35.39-.66.69-.94.3-.28.68-.5,1.13-.68.45-.18.99-.26,1.61-.26.08,0,.16,0,.23.01s.14.01.23.01Z"/>
        <path class="cls-2" d="M208.74,415.85c0,.3-.06.64-.19,1.03-.13.39-.36.74-.69,1.08-.65.6-1.52.88-2.61.83-.65-.03-1.2-.06-1.63-.08-.6-.05-1.08-.07-1.43-.07-.54,0-.94.08-1.23.25-.13.08-.27.29-.41.61-.14.33-.23.89-.26,1.69v.05c-.02.5-.03.92-.04,1.27,0,.34-.02.65-.03.92s0,.51,0,.71.01.42.01.64v1.48c0,.32,0,.69-.01,1.13,0,.44-.02.94-.04,1.53-.02.55-.01,1.18.01,1.88.02.7.05,1.43.09,2.18s.08,1.52.13,2.29c.05.78.1,1.52.15,2.22.08,1.15.15,2.14.2,2.97.05.83.06,1.38.02,1.67-.03.33-.14.69-.31,1.07s-.43.73-.75,1.05c-.33.33-.73.6-1.22.82-.48.22-1.05.33-1.71.33h-.4c-1.37-.1-2.35-.47-2.95-1.12-.59-.64-.87-1.64-.84-3,.02-.45.04-.97.06-1.55.02-.59.05-1.2.09-1.86.03-.65.07-1.33.11-2.03.04-.7.09-1.4.14-2.11.07-.97.13-1.89.18-2.77.05-.88.09-1.63.13-2.27.03-.69.05-1.4.06-2.14,0-.74,0-1.47,0-2.19,0-.72-.02-1.39-.02-2.01s-.02-1.14-.04-1.55v-.6c0-.27-.05-.5-.16-.7-.11-.2-.23-.37-.36-.5s-.28-.23-.44-.3c-.16-.07-.29-.11-.39-.13-.17-.02-.31-.02-.44-.01s-.28.02-.46.04c-.18.02-.4.03-.64.05s-.56.02-.94.02c-.45,0-1.1-.02-1.93-.08-.33-.02-.67-.07-1.02-.18-.34-.1-.65-.26-.93-.48-.28-.22-.5-.51-.66-.89-.17-.38-.24-.85-.23-1.42,0-.18.02-.44.06-.78.04-.33.14-.68.3-1.04.16-.36.4-.69.71-1s.76-.53,1.33-.66c.15-.03.35-.06.59-.07.24-.02.53-.03.86-.03.75,0,1.71.03,2.86.08.74.02,1.55.03,2.43.05.89.02,1.83.03,2.83.03,1.24,0,2.38-.01,3.42-.04,1.04-.02,1.96-.05,2.75-.09.54-.02,1-.03,1.4-.05.4-.02.75-.02,1.05-.02,1.2,0,2.07.34,2.61,1.02.54.68.8,1.63.8,2.85Z"/>
        <path class="cls-2" d="M234.57,420.47c.35.84.62,1.77.81,2.8s.32,2.1.39,3.22.08,2.26.03,3.42c-.05,1.16-.16,2.3-.31,3.42-.16,1.12-.36,2.19-.6,3.2-.24,1.01-.52,1.92-.84,2.72-.55,1.42-1.19,2.61-1.92,3.57-.73.96-1.56,1.73-2.51,2.29s-2.01.97-3.21,1.22-2.54.36-4.02.36c-1.19,0-2.32-.14-3.39-.43-1.07-.28-2.05-.69-2.95-1.22-.89-.53-1.69-1.17-2.38-1.93-.69-.76-1.27-1.62-1.72-2.57-.44-.95-.81-2.02-1.13-3.2-.32-1.18-.56-2.42-.74-3.71-.18-1.3-.27-2.63-.28-4,0-1.37.07-2.72.23-4.05.16-1.33.42-2.62.78-3.86.36-1.25.82-2.39,1.39-3.42,2.19-3.98,5.61-5.98,10.26-6.02,2.99,0,5.47.67,7.45,2.02,1.97,1.35,3.53,3.4,4.66,6.16ZM227.12,433.86c.15-.94.26-1.88.34-2.85.08-.96.11-1.91.1-2.85,0-.94-.06-1.84-.15-2.71-.09-.87-.23-1.68-.41-2.43-.27-1.09-.8-1.97-1.61-2.65-.8-.68-1.72-1.02-2.76-1.04h-.03c-1.05,0-1.96.36-2.73,1.08-.77.72-1.32,1.73-1.65,3.03-.2.77-.35,1.62-.44,2.56-.09.94-.16,1.85-.2,2.75-.04.89-.06,1.72-.05,2.47,0,.75.02,1.33.04,1.73.02.32.05.7.11,1.15.06.45.15.92.29,1.39.13.48.32.95.55,1.42.23.47.53.89.88,1.27s.78.68,1.28.9c.5.23,1.09.34,1.78.34,2.47,0,4.03-1.86,4.66-5.57Z"/>
      </g>
      <path class="cls-2" d="M151.3,428.75c1.99.18,3.44,1.05,4.36,2.58.37.62.62,1.31.76,2.07s.2,1.54.16,2.34c-.03.8-.14,1.59-.31,2.36-.18.77-.41,1.47-.69,2.11-.92,2.06-2.27,3.62-4.05,4.69-1.78,1.07-3.92,1.61-6.41,1.61-.57,0-1.08-.03-1.53-.08s-.88-.14-1.29-.28c-.41-.13-.81-.32-1.2-.55-.39-.23-.82-.54-1.27-.9-.22-.18-.4-.32-.54-.41-.14-.09-.28-.14-.41-.14-.07.02-.14.07-.21.15-.08.08-.16.18-.24.28-.12.15-.26.31-.44.49s-.39.34-.64.49c-.25.15-.55.28-.89.38-.34.1-.76.15-1.24.15-1.29,0-2.25-.32-2.88-.95-.65-.67-.95-1.72-.9-3.16,0-.45.01-.97.04-1.55.02-.59.05-1.2.09-1.86.03-.65.07-1.33.11-2.03.04-.7.09-1.4.14-2.11.07-.97.13-1.89.18-2.77s.09-1.63.13-2.27c.03-.77,0-1.68-.08-2.73-.08-1.05-.18-2.17-.3-3.36-.12-1.15-.23-2.29-.33-3.4-.1-1.11-.13-2.12-.1-3.02.03-1.62.39-2.81,1.07-3.57.68-.76,1.73-1.14,3.15-1.14.55,0,7.92-.08,9.03-.08.4,0,.83.02,1.28.06.45.04.94.11,1.45.21.95.18,1.88.43,2.78.74.9.31,1.72.74,2.44,1.29.73.55,1.34,1.27,1.83,2.14.49.88.81,1.98.94,3.3.08.8.06,1.63-.06,2.48-.13.85-.36,1.66-.71,2.41-.35.75-.82,1.43-1.42,2.02s-1.33,1.04-2.22,1.34c-.23.08-.38.16-.45.24-.07.08-.1.12-.1.14,0,.03.07.08.2.15.13.07.39.12.78.15ZM140.38,433.94c-.17.39-.27.8-.31,1.24-.04.44-.06.86-.05,1.27,0,.4.04.76.1,1.08s.1.53.14.65c.12.4.36.75.74,1.04s.81.53,1.3.71.99.32,1.49.41c.5.09.94.14,1.3.14.3,0,.65-.03,1.04-.09.39-.06.79-.18,1.19-.35s.77-.43,1.12-.75c.34-.33.61-.76.81-1.32.48-1.29.23-2.62-.78-3.99-.42-.4-1.05-.7-1.88-.9s-1.69-.3-2.56-.3c-.23,0-.54.02-.92.05-.38.03-.75.09-1.12.18-.37.08-.71.2-1.02.35-.31.15-.51.34-.61.58ZM148.75,421.98c0-.69-.15-1.24-.44-1.66s-.66-.74-1.12-.98c-.45-.23-.96-.39-1.53-.48s-1.13-.13-1.68-.13-1.11.05-1.62.15c-.51.1-.92.27-1.24.5-.27.2-.48.43-.63.68-.15.25-.26.52-.33.8-.07.28-.11.58-.11.89,0,.31-.01.61-.01.91v.23c-.03.64,0,1.19.09,1.67.09.48.36.95.82,1.42.18.18.44.32.78.41.33.09.72.14,1.15.14.69,0,1.38-.09,2.08-.26.7-.18,1.33-.45,1.89-.83s1.02-.85,1.37-1.43c.35-.58.53-1.26.53-2.04Z"/>
    </g>
    <g>
      <path class="cls-5" d="M80.37,407.32c-.64-.19-1.12-.72-1.29-1.37-.44-1.68-.75-5.57,1.92-8.69,3-3.5,5.59-1.64,6.43,2.93s-1.07,6.37-1.53,6.71c-.37.28-3.76.94-5.53.41Z"/>
      <g>
        <path class="cls-2" d="M77.19,408.15s-3.69-3.73-12.83-6.61c-7.35-2.32-14.02-3.62-14.02-3.62,0,0,7.18,6.55,14.01,8.61,8.36,2.52,12.84,1.62,12.84,1.62Z"/>
        <path class="cls-2" d="M77.01,405.14s-1.98-6.51-6.83-10.67c-4.85-4.16-10.53-4.62-10.53-4.62,0,0,2.22,2.13,5.13,6.55,4.95,7.51,12.23,8.73,12.23,8.73Z"/>
        <path class="cls-2" d="M62.22,398.78s-2.76-7.09-10.37-8.74c0,0,2.21,7.41,10.37,8.74Z"/>
        <path class="cls-2" d="M77.04,411.17s-4.55-1.83-9.92-.55c-3.74.89-7.16,3.06-7.16,3.06,0,0,7.02,1.08,9.9.67,4.9-.7,7.17-3.18,7.17-3.18Z"/>
      </g>
    </g>
  </g>
  <g>
    <g>
      <path class="cls-5" d="M370.23,458.5c-.03.9-.09,1.86-.16,2.88-.08,1.02-.16,2.06-.24,3.11-.1,1.3-.2,2.6-.29,3.9-.09,1.3-.14,2.47-.14,3.52,0,.43.03,1.07.09,1.91.06.84.13,1.77.21,2.81.08.89.16,1.81.23,2.76.07.95.13,1.87.18,2.75s.08,1.68.08,2.39-.03,1.29-.08,1.71c-.07.43-.22.81-.45,1.13s-.52.59-.86.8c-.34.22-.72.38-1.13.49-.41.11-.81.16-1.22.16-.54,0-1.05-.1-1.55-.3s-.92-.47-1.25-.8c-.64-.64-.94-1.45-.9-2.43.02-.23.02-.59.01-1.08,0-.48-.01-1.02-.01-1.6s0-1.2-.01-1.84-.02-1.24-.04-1.79c-.02-.55-.03-1.03-.04-1.44,0-.41-.01-.67-.01-.79-.03-.52-.21-.92-.53-1.2-.22-.2-.47-.35-.76-.45-.29-.1-.59-.18-.89-.23-.3-.05-.59-.08-.85-.09s-.48,0-.65.01h-.38c-.42.02-.83.05-1.24.09-.41.04-.78.13-1.1.28s-.6.34-.81.59c-.22.25-.35.59-.4,1.03-.02.25-.03.57-.04.97s0,.83,0,1.3c0,.48.02.98.03,1.5,0,.53.02,1.04.04,1.54.03.89.06,1.68.08,2.37.02.69,0,1.18-.02,1.47-.05.35-.16.7-.31,1.04-.16.34-.39.65-.69.93-.3.28-.68.5-1.13.68-.45.18-.99.26-1.6.26h-.48c-.77-.05-1.39-.18-1.87-.38-.48-.2-.84-.46-1.1-.79s-.43-.72-.51-1.18-.12-.98-.1-1.57c0-.38,0-.83.01-1.34,0-.51.01-1.06.01-1.64.02-.82.03-1.69.05-2.62.02-.93.03-1.85.05-2.76.02-.91.04-1.78.08-2.6.03-.82.07-1.52.1-2.11.03-.6.02-1.4-.04-2.41s-.13-2.08-.21-3.24c-.08-1.2-.17-2.38-.25-3.54-.08-1.15-.11-2.18-.08-3.08.07-3.13,1.52-4.69,4.36-4.69,1.24,0,2.16.33,2.76.98.28.28.49.61.63.98s.22.75.26,1.15c.04.4.06.8.05,1.2,0,.4-.03.78-.06,1.13l-.03.35c-.03.54-.07,1.18-.11,1.94s-.08,1.51-.13,2.24c-.04.74-.07,1.4-.08,1.98s0,.96.01,1.13c.05.28.18.53.39.73.21.2.45.36.74.48s.59.21.92.26.63.1.9.13c.28.02.6.04.97.04l.18-.02c.33-.02.7-.04,1.1-.06.4-.03.78-.09,1.13-.19.35-.1.66-.25.92-.46.26-.21.42-.49.49-.84.07-.3.11-.71.13-1.22.02-.51.03-1.06.03-1.65s0-1.2-.03-1.83c-.02-.63-.04-1.22-.06-1.77-.03-.55-.05-1.04-.08-1.45-.03-.42-.05-.7-.06-.85-.15-1.22.12-2.22.8-3.01.45-.5.97-.85,1.57-1.05.59-.2,1.13-.3,1.62-.3.18,0,.4.01.66.04.26.03.53.08.8.15.28.08.55.18.83.33.28.14.52.33.74.56.62.62.91,1.46.88,2.53Z"/>
      <path class="cls-5" d="M391.66,454.92c.79.05,1.42.17,1.89.36.48.19.84.45,1.1.78.26.33.43.72.51,1.18s.12.98.1,1.57c-.02.74-.04,1.66-.08,2.78-.03,1.12-.08,2.29-.13,3.5s-.1,2.4-.15,3.56c-.05,1.16-.1,2.14-.15,2.95-.05.65-.09,1.27-.11,1.86-.02.59-.05,1.18-.07,1.79-.03.61-.05,1.26-.08,1.94-.03.69-.05,1.45-.06,2.31-.03,1.76-.31,3.24-.84,4.44-.53,1.2-1.25,2.18-2.18,2.93-.93.75-2.04,1.29-3.35,1.62-1.3.33-2.75.49-4.34.49-1,0-1.99-.06-2.95-.19-.96-.13-1.82-.31-2.57-.56-1.74-.57-3.01-1.63-3.81-3.17-.8-1.55-1.2-3.69-1.18-6.43,0-.15,0-.38.01-.68,0-.3.01-.66.01-1.08,0-.45,0-.96.01-1.53s.02-1.16.02-1.78.02-1.25.03-1.89.01-1.27.01-1.87c.02-.92.02-1.85.01-2.8,0-.94-.02-1.87-.04-2.77,0-.79,0-1.54-.01-2.26,0-.72,0-1.38,0-1.98,0-.6.02-1.13.04-1.58.02-.45.04-.8.08-1.05.07-.45.24-.83.51-1.14.28-.31.61-.56.99-.75s.79-.33,1.23-.41.83-.13,1.18-.13c.18,0,.4.01.66.04s.53.07.8.14c.28.07.55.17.83.3.28.13.52.32.74.55.53.54.79,1.25.75,2.13,0,.2,0,.6-.01,1.2,0,.6-.02,1.33-.04,2.19-.02.86-.03,1.8-.05,2.82-.02,1.02-.03,2.06-.05,3.11-.02,1.05-.03,2.08-.05,3.07-.02.99-.03,1.89-.05,2.68-.02.79-.03,1.45-.04,1.97s-.01.82-.01.9c0,.87.05,1.6.16,2.18.11.59.28,1.06.53,1.42.24.36.56.61.96.76.4.15.9.23,1.51.23.69,0,1.22-.11,1.62-.34.39-.23.7-.54.92-.95.22-.41.37-.9.45-1.47s.16-1.19.23-1.86c.02-.23.03-.69.05-1.35.02-.67.03-1.46.05-2.38.02-.92.03-1.92.04-3,0-1.08.01-2.14.01-3.2.02-1.04.03-2.02.04-2.95,0-.93.02-1.76.03-2.51,0-.74.02-1.36.04-1.84.02-.49.03-.8.05-.95.05-.35.15-.7.31-1.05.16-.35.39-.66.69-.94.3-.28.68-.5,1.13-.68.45-.18.99-.26,1.61-.26.08,0,.16,0,.23.01s.14.01.23.01Z"/>
      <path class="cls-5" d="M418.25,471.49c1.99.18,3.44,1.05,4.36,2.58.37.62.62,1.31.76,2.07s.2,1.54.16,2.34c-.03.8-.14,1.59-.31,2.36-.18.77-.41,1.47-.69,2.11-.92,2.06-2.27,3.62-4.05,4.69-1.78,1.07-3.92,1.61-6.41,1.61-.57,0-1.08-.03-1.53-.08s-.88-.14-1.29-.28c-.41-.13-.81-.32-1.2-.55-.39-.23-.82-.54-1.27-.9-.22-.18-.4-.32-.54-.41-.14-.09-.28-.14-.41-.14-.07.02-.14.07-.21.15-.08.08-.16.18-.24.28-.12.15-.26.31-.44.49s-.39.34-.64.49c-.25.15-.55.28-.89.38-.34.1-.76.15-1.24.15-1.29,0-2.25-.32-2.88-.95-.65-.67-.95-1.72-.9-3.16,0-.45.01-.97.04-1.55.02-.59.05-1.2.09-1.86.03-.65.07-1.33.11-2.03.04-.7.09-1.4.14-2.11.07-.97.13-1.89.18-2.77s.09-1.63.13-2.27c.03-.77,0-1.68-.08-2.73-.08-1.05-.18-2.17-.3-3.36-.12-1.15-.23-2.29-.33-3.4-.1-1.11-.13-2.12-.1-3.02.03-1.62.39-2.81,1.07-3.57.68-.76,1.73-1.14,3.15-1.14.55,0,7.92-.08,9.03-.08.4,0,.83.02,1.28.06.45.04.94.11,1.45.21.95.18,1.88.43,2.78.74.9.31,1.72.74,2.44,1.29.73.55,1.34,1.27,1.83,2.14s.81,1.98.94,3.3c.08.8.06,1.63-.06,2.48-.13.85-.36,1.66-.71,2.41-.35.75-.82,1.43-1.42,2.02s-1.33,1.04-2.22,1.34c-.23.08-.38.16-.45.24-.07.08-.1.12-.1.14,0,.03.07.08.2.15.13.07.39.12.78.15ZM406.46,476.68c-.17.39-.27.8-.31,1.24-.04.44-.06.86-.05,1.27,0,.4.04.76.1,1.08s.1.53.14.65c.12.4.36.75.74,1.04s.81.53,1.3.71.99.32,1.49.41c.5.09.94.14,1.3.14.3,0,.65-.03,1.04-.09.39-.06.79-.18,1.19-.35s.77-.43,1.12-.75c.34-.33.61-.76.81-1.32.48-1.29.23-2.62-.78-3.99-.42-.4-1.05-.7-1.88-.9s-1.69-.3-2.56-.3c-.23,0-.54.02-.92.05-.38.03-.75.09-1.12.18-.37.08-.71.2-1.02.35-.31.15-.51.34-.61.58ZM414.84,464.72c0-.69-.15-1.24-.44-1.66s-.66-.74-1.12-.98c-.45-.23-.96-.39-1.53-.48s-1.13-.13-1.68-.13-1.11.05-1.62.15c-.51.1-.92.27-1.24.5-.27.2-.48.43-.63.68-.15.25-.26.52-.33.8-.07.28-.11.58-.11.89,0,.31-.01.61-.01.91v.23c-.03.64,0,1.19.09,1.67.09.48.36.95.82,1.42.18.18.44.32.78.41.33.09.72.14,1.15.14.69,0,1.38-.09,2.08-.26.7-.18,1.33-.45,1.89-.83.56-.38,1.02-.85,1.37-1.43.35-.58.53-1.26.53-2.04Z"/>
    </g>
    <g>
      <path class="cls-2" d="M351.75,447.31s-5.96,1.12-5.26-10.41c.7-11.53,1.62-12.55.31-17.17s-.66-9.04,4.49-9.32c4.46-.24,3.01,4.59,3.29,9.87.29,5.29,1.43,9.55,1.74,12.01.31,2.46-.3,13.72-4.57,15.01Z"/>
      <g>
        <path class="cls-2" d="M388.08,412.38c3.98,1.45,5.79,4.67,5.44,9.66-.02.27-.04.7-.08,1.29-.03.59-.07,1.28-.1,2.06-.03.78-.07,1.6-.1,2.48-.03.88-.05,1.74-.05,2.6v2.78c0,.94,0,1.86.03,2.76,0,.79,0,1.54.01,2.27,0,.73,0,1.39,0,1.99,0,.6-.02,1.12-.04,1.57-.02.44-.04.79-.08,1.04-.07.45-.24.83-.51,1.14-.28.31-.61.56-.99.76s-.79.34-1.22.43c-.43.08-.82.13-1.19.13-.18,0-.41-.01-.66-.04-.26-.03-.53-.07-.8-.14-.28-.07-.55-.17-.83-.3-.28-.13-.52-.32-.74-.55-.54-.53-.79-1.25-.75-2.13,0-.2,0-.6.01-1.2,0-.6.02-1.33.04-2.18.02-.85.03-1.79.05-2.82.02-1.03.03-2.07.05-3.12.02-1.05.03-2.08.05-3.07.02-.99.03-1.89.05-2.68s.03-1.45.04-1.97c0-.52.01-.82.01-.9,0-.32-.02-.71-.05-1.18-.03-.47-.12-.92-.25-1.35-.13-.43-.33-.81-.6-1.12-.27-.31-.63-.46-1.08-.46-.35,0-.7.08-1.04.25-.34.17-.65.38-.93.65-.28.27-.51.57-.69.91-.18.34-.29.69-.33,1.04,0,.08-.02.34-.05.78-.03.43-.06.99-.09,1.67-.03.68-.05,1.45-.09,2.32-.03.87-.05,1.8-.05,2.78,0,.92,0,1.85.01,2.78,0,.94.01,1.86.01,2.76.02.79.03,1.54.04,2.26,0,.72,0,1.38,0,1.98,0,.6-.02,1.13-.04,1.58-.02.45-.04.8-.08,1.05-.07.45-.24.83-.51,1.14-.28.31-.61.56-.99.76s-.79.34-1.23.43-.83.13-1.18.13c-.2,0-.43-.01-.69-.04s-.53-.08-.8-.15c-.28-.07-.55-.18-.83-.31-.28-.13-.52-.31-.74-.53-.52-.55-.77-1.26-.75-2.13,0-.18,0-.56.03-1.13.02-.57.03-1.26.05-2.07.02-.81.03-1.71.05-2.7.02-.99.03-1.98.05-2.98.02-1,.03-1.99.05-2.95.02-.96.03-1.83.04-2.6,0-.77.02-1.4.03-1.91,0-.5.01-.79.01-.88,0-.5-.01-1-.04-1.49s-.08-.95-.15-1.38c-.07-.43-.18-.8-.3-1.13s-.3-.56-.51-.71c-.17-.15-.38-.23-.65-.23-.08,0-.17,0-.26.02-.09.02-.19.04-.29.08-.25.07-.53.19-.85.38s-.63.44-.93.76c-.3.33-.57.73-.79,1.22s-.37,1.06-.44,1.73c-.02.23-.03.69-.05,1.37-.02.68-.03,1.48-.05,2.39-.02.92-.03,1.92-.04,3,0,1.08-.02,2.14-.04,3.2,0,1.02,0,2-.01,2.93,0,.94-.02,1.78-.03,2.52s-.02,1.36-.04,1.84c-.02.49-.03.8-.05.95-.05.35-.16.7-.31,1.04-.16.34-.39.65-.69.93-.3.28-.68.5-1.13.68-.45.18-.99.26-1.6.26h-.48c-.77-.05-1.39-.18-1.87-.38-.48-.2-.85-.46-1.12-.79-.27-.33-.44-.72-.53-1.18-.08-.46-.12-.98-.1-1.57.02-.8.05-1.78.09-2.92.04-1.14.09-2.32.14-3.54.05-1.21.1-2.38.15-3.51.05-1.13.1-2.07.15-2.82.03-.59,0-1.39-.08-2.41s-.18-2.12-.28-3.29c-.12-1.24-.22-2.46-.31-3.67-.09-1.21-.13-2.27-.11-3.17.07-3.13,1.51-4.69,4.34-4.69,1.27,0,2.2.31,2.78.93.2.22.35.46.45.73.1.27.17.54.21.8.04.27.06.53.05.78s-.02.49-.04.7l-.03.23c0,.15.03.25.08.3.07-.02.15-.07.25-.15.08-.07.18-.17.3-.31.12-.14.27-.35.45-.64.35-.57.73-1.04,1.14-1.4.41-.37.82-.66,1.23-.86.41-.21.82-.35,1.24-.44s.81-.13,1.18-.13c.48,0,.93.05,1.33.14.4.09.74.19,1,.29.55.2,1.02.43,1.39.7s.69.54.94.8c.25.27.45.53.61.79.16.26.3.49.41.69.08.18.16.33.24.45s.15.18.21.18c.03-.02.18-.14.43-.38s.59-.62,1.03-1.15c.72-.85,1.56-1.47,2.52-1.87.96-.39,1.91-.59,2.85-.59.75,0,1.44.12,2.06.35Z"/>
        <path class="cls-2" d="M444.16,412.35c.79.05,1.42.17,1.89.36.48.19.84.45,1.1.78.26.33.43.72.51,1.18s.12.98.1,1.57c-.02.74-.04,1.66-.08,2.78-.03,1.12-.08,2.29-.13,3.5s-.1,2.4-.15,3.56c-.05,1.16-.1,2.14-.15,2.95-.05.65-.09,1.27-.11,1.86-.02.59-.05,1.18-.07,1.79-.03.61-.05,1.26-.08,1.94-.03.69-.05,1.45-.06,2.31-.03,1.76-.31,3.24-.84,4.44-.53,1.2-1.25,2.18-2.18,2.93-.93.75-2.04,1.29-3.35,1.62-1.3.33-2.75.49-4.34.49-1,0-1.99-.06-2.95-.19-.96-.13-1.82-.31-2.57-.56-1.74-.57-3.01-1.63-3.81-3.17-.8-1.55-1.2-3.69-1.18-6.43,0-.15,0-.38.01-.68,0-.3.01-.66.01-1.08,0-.45,0-.96.01-1.53s.02-1.16.02-1.78.02-1.25.03-1.89.01-1.27.01-1.87c.02-.92.02-1.85.01-2.8,0-.94-.02-1.87-.04-2.77,0-.79,0-1.54-.01-2.26,0-.72,0-1.38,0-1.98,0-.6.02-1.13.04-1.58.02-.45.04-.8.08-1.05.07-.45.24-.83.51-1.14.28-.31.61-.56.99-.75s.79-.33,1.23-.41.83-.13,1.18-.13c.18,0,.4.01.66.04s.53.07.8.14c.28.07.55.17.83.3.28.13.52.32.74.55.53.54.79,1.25.75,2.13,0,.2,0,.6-.01,1.2,0,.6-.02,1.33-.04,2.19-.02.86-.03,1.8-.05,2.82-.02,1.02-.03,2.06-.05,3.11-.02,1.05-.03,2.08-.05,3.07-.02.99-.03,1.89-.05,2.68-.02.79-.03,1.45-.04,1.97s-.01.82-.01.9c0,.87.05,1.6.16,2.18.11.59.28,1.06.53,1.42.24.36.56.61.96.76.4.15.9.23,1.51.23.69,0,1.22-.11,1.62-.34.39-.23.7-.54.92-.95.22-.41.37-.9.45-1.47s.16-1.19.23-1.86c.02-.23.03-.69.05-1.35.02-.67.03-1.46.05-2.38.02-.92.03-1.92.04-3,0-1.08.01-2.14.01-3.2.02-1.04.03-2.02.04-2.95,0-.93.02-1.76.03-2.51,0-.74.02-1.36.04-1.84.02-.49.03-.8.05-.95.05-.35.15-.7.31-1.05.16-.35.39-.66.69-.94.3-.28.68-.5,1.13-.68.45-.18.99-.26,1.61-.26.08,0,.16,0,.23.01s.14.01.23.01Z"/>
        <path class="cls-2" d="M474.83,415.85c0,.3-.06.64-.19,1.03-.13.39-.36.74-.69,1.08-.65.6-1.52.88-2.61.83-.65-.03-1.2-.06-1.63-.08-.6-.05-1.08-.07-1.43-.07-.54,0-.94.08-1.23.25-.13.08-.27.29-.41.61-.14.33-.23.89-.26,1.69v.05c-.02.5-.03.92-.04,1.27,0,.34-.02.65-.03.92s0,.51,0,.71.01.42.01.64v1.48c0,.32,0,.69-.01,1.13,0,.44-.02.94-.04,1.53-.02.55-.01,1.18.01,1.88.02.7.05,1.43.09,2.18s.08,1.52.13,2.29c.05.78.1,1.52.15,2.22.08,1.15.15,2.14.2,2.97.05.83.06,1.38.02,1.67-.03.33-.14.69-.31,1.07s-.43.73-.75,1.05c-.33.33-.73.6-1.22.82-.48.22-1.05.33-1.71.33h-.4c-1.37-.1-2.35-.47-2.95-1.12-.59-.64-.87-1.64-.84-3,.02-.45.04-.97.06-1.55.02-.59.05-1.2.09-1.86.03-.65.07-1.33.11-2.03.04-.7.09-1.4.14-2.11.07-.97.13-1.89.18-2.77.05-.88.09-1.63.13-2.27.03-.69.05-1.4.06-2.14,0-.74,0-1.47,0-2.19,0-.72-.02-1.39-.02-2.01s-.02-1.14-.04-1.55v-.6c0-.27-.05-.5-.16-.7-.11-.2-.23-.37-.36-.5s-.28-.23-.44-.3c-.16-.07-.29-.11-.39-.13-.17-.02-.31-.02-.44-.01s-.28.02-.46.04c-.18.02-.4.03-.64.05s-.56.02-.94.02c-.45,0-1.1-.02-1.93-.08-.33-.02-.67-.07-1.02-.18-.34-.1-.65-.26-.93-.48-.28-.22-.5-.51-.66-.89-.17-.38-.24-.85-.23-1.42,0-.18.02-.44.06-.78.04-.33.14-.68.3-1.04.16-.36.4-.69.71-1s.76-.53,1.33-.66c.15-.03.35-.06.59-.07.24-.02.53-.03.86-.03.75,0,1.71.03,2.86.08.74.02,1.55.03,2.43.05.89.02,1.83.03,2.83.03,1.24,0,2.38-.01,3.42-.04,1.04-.02,1.96-.05,2.75-.09.54-.02,1-.03,1.4-.05.4-.02.75-.02,1.05-.02,1.2,0,2.07.34,2.61,1.02.54.68.8,1.63.8,2.85Z"/>
        <path class="cls-2" d="M500.66,420.47c.35.84.62,1.77.81,2.8s.32,2.1.39,3.22.08,2.26.03,3.42c-.05,1.16-.16,2.3-.31,3.42-.16,1.12-.36,2.19-.6,3.2-.24,1.01-.52,1.92-.84,2.72-.55,1.42-1.19,2.61-1.92,3.57-.73.96-1.56,1.73-2.51,2.29s-2.01.97-3.21,1.22-2.54.36-4.02.36c-1.19,0-2.32-.14-3.39-.43-1.07-.28-2.05-.69-2.95-1.22-.89-.53-1.69-1.17-2.38-1.93-.69-.76-1.27-1.62-1.72-2.57-.44-.95-.81-2.02-1.13-3.2-.32-1.18-.56-2.42-.74-3.71-.18-1.3-.27-2.63-.28-4,0-1.37.07-2.72.23-4.05.16-1.33.42-2.62.78-3.86.36-1.25.82-2.39,1.39-3.42,2.19-3.98,5.61-5.98,10.26-6.02,2.99,0,5.47.67,7.45,2.02,1.97,1.35,3.53,3.4,4.66,6.16ZM493.21,433.86c.15-.94.26-1.88.34-2.85.08-.96.11-1.91.1-2.85,0-.94-.06-1.84-.15-2.71-.09-.87-.23-1.68-.41-2.43-.27-1.09-.8-1.97-1.61-2.65-.8-.68-1.72-1.02-2.76-1.04h-.03c-1.05,0-1.96.36-2.73,1.08-.77.72-1.32,1.73-1.65,3.03-.2.77-.35,1.62-.44,2.56-.09.94-.16,1.85-.2,2.75-.04.89-.06,1.72-.05,2.47,0,.75.02,1.33.04,1.73.02.32.05.7.11,1.15.06.45.15.92.29,1.39.13.48.32.95.55,1.42.23.47.53.89.88,1.27s.78.68,1.28.9c.5.23,1.09.34,1.78.34,2.47,0,4.03-1.86,4.66-5.57Z"/>
      </g>
      <path class="cls-2" d="M417.38,428.75c1.99.18,3.44,1.05,4.36,2.58.37.62.62,1.31.76,2.07s.2,1.54.16,2.34c-.03.8-.14,1.59-.31,2.36-.18.77-.41,1.47-.69,2.11-.92,2.06-2.27,3.62-4.05,4.69-1.78,1.07-3.92,1.61-6.41,1.61-.57,0-1.08-.03-1.53-.08s-.88-.14-1.29-.28c-.41-.13-.81-.32-1.2-.55-.39-.23-.82-.54-1.27-.9-.22-.18-.4-.32-.54-.41-.14-.09-.28-.14-.41-.14-.07.02-.14.07-.21.15-.08.08-.16.18-.24.28-.12.15-.26.31-.44.49s-.39.34-.64.49c-.25.15-.55.28-.89.38-.34.1-.76.15-1.24.15-1.29,0-2.25-.32-2.88-.95-.65-.67-.95-1.72-.9-3.16,0-.45.01-.97.04-1.55.02-.59.05-1.2.09-1.86.03-.65.07-1.33.11-2.03.04-.7.09-1.4.14-2.11.07-.97.13-1.89.18-2.77s.09-1.63.13-2.27c.03-.77,0-1.68-.08-2.73-.08-1.05-.18-2.17-.3-3.36-.12-1.15-.23-2.29-.33-3.4-.1-1.11-.13-2.12-.1-3.02.03-1.62.39-2.81,1.07-3.57.68-.76,1.73-1.14,3.15-1.14.55,0,7.92-.08,9.03-.08.4,0,.83.02,1.28.06.45.04.94.11,1.45.21.95.18,1.88.43,2.78.74.9.31,1.72.74,2.44,1.29.73.55,1.34,1.27,1.83,2.14.49.88.81,1.98.94,3.3.08.8.06,1.63-.06,2.48-.13.85-.36,1.66-.71,2.41-.35.75-.82,1.43-1.42,2.02s-1.33,1.04-2.22,1.34c-.23.08-.38.16-.45.24-.07.08-.1.12-.1.14,0,.03.07.08.2.15.13.07.39.12.78.15ZM406.46,433.94c-.17.39-.27.8-.31,1.24-.04.44-.06.86-.05,1.27,0,.4.04.76.1,1.08s.1.53.14.65c.12.4.36.75.74,1.04s.81.53,1.3.71.99.32,1.49.41c.5.09.94.14,1.3.14.3,0,.65-.03,1.04-.09.39-.06.79-.18,1.19-.35s.77-.43,1.12-.75c.34-.33.61-.76.81-1.32.48-1.29.23-2.62-.78-3.99-.42-.4-1.05-.7-1.88-.9s-1.69-.3-2.56-.3c-.23,0-.54.02-.92.05-.38.03-.75.09-1.12.18-.37.08-.71.2-1.02.35-.31.15-.51.34-.61.58ZM414.84,421.98c0-.69-.15-1.24-.44-1.66s-.66-.74-1.12-.98c-.45-.23-.96-.39-1.53-.48s-1.13-.13-1.68-.13-1.11.05-1.62.15c-.51.1-.92.27-1.24.5-.27.2-.48.43-.63.68-.15.25-.26.52-.33.8-.07.28-.11.58-.11.89,0,.31-.01.61-.01.91v.23c-.03.64,0,1.19.09,1.67.09.48.36.95.82,1.42.18.18.44.32.78.41.33.09.72.14,1.15.14.69,0,1.38-.09,2.08-.26.7-.18,1.33-.45,1.89-.83s1.02-.85,1.37-1.43c.35-.58.53-1.26.53-2.04Z"/>
    </g>
    <g>
      <path class="cls-5" d="M346.45,407.32c-.64-.19-1.12-.72-1.29-1.37-.44-1.68-.75-5.57,1.92-8.69,3-3.5,5.59-1.64,6.43,2.93s-1.07,6.37-1.53,6.71c-.37.28-3.76.94-5.53.41Z"/>
      <g>
        <path class="cls-2" d="M343.28,408.15s-3.69-3.73-12.83-6.61c-7.35-2.32-14.02-3.62-14.02-3.62,0,0,7.18,6.55,14.01,8.61,8.36,2.52,12.84,1.62,12.84,1.62Z"/>
        <path class="cls-2" d="M343.1,405.14s-1.98-6.51-6.83-10.67c-4.85-4.16-10.53-4.62-10.53-4.62,0,0,2.22,2.13,5.13,6.55,4.95,7.51,12.23,8.73,12.23,8.73Z"/>
        <path class="cls-2" d="M328.31,398.78s-2.76-7.09-10.37-8.74c0,0,2.21,7.41,10.37,8.74Z"/>
        <path class="cls-2" d="M343.13,411.17s-4.55-1.83-9.92-.55c-3.74.89-7.16,3.06-7.16,3.06,0,0,7.02,1.08,9.9.67,4.9-.7,7.17-3.18,7.17-3.18Z"/>
      </g>
    </g>
  </g>
  <g>
    <g>
      <path class="cls-7" d="M666.53,458.5c-.03.9-.09,1.86-.16,2.88-.08,1.02-.16,2.06-.24,3.11-.1,1.3-.2,2.6-.29,3.9-.09,1.3-.14,2.47-.14,3.52,0,.43.03,1.07.09,1.91.06.84.13,1.77.21,2.81.08.89.16,1.81.23,2.76.07.95.13,1.87.18,2.75s.08,1.68.08,2.39-.03,1.29-.08,1.71c-.07.43-.22.81-.45,1.13s-.52.59-.86.8c-.34.22-.72.38-1.13.49-.41.11-.81.16-1.22.16-.54,0-1.05-.1-1.55-.3-.5-.2-.92-.47-1.25-.8-.64-.64-.94-1.45-.9-2.43.02-.23.02-.59.01-1.08,0-.48-.01-1.02-.01-1.6s0-1.2-.01-1.84-.02-1.24-.04-1.79c-.02-.55-.03-1.03-.04-1.44,0-.41-.01-.67-.01-.79-.03-.52-.21-.92-.53-1.2-.22-.2-.47-.35-.76-.45-.29-.1-.59-.18-.89-.23-.3-.05-.59-.08-.85-.09s-.48,0-.65.01h-.38c-.42.02-.83.05-1.24.09-.41.04-.78.13-1.1.28s-.6.34-.81.59c-.22.25-.35.59-.4,1.03-.02.25-.03.57-.04.97s0,.83,0,1.3c0,.48.02.98.03,1.5,0,.53.02,1.04.04,1.54.03.89.06,1.68.08,2.37.02.69,0,1.18-.02,1.47-.05.35-.16.7-.31,1.04-.16.34-.39.65-.69.93-.3.28-.68.5-1.13.68-.45.18-.99.26-1.6.26h-.48c-.77-.05-1.39-.18-1.87-.38-.48-.2-.84-.46-1.1-.79s-.43-.72-.51-1.18-.12-.98-.1-1.57c0-.38,0-.83.01-1.34,0-.51.01-1.06.01-1.64.02-.82.03-1.69.05-2.62.02-.93.03-1.85.05-2.76.02-.91.04-1.78.08-2.6.03-.82.07-1.52.1-2.11.03-.6.02-1.4-.04-2.41s-.13-2.08-.21-3.24c-.08-1.2-.17-2.38-.25-3.54-.08-1.15-.11-2.18-.08-3.08.07-3.13,1.52-4.69,4.36-4.69,1.24,0,2.16.33,2.76.98.28.28.49.61.63.98s.22.75.26,1.15c.04.4.06.8.05,1.2,0,.4-.03.78-.06,1.13l-.03.35c-.03.54-.07,1.18-.11,1.94s-.08,1.51-.13,2.24c-.04.74-.07,1.4-.08,1.98s0,.96.01,1.13c.05.28.18.53.39.73.21.2.45.36.74.48s.59.21.92.26.63.1.9.13c.28.02.6.04.97.04l.18-.02c.33-.02.7-.04,1.1-.06.4-.03.78-.09,1.13-.19.35-.1.66-.25.92-.46.26-.21.42-.49.49-.84.07-.3.11-.71.13-1.22.02-.51.03-1.06.03-1.65s0-1.2-.03-1.83c-.02-.63-.04-1.22-.06-1.77-.03-.55-.05-1.04-.08-1.45-.03-.42-.05-.7-.06-.85-.15-1.22.12-2.22.8-3.01.45-.5.97-.85,1.57-1.05.59-.2,1.13-.3,1.62-.3.18,0,.4.01.66.04.26.03.53.08.8.15.28.08.55.18.83.33.28.14.52.33.74.56.62.62.91,1.46.88,2.53Z"/>
      <path class="cls-7" d="M687.95,454.92c.79.05,1.42.17,1.89.36.48.19.84.45,1.1.78.26.33.43.72.51,1.18s.12.98.1,1.57c-.02.74-.04,1.66-.08,2.78-.03,1.12-.08,2.29-.13,3.5s-.1,2.4-.15,3.56c-.05,1.16-.1,2.14-.15,2.95-.05.65-.09,1.27-.11,1.86-.02.59-.05,1.18-.07,1.79-.03.61-.05,1.26-.08,1.94-.03.69-.05,1.45-.06,2.31-.03,1.76-.31,3.24-.84,4.44-.53,1.2-1.25,2.18-2.18,2.93-.93.75-2.04,1.29-3.35,1.62-1.3.33-2.75.49-4.34.49-1,0-1.99-.06-2.95-.19-.96-.13-1.82-.31-2.57-.56-1.74-.57-3.01-1.63-3.81-3.17-.8-1.55-1.2-3.69-1.18-6.43,0-.15,0-.38.01-.68,0-.3.01-.66.01-1.08,0-.45,0-.96.01-1.53s.02-1.16.02-1.78.02-1.25.03-1.89.01-1.27.01-1.87c.02-.92.02-1.85.01-2.8,0-.94-.02-1.87-.04-2.77,0-.79,0-1.54-.01-2.26,0-.72,0-1.38,0-1.98,0-.6.02-1.13.04-1.58.02-.45.04-.8.08-1.05.07-.45.24-.83.51-1.14.28-.31.61-.56.99-.75s.79-.33,1.23-.41.83-.13,1.18-.13c.18,0,.4.01.66.04s.53.07.8.14c.28.07.55.17.83.3.28.13.52.32.74.55.53.54.79,1.25.75,2.13,0,.2,0,.6-.01,1.2,0,.6-.02,1.33-.04,2.19-.02.86-.03,1.8-.05,2.82-.02,1.02-.03,2.06-.05,3.11-.02,1.05-.03,2.08-.05,3.07-.02.99-.03,1.89-.05,2.68-.02.79-.03,1.45-.04,1.97s-.01.82-.01.9c0,.87.05,1.6.16,2.18.11.59.28,1.06.53,1.42.24.36.56.61.96.76.4.15.9.23,1.51.23.69,0,1.22-.11,1.62-.34.39-.23.7-.54.92-.95.22-.41.37-.9.45-1.47s.16-1.19.23-1.86c.02-.23.03-.69.05-1.35.02-.67.03-1.46.05-2.38.02-.92.03-1.92.04-3,0-1.08.01-2.14.01-3.2.02-1.04.03-2.02.04-2.95,0-.93.02-1.76.03-2.51,0-.74.02-1.36.04-1.84.02-.49.03-.8.05-.95.05-.35.15-.7.31-1.05.16-.35.39-.66.69-.94.3-.28.68-.5,1.13-.68.45-.18.99-.26,1.61-.26.08,0,.16,0,.23.01s.14.01.23.01Z"/>
      <path class="cls-7" d="M714.55,471.49c1.99.18,3.44,1.05,4.36,2.58.37.62.62,1.31.76,2.07s.2,1.54.16,2.34c-.03.8-.14,1.59-.31,2.36-.18.77-.41,1.47-.69,2.11-.92,2.06-2.27,3.62-4.05,4.69-1.78,1.07-3.92,1.61-6.41,1.61-.57,0-1.08-.03-1.53-.08s-.88-.14-1.29-.28c-.41-.13-.81-.32-1.2-.55-.39-.23-.82-.54-1.27-.9-.22-.18-.4-.32-.54-.41-.14-.09-.28-.14-.41-.14-.07.02-.14.07-.21.15-.08.08-.16.18-.24.28-.12.15-.26.31-.44.49s-.39.34-.64.49c-.25.15-.55.28-.89.38-.34.1-.76.15-1.24.15-1.29,0-2.25-.32-2.88-.95-.65-.67-.95-1.72-.9-3.16,0-.45.01-.97.04-1.55.02-.59.05-1.2.09-1.86.03-.65.07-1.33.11-2.03.04-.7.09-1.4.14-2.11.07-.97.13-1.89.18-2.77s.09-1.63.13-2.27c.03-.77,0-1.68-.08-2.73-.08-1.05-.18-2.17-.3-3.36-.12-1.15-.23-2.29-.33-3.4-.1-1.11-.13-2.12-.1-3.02.03-1.62.39-2.81,1.07-3.57.68-.76,1.73-1.14,3.15-1.14.55,0,7.92-.08,9.03-.08.4,0,.83.02,1.28.06.45.04.94.11,1.45.21.95.18,1.88.43,2.78.74.9.31,1.72.74,2.44,1.29.73.55,1.34,1.27,1.83,2.14s.81,1.98.94,3.3c.08.8.06,1.63-.06,2.48-.13.85-.36,1.66-.71,2.41-.35.75-.82,1.43-1.42,2.02s-1.33,1.04-2.22,1.34c-.23.08-.38.16-.45.24-.07.08-.1.12-.1.14,0,.03.07.08.2.15.13.07.39.12.78.15ZM702.76,476.68c-.17.39-.27.8-.31,1.24-.04.44-.06.86-.05,1.27,0,.4.04.76.1,1.08s.1.53.14.65c.12.4.36.75.74,1.04s.81.53,1.3.71.99.32,1.49.41c.5.09.94.14,1.3.14.3,0,.65-.03,1.04-.09.39-.06.79-.18,1.19-.35s.77-.43,1.12-.75c.34-.33.61-.76.81-1.32.48-1.29.23-2.62-.78-3.99-.42-.4-1.05-.7-1.88-.9s-1.69-.3-2.56-.3c-.23,0-.54.02-.92.05-.38.03-.75.09-1.12.18-.37.08-.71.2-1.02.35-.31.15-.51.34-.61.58ZM711.13,464.72c0-.69-.15-1.24-.44-1.66s-.66-.74-1.12-.98c-.45-.23-.96-.39-1.53-.48s-1.13-.13-1.68-.13-1.11.05-1.62.15c-.51.1-.92.27-1.24.5-.27.2-.48.43-.63.68-.15.25-.26.52-.33.8-.07.28-.11.58-.11.89,0,.31-.01.61-.01.91v.23c-.03.64,0,1.19.09,1.67.09.48.36.95.82,1.42.18.18.44.32.78.41.33.09.72.14,1.15.14.69,0,1.38-.09,2.08-.26.7-.18,1.33-.45,1.89-.83.56-.38,1.02-.85,1.37-1.43.35-.58.53-1.26.53-2.04Z"/>
    </g>
    <g>
      <path class="cls-5" d="M648.05,447.31s-5.96,1.12-5.26-10.41c.7-11.53,1.62-12.55.31-17.17s-.66-9.04,4.49-9.32c4.46-.24,3.01,4.59,3.29,9.87.29,5.29,1.43,9.55,1.74,12.01.31,2.46-.3,13.72-4.57,15.01Z"/>
      <g>
        <path class="cls-5" d="M684.38,412.38c3.98,1.45,5.79,4.67,5.44,9.66-.02.27-.04.7-.08,1.29-.03.59-.07,1.28-.1,2.06-.03.78-.07,1.6-.1,2.48-.03.88-.05,1.74-.05,2.6v2.78c0,.94,0,1.86.03,2.76,0,.79,0,1.54.01,2.27,0,.73,0,1.39,0,1.99,0,.6-.02,1.12-.04,1.57-.02.44-.04.79-.08,1.04-.07.45-.24.83-.51,1.14-.28.31-.61.56-.99.76s-.79.34-1.22.43c-.43.08-.82.13-1.19.13-.18,0-.41-.01-.66-.04-.26-.03-.53-.07-.8-.14-.28-.07-.55-.17-.83-.3-.28-.13-.52-.32-.74-.55-.54-.53-.79-1.25-.75-2.13,0-.2,0-.6.01-1.2,0-.6.02-1.33.04-2.18.02-.85.03-1.79.05-2.82.02-1.03.03-2.07.05-3.12.02-1.05.03-2.08.05-3.07.02-.99.03-1.89.05-2.68s.03-1.45.04-1.97c0-.52.01-.82.01-.9,0-.32-.02-.71-.05-1.18-.03-.47-.12-.92-.25-1.35-.13-.43-.33-.81-.6-1.12-.27-.31-.63-.46-1.08-.46-.35,0-.7.08-1.04.25-.34.17-.65.38-.93.65-.28.27-.51.57-.69.91-.18.34-.29.69-.33,1.04,0,.08-.02.34-.05.78-.03.43-.06.99-.09,1.67-.03.68-.05,1.45-.09,2.32-.03.87-.05,1.8-.05,2.78,0,.92,0,1.85.01,2.78,0,.94.01,1.86.01,2.76.02.79.03,1.54.04,2.26,0,.72,0,1.38,0,1.98,0,.6-.02,1.13-.04,1.58-.02.45-.04.8-.08,1.05-.07.45-.24.83-.51,1.14-.28.31-.61.56-.99.76s-.79.34-1.23.43-.83.13-1.18.13c-.2,0-.43-.01-.69-.04s-.53-.08-.8-.15c-.28-.07-.55-.18-.83-.31-.28-.13-.52-.31-.74-.53-.52-.55-.77-1.26-.75-2.13,0-.18,0-.56.03-1.13.02-.57.03-1.26.05-2.07.02-.81.03-1.71.05-2.7.02-.99.03-1.98.05-2.98.02-1,.03-1.99.05-2.95.02-.96.03-1.83.04-2.6,0-.77.02-1.4.03-1.91,0-.5.01-.79.01-.88,0-.5-.01-1-.04-1.49s-.08-.95-.15-1.38c-.07-.43-.18-.8-.3-1.13s-.3-.56-.51-.71c-.17-.15-.38-.23-.65-.23-.08,0-.17,0-.26.02-.09.02-.19.04-.29.08-.25.07-.53.19-.85.38s-.63.44-.93.76c-.3.33-.57.73-.79,1.22s-.37,1.06-.44,1.73c-.02.23-.03.69-.05,1.37-.02.68-.03,1.48-.05,2.39-.02.92-.03,1.92-.04,3,0,1.08-.02,2.14-.04,3.2,0,1.02,0,2-.01,2.93,0,.94-.02,1.78-.03,2.52s-.02,1.36-.04,1.84c-.02.49-.03.8-.05.95-.05.35-.16.7-.31,1.04-.16.34-.39.65-.69.93-.3.28-.68.5-1.13.68-.45.18-.99.26-1.6.26h-.48c-.77-.05-1.39-.18-1.87-.38-.48-.2-.85-.46-1.12-.79-.27-.33-.44-.72-.53-1.18-.08-.46-.12-.98-.1-1.57.02-.8.05-1.78.09-2.92.04-1.14.09-2.32.14-3.54.05-1.21.1-2.38.15-3.51.05-1.13.1-2.07.15-2.82.03-.59,0-1.39-.08-2.41s-.18-2.12-.28-3.29c-.12-1.24-.22-2.46-.31-3.67-.09-1.21-.13-2.27-.11-3.17.07-3.13,1.51-4.69,4.34-4.69,1.27,0,2.2.31,2.78.93.2.22.35.46.45.73.1.27.17.54.21.8.04.27.06.53.05.78s-.02.49-.04.7l-.03.23c0,.15.03.25.08.3.07-.02.15-.07.25-.15.08-.07.18-.17.3-.31.12-.14.27-.35.45-.64.35-.57.73-1.04,1.14-1.4.41-.37.82-.66,1.23-.86.41-.21.82-.35,1.24-.44s.81-.13,1.18-.13c.48,0,.93.05,1.33.14.4.09.74.19,1,.29.55.2,1.02.43,1.39.7s.69.54.94.8c.25.27.45.53.61.79.16.26.3.49.41.69.08.18.16.33.24.45s.15.18.21.18c.03-.02.18-.14.43-.38s.59-.62,1.03-1.15c.72-.85,1.56-1.47,2.52-1.87.96-.39,1.91-.59,2.85-.59.75,0,1.44.12,2.06.35Z"/>
        <path class="cls-5" d="M740.45,412.35c.79.05,1.42.17,1.89.36.48.19.84.45,1.1.78.26.33.43.72.51,1.18s.12.98.1,1.57c-.02.74-.04,1.66-.08,2.78-.03,1.12-.08,2.29-.13,3.5s-.1,2.4-.15,3.56c-.05,1.16-.1,2.14-.15,2.95-.05.65-.09,1.27-.11,1.86-.02.59-.05,1.18-.07,1.79-.03.61-.05,1.26-.08,1.94-.03.69-.05,1.45-.06,2.31-.03,1.76-.31,3.24-.84,4.44-.53,1.2-1.25,2.18-2.18,2.93-.93.75-2.04,1.29-3.35,1.62-1.3.33-2.75.49-4.34.49-1,0-1.99-.06-2.95-.19-.96-.13-1.82-.31-2.57-.56-1.74-.57-3.01-1.63-3.81-3.17-.8-1.55-1.2-3.69-1.18-6.43,0-.15,0-.38.01-.68,0-.3.01-.66.01-1.08,0-.45,0-.96.01-1.53s.02-1.16.02-1.78.02-1.25.03-1.89.01-1.27.01-1.87c.02-.92.02-1.85.01-2.8,0-.94-.02-1.87-.04-2.77,0-.79,0-1.54-.01-2.26,0-.72,0-1.38,0-1.98,0-.6.02-1.13.04-1.58.02-.45.04-.8.08-1.05.07-.45.24-.83.51-1.14.28-.31.61-.56.99-.75s.79-.33,1.23-.41.83-.13,1.18-.13c.18,0,.4.01.66.04s.53.07.8.14c.28.07.55.17.83.3.28.13.52.32.74.55.53.54.79,1.25.75,2.13,0,.2,0,.6-.01,1.2,0,.6-.02,1.33-.04,2.19-.02.86-.03,1.8-.05,2.82-.02,1.02-.03,2.06-.05,3.11-.02,1.05-.03,2.08-.05,3.07-.02.99-.03,1.89-.05,2.68-.02.79-.03,1.45-.04,1.97s-.01.82-.01.9c0,.87.05,1.6.16,2.18.11.59.28,1.06.53,1.42.24.36.56.61.96.76.4.15.9.23,1.51.23.69,0,1.22-.11,1.62-.34.39-.23.7-.54.92-.95.22-.41.37-.9.45-1.47s.16-1.19.23-1.86c.02-.23.03-.69.05-1.35.02-.67.03-1.46.05-2.38.02-.92.03-1.92.04-3,0-1.08.01-2.14.01-3.2.02-1.04.03-2.02.04-2.95,0-.93.02-1.76.03-2.51,0-.74.02-1.36.04-1.84.02-.49.03-.8.05-.95.05-.35.15-.7.31-1.05.16-.35.39-.66.69-.94.3-.28.68-.5,1.13-.68.45-.18.99-.26,1.61-.26.08,0,.16,0,.23.01s.14.01.23.01Z"/>
        <path class="cls-5" d="M771.12,415.85c0,.3-.06.64-.19,1.03-.13.39-.36.74-.69,1.08-.65.6-1.52.88-2.61.83-.65-.03-1.2-.06-1.63-.08-.6-.05-1.08-.07-1.43-.07-.54,0-.94.08-1.23.25-.13.08-.27.29-.41.61-.14.33-.23.89-.26,1.69v.05c-.02.5-.03.92-.04,1.27,0,.34-.02.65-.03.92s0,.51,0,.71.01.42.01.64v1.48c0,.32,0,.69-.01,1.13,0,.44-.02.94-.04,1.53-.02.55-.01,1.18.01,1.88.02.7.05,1.43.09,2.18s.08,1.52.13,2.29c.05.78.1,1.52.15,2.22.08,1.15.15,2.14.2,2.97.05.83.06,1.38.02,1.67-.03.33-.14.69-.31,1.07s-.43.73-.75,1.05c-.33.33-.73.6-1.22.82-.48.22-1.05.33-1.71.33h-.4c-1.37-.1-2.35-.47-2.95-1.12-.59-.64-.87-1.64-.84-3,.02-.45.04-.97.06-1.55.02-.59.05-1.2.09-1.86.03-.65.07-1.33.11-2.03.04-.7.09-1.4.14-2.11.07-.97.13-1.89.18-2.77.05-.88.09-1.63.13-2.27.03-.69.05-1.4.06-2.14,0-.74,0-1.47,0-2.19,0-.72-.02-1.39-.02-2.01s-.02-1.14-.04-1.55v-.6c0-.27-.05-.5-.16-.7-.11-.2-.23-.37-.36-.5s-.28-.23-.44-.3c-.16-.07-.29-.11-.39-.13-.17-.02-.31-.02-.44-.01s-.28.02-.46.04c-.18.02-.4.03-.64.05s-.56.02-.94.02c-.45,0-1.1-.02-1.93-.08-.33-.02-.67-.07-1.02-.18-.34-.1-.65-.26-.93-.48-.28-.22-.5-.51-.66-.89-.17-.38-.24-.85-.23-1.42,0-.18.02-.44.06-.78.04-.33.14-.68.3-1.04.16-.36.4-.69.71-1s.76-.53,1.33-.66c.15-.03.35-.06.59-.07.24-.02.53-.03.86-.03.75,0,1.71.03,2.86.08.74.02,1.55.03,2.43.05.89.02,1.83.03,2.83.03,1.24,0,2.38-.01,3.42-.04,1.04-.02,1.96-.05,2.75-.09.54-.02,1-.03,1.4-.05.4-.02.75-.02,1.05-.02,1.2,0,2.07.34,2.61,1.02.54.68.8,1.63.8,2.85Z"/>
        <path class="cls-5" d="M796.95,420.47c.35.84.62,1.77.81,2.8s.32,2.1.39,3.22.08,2.26.03,3.42c-.05,1.16-.16,2.3-.31,3.42-.16,1.12-.36,2.19-.6,3.2-.24,1.01-.52,1.92-.84,2.72-.55,1.42-1.19,2.61-1.92,3.57-.73.96-1.56,1.73-2.51,2.29s-2.01.97-3.21,1.22-2.54.36-4.02.36c-1.19,0-2.32-.14-3.39-.43-1.07-.28-2.05-.69-2.95-1.22-.89-.53-1.69-1.17-2.38-1.93-.69-.76-1.27-1.62-1.72-2.57-.44-.95-.81-2.02-1.13-3.2-.32-1.18-.56-2.42-.74-3.71-.18-1.3-.27-2.63-.28-4,0-1.37.07-2.72.23-4.05.16-1.33.42-2.62.78-3.86.36-1.25.82-2.39,1.39-3.42,2.19-3.98,5.61-5.98,10.26-6.02,2.99,0,5.47.67,7.45,2.02,1.97,1.35,3.53,3.4,4.66,6.16ZM789.5,433.86c.15-.94.26-1.88.34-2.85.08-.96.11-1.91.1-2.85,0-.94-.06-1.84-.15-2.71-.09-.87-.23-1.68-.41-2.43-.27-1.09-.8-1.97-1.61-2.65-.8-.68-1.72-1.02-2.76-1.04h-.03c-1.05,0-1.96.36-2.73,1.08-.77.72-1.32,1.73-1.65,3.03-.2.77-.35,1.62-.44,2.56-.09.94-.16,1.85-.2,2.75-.04.89-.06,1.72-.05,2.47,0,.75.02,1.33.04,1.73.02.32.05.7.11,1.15.06.45.15.92.29,1.39.13.48.32.95.55,1.42.23.47.53.89.88,1.27s.78.68,1.28.9c.5.23,1.09.34,1.78.34,2.47,0,4.03-1.86,4.66-5.57Z"/>
      </g>
      <path class="cls-5" d="M713.68,428.75c1.99.18,3.44,1.05,4.36,2.58.37.62.62,1.31.76,2.07s.2,1.54.16,2.34c-.03.8-.14,1.59-.31,2.36-.18.77-.41,1.47-.69,2.11-.92,2.06-2.27,3.62-4.05,4.69-1.78,1.07-3.92,1.61-6.41,1.61-.57,0-1.08-.03-1.53-.08s-.88-.14-1.29-.28c-.41-.13-.81-.32-1.2-.55-.39-.23-.82-.54-1.27-.9-.22-.18-.4-.32-.54-.41-.14-.09-.28-.14-.41-.14-.07.02-.14.07-.21.15-.08.08-.16.18-.24.28-.12.15-.26.31-.44.49s-.39.34-.64.49c-.25.15-.55.28-.89.38-.34.1-.76.15-1.24.15-1.29,0-2.25-.32-2.88-.95-.65-.67-.95-1.72-.9-3.16,0-.45.01-.97.04-1.55.02-.59.05-1.2.09-1.86.03-.65.07-1.33.11-2.03.04-.7.09-1.4.14-2.11.07-.97.13-1.89.18-2.77s.09-1.63.13-2.27c.03-.77,0-1.68-.08-2.73-.08-1.05-.18-2.17-.3-3.36-.12-1.15-.23-2.29-.33-3.4-.1-1.11-.13-2.12-.1-3.02.03-1.62.39-2.81,1.07-3.57.68-.76,1.73-1.14,3.15-1.14.55,0,7.92-.08,9.03-.08.4,0,.83.02,1.28.06.45.04.94.11,1.45.21.95.18,1.88.43,2.78.74.9.31,1.72.74,2.44,1.29.73.55,1.34,1.27,1.83,2.14.49.88.81,1.98.94,3.3.08.8.06,1.63-.06,2.48-.13.85-.36,1.66-.71,2.41-.35.75-.82,1.43-1.42,2.02s-1.33,1.04-2.22,1.34c-.23.08-.38.16-.45.24-.07.08-.1.12-.1.14,0,.03.07.08.2.15.13.07.39.12.78.15ZM702.76,433.94c-.17.39-.27.8-.31,1.24-.04.44-.06.86-.05,1.27,0,.4.04.76.1,1.08s.1.53.14.65c.12.4.36.75.74,1.04s.81.53,1.3.71.99.32,1.49.41c.5.09.94.14,1.3.14.3,0,.65-.03,1.04-.09.39-.06.79-.18,1.19-.35s.77-.43,1.12-.75c.34-.33.61-.76.81-1.32.48-1.29.23-2.62-.78-3.99-.42-.4-1.05-.7-1.88-.9s-1.69-.3-2.56-.3c-.23,0-.54.02-.92.05-.38.03-.75.09-1.12.18-.37.08-.71.2-1.02.35-.31.15-.51.34-.61.58ZM711.13,421.98c0-.69-.15-1.24-.44-1.66s-.66-.74-1.12-.98c-.45-.23-.96-.39-1.53-.48s-1.13-.13-1.68-.13-1.11.05-1.62.15c-.51.1-.92.27-1.24.5-.27.2-.48.43-.63.68-.15.25-.26.52-.33.8-.07.28-.11.58-.11.89,0,.31-.01.61-.01.91v.23c-.03.64,0,1.19.09,1.67.09.48.36.95.82,1.42.18.18.44.32.78.41.33.09.72.14,1.15.14.69,0,1.38-.09,2.08-.26.7-.18,1.33-.45,1.89-.83s1.02-.85,1.37-1.43c.35-.58.53-1.26.53-2.04Z"/>
    </g>
    <g>
      <path class="cls-5" d="M642.75,407.32c-.64-.19-1.12-.72-1.29-1.37-.44-1.68-.75-5.57,1.92-8.69,3-3.5,5.59-1.64,6.43,2.93s-1.07,6.37-1.53,6.71c-.37.28-3.76.94-5.53.41Z"/>
      <g>
        <path class="cls-7" d="M639.57,408.15s-3.69-3.73-12.83-6.61c-7.35-2.32-14.02-3.62-14.02-3.62,0,0,7.18,6.55,14.01,8.61,8.36,2.52,12.84,1.62,12.84,1.62Z"/>
        <path class="cls-7" d="M639.4,405.14s-1.98-6.51-6.83-10.67c-4.85-4.16-10.53-4.62-10.53-4.62,0,0,2.22,2.13,5.13,6.55,4.95,7.51,12.23,8.73,12.23,8.73Z"/>
        <path class="cls-7" d="M624.61,398.78s-2.76-7.09-10.37-8.74c0,0,2.21,7.41,10.37,8.74Z"/>
        <path class="cls-7" d="M639.42,411.17s-4.55-1.83-9.92-.55c-3.74.89-7.16,3.06-7.16,3.06,0,0,7.02,1.08,9.9.67,4.9-.7,7.17-3.18,7.17-3.18Z"/>
      </g>
    </g>
  </g>
</svg>