<?xml version="1.0" encoding="UTF-8"?>
<svg id="Layer_1" data-name="Layer 1" xmlns="http://www.w3.org/2000/svg" viewBox="0 0 841.89 595.28">
  <defs>
    <style>
      .cls-1 {
        fill: #cf5500;
      }

      .cls-2 {
        fill: #076476;
      }

      .cls-3 {
        fill: #ffc114;
      }

      .cls-4, .cls-5 {
        fill: #06b6a9;
      }

      .cls-6 {
        fill: #fff;
      }

      .cls-7 {
        fill: #022d36;
      }

      .cls-5 {
        font-family: Aileron-SemiBold, Aileron;
        font-size: 15.58px;
        font-weight: 600;
      }

      .cls-8 {
        letter-spacing: .05em;
      }

      .cls-9 {
        letter-spacing: .01em;
      }
    </style>
  </defs>
  <rect class="cls-7" x="-5.96" y="-11.75" width="856.79" height="611.57"/>
  <rect class="cls-3" x="271.63" y="306.12" width="296.67" height="278.98" transform="translate(-25.65 865.57) rotate(-90)"/>
  <rect class="cls-2" x="553.22" y="306.12" width="296.67" height="278.98" transform="translate(255.95 1147.17) rotate(-90)"/>
  <rect class="cls-4" x="-9.01" y="306.12" width="296.67" height="278.98" transform="translate(-306.28 584.93) rotate(-90)"/>
  <g>
    <path class="cls-4" d="M326.02,238.91s-14.46,1.94-11.32-25.67c3.14-27.6,5.47-29.94,2.9-41.19-2.57-11.25.61-17.2.81-21.02.21-3.82-2.78-41.18,9.61-41.2,10.73-.02,4.79,22.71,5.66,35.44s2.5,16.36,2.53,29.09c.02,12.74,2.23,23.12,2.67,29.07.43,5.94-2.45,32.91-12.87,35.47Z"/>
    <path class="cls-6" d="M391.47,206.46c.55-11.18-1.43-44.03-.63-53.19.8-9.16.46-26.15-.18-32.26-.47-4.44-5.52-3.46-5.52-3.46,0,0-8.36,1.4-9.5,9.54-.87,6.24.2,19.42-.15,30.5-.05,1.51-2.85,2.68-4.31,2.32-10.01-2.47-21.17-4.08-26.54-1.25-3.41,1.8-5.1,7.21-3.17,12.09,2.19,5.54,4.33,4.28,6.61,4.84,2.28.56,2.15.15,12.38,2.25.45.09,4.5,2.2,9.51.93,2.04-.52,2.95.53,2.83,1.88-1.47,16.33-3.58,40.94-2.71,43.14,1.16,2.94,2.16,12.69,13.55,10.84,11.38-1.85,7.3-16.98,7.85-28.16Z"/>
    <g>
      <path class="cls-4" d="M322.46,106.73c-1.39-.41-2.44-1.57-2.81-2.98-.97-3.64-1.63-12.1,4.18-18.88,6.52-7.61,12.15-3.56,13.98,6.37,1.8,9.77-2.32,13.84-3.32,14.59-.8.6-8.16,2.04-12.02.9Z"/>
      <g>
        <path class="cls-3" d="M315.56,108.51s-8.03-8.1-27.89-14.36c-15.97-5.04-30.47-7.87-30.47-7.87,0,0,15.61,14.24,30.45,18.72,18.16,5.47,27.91,3.51,27.91,3.51Z"/>
        <path class="cls-3" d="M315.17,101.97s-4.3-14.14-14.85-23.18c-10.55-9.04-22.88-10.03-22.88-10.03,0,0,4.83,4.63,11.16,14.24,10.75,16.33,26.57,18.98,26.57,18.98Z"/>
        <path class="cls-3" d="M283.03,88.15s-6-15.4-22.54-18.99c0,0,4.8,16.1,22.54,18.99Z"/>
        <path class="cls-3" d="M315.23,115.08s-9.88-3.98-21.55-1.19c-8.12,1.94-15.55,6.66-15.55,6.66,0,0,15.26,2.34,21.52,1.45,10.64-1.51,15.58-6.92,15.58-6.92Z"/>
      </g>
    </g>
    <g>
      <path class="cls-4" d="M437.12,184.26c-.04,1.07-.1,2.2-.19,3.41-.09,1.21-.18,2.43-.28,3.68-.12,1.54-.23,3.08-.34,4.61-.11,1.53-.16,2.92-.16,4.17,0,.51.03,1.27.1,2.25.07.99.15,2.1.25,3.32.1,1.05.19,2.14.27,3.26.08,1.13.15,2.21.21,3.25.06,1.04.09,1.98.09,2.83s-.03,1.52-.09,2.02c-.08.51-.26.96-.53,1.33s-.62.69-1.02.95c-.41.26-.85.45-1.33.58-.48.13-.96.19-1.44.19-.63,0-1.25-.12-1.84-.36s-1.09-.55-1.48-.95c-.75-.75-1.11-1.71-1.07-2.88.02-.28.02-.7.02-1.28-.01-.57-.02-1.2-.02-1.9s0-1.42-.02-2.18-.03-1.47-.04-2.12c-.02-.65-.04-1.22-.05-1.7-.01-.48-.02-.8-.02-.93-.04-.61-.25-1.09-.62-1.42-.26-.24-.56-.42-.9-.53-.35-.12-.7-.21-1.05-.27-.36-.06-.69-.09-1.01-.1s-.57,0-.77.02h-.44c-.49.02-.98.05-1.47.1-.48.05-.92.16-1.3.33s-.71.4-.96.7c-.26.3-.42.7-.47,1.22-.02.3-.04.68-.05,1.14s-.01.98,0,1.54c.01.56.02,1.16.03,1.78.01.62.03,1.23.04,1.82.04,1.05.07,1.98.09,2.8.02.82.01,1.4-.03,1.73-.06.42-.18.83-.37,1.23-.19.4-.46.77-.82,1.1-.36.33-.8.59-1.34.8-.53.21-1.17.31-1.9.31h-.56c-.91-.06-1.65-.21-2.21-.44-.56-.24-1-.55-1.31-.93s-.51-.85-.61-1.39-.14-1.16-.12-1.85c0-.45,0-.98.02-1.59.01-.6.02-1.25.02-1.94.02-.97.04-2,.06-3.1.02-1.1.04-2.18.06-3.26.02-1.08.05-2.1.09-3.07.04-.97.08-1.8.12-2.49.04-.71.03-1.66-.04-2.85s-.15-2.46-.25-3.83c-.1-1.42-.2-2.82-.3-4.18s-.13-2.58-.09-3.65c.08-3.7,1.8-5.54,5.16-5.54,1.46,0,2.55.39,3.26,1.16.34.34.58.72.74,1.16s.26.89.31,1.36c.05.47.07.95.06,1.42-.01.47-.04.92-.07,1.33l-.03.41c-.04.63-.08,1.4-.13,2.3s-.1,1.78-.15,2.65c-.05.87-.08,1.65-.09,2.34s0,1.14.02,1.33c.06.34.21.62.46.86.25.24.54.42.87.56s.7.24,1.08.31.74.12,1.07.15c.33.03.71.04,1.14.04l.21-.03c.4-.02.83-.05,1.31-.07.47-.03.92-.1,1.33-.22.42-.12.78-.3,1.08-.55.31-.25.5-.58.58-.99.08-.36.13-.83.15-1.44.02-.6.03-1.26.03-1.96s-.01-1.42-.03-2.16c-.02-.74-.05-1.44-.07-2.09-.03-.65-.06-1.23-.09-1.72-.03-.49-.06-.83-.07-1.01-.18-1.44.14-2.63.95-3.56.53-.59,1.15-1.01,1.85-1.25.7-.24,1.34-.36,1.91-.36.22,0,.48.02.79.04.31.03.62.09.95.18.33.09.65.22.98.39.33.17.62.39.87.67.73.73,1.08,1.73,1.04,2.99Z"/>
      <path class="cls-4" d="M462.45,180.02c.93.06,1.67.2,2.24.43.56.23,1,.53,1.3.92.31.38.51.85.61,1.39s.14,1.16.12,1.85c-.02.87-.05,1.97-.09,3.29-.04,1.33-.09,2.7-.15,4.14s-.12,2.84-.18,4.21c-.06,1.37-.12,2.54-.18,3.48-.06.77-.1,1.5-.13,2.19-.03.69-.06,1.4-.09,2.12-.03.72-.06,1.49-.09,2.3-.03.81-.06,1.72-.07,2.73-.04,2.08-.37,3.83-.99,5.25-.62,1.42-1.48,2.58-2.58,3.47-1.1.89-2.42,1.53-3.96,1.91-1.54.39-3.25.58-5.13.58-1.19,0-2.35-.07-3.48-.22-1.14-.15-2.15-.37-3.04-.67-2.06-.67-3.56-1.92-4.51-3.75-.95-1.83-1.41-4.36-1.39-7.61,0-.18,0-.44.02-.8.01-.36.02-.78.02-1.28,0-.53,0-1.14.02-1.81s.02-1.37.03-2.11.02-1.48.03-2.24.02-1.5.02-2.21c.02-1.09.02-2.19.02-3.31-.01-1.12-.03-2.21-.05-3.28,0-.93,0-1.82-.02-2.67-.01-.85-.01-1.63,0-2.34.01-.71.03-1.34.05-1.87.02-.53.05-.95.09-1.25.08-.53.28-.98.61-1.35.33-.37.72-.66,1.17-.89s.94-.39,1.45-.49.98-.15,1.39-.15c.22,0,.48.01.79.04s.62.08.95.16c.33.08.65.2.98.36.33.16.62.38.88.65.63.63.93,1.47.89,2.52,0,.24,0,.71-.02,1.42-.01.71-.03,1.58-.04,2.59-.02,1.02-.04,2.13-.06,3.34-.02,1.21-.04,2.43-.06,3.68s-.04,2.46-.06,3.63c-.02,1.18-.04,2.23-.06,3.17-.02.94-.04,1.71-.05,2.33s-.01.97-.01,1.07c0,1.03.06,1.89.19,2.58.13.69.34,1.25.62,1.68.29.42.67.73,1.14.9.47.18,1.07.27,1.78.27.81,0,1.45-.13,1.91-.4.46-.27.83-.64,1.08-1.13.26-.48.43-1.06.53-1.73s.19-1.4.27-2.19c.02-.28.04-.81.06-1.6.02-.79.04-1.73.06-2.82.02-1.09.04-2.27.05-3.54,0-1.28.02-2.54.02-3.78.02-1.22.03-2.39.04-3.48.01-1.1.02-2.09.03-2.97,0-.88.02-1.61.04-2.18.02-.57.04-.95.06-1.13.06-.42.18-.83.37-1.25.19-.41.46-.79.82-1.11.36-.33.8-.59,1.33-.8.53-.21,1.17-.31,1.9-.31.1,0,.19,0,.27.02s.17.02.27.02Z"/>
      <path class="cls-4" d="M493.89,199.61c2.35.22,4.07,1.24,5.16,3.05.43.73.74,1.55.9,2.45s.23,1.82.19,2.77c-.04.95-.16,1.88-.37,2.79-.21.91-.48,1.74-.82,2.49-1.09,2.43-2.68,4.28-4.79,5.54-2.11,1.27-4.63,1.9-7.58,1.9-.67,0-1.28-.03-1.81-.09s-1.04-.17-1.53-.33c-.48-.16-.96-.38-1.42-.65-.46-.28-.96-.63-1.5-1.07-.26-.22-.47-.38-.64-.49-.17-.11-.33-.16-.49-.16-.08.02-.16.08-.25.18-.09.1-.18.21-.28.33-.14.18-.31.37-.52.58s-.46.4-.76.58c-.3.18-.65.33-1.05.44-.41.12-.89.18-1.47.18-1.52,0-2.66-.38-3.41-1.13-.77-.79-1.13-2.04-1.07-3.74,0-.53.02-1.15.05-1.84.03-.69.06-1.42.1-2.19.04-.77.08-1.57.13-2.4.05-.83.1-1.66.16-2.49.08-1.15.15-2.24.21-3.28s.11-1.93.15-2.68c.04-.91,0-1.99-.09-3.23-.1-1.25-.22-2.57-.36-3.97-.14-1.36-.27-2.7-.39-4.02-.12-1.32-.16-2.51-.12-3.57.04-1.92.46-3.33,1.26-4.22.8-.9,2.04-1.35,3.72-1.35.65,0,9.37-.09,10.67-.09.47,0,.98.03,1.51.07.53.05,1.11.13,1.72.25,1.13.22,2.22.51,3.29.87,1.07.37,2.03.87,2.89,1.53.86.65,1.58,1.5,2.16,2.54.58,1.04.95,2.34,1.11,3.9.1.95.07,1.93-.07,2.93-.15,1.01-.43,1.96-.84,2.85-.42.89-.97,1.69-1.68,2.39s-1.58,1.23-2.62,1.59c-.28.1-.45.19-.53.28-.08.09-.12.14-.12.16,0,.04.08.1.24.18.16.08.46.14.92.18ZM479.96,205.75c-.2.46-.32.94-.37,1.47-.05.52-.07,1.02-.06,1.5.01.47.05.9.12,1.28s.12.63.16.77c.14.47.43.89.87,1.23s.96.63,1.54.85,1.17.38,1.76.49c.59.11,1.11.16,1.54.16.36,0,.77-.03,1.23-.1.46-.07.93-.21,1.41-.41s.91-.5,1.32-.89c.4-.39.73-.9.96-1.56.57-1.52.27-3.09-.92-4.71-.49-.47-1.24-.83-2.22-1.07s-2-.36-3.02-.36c-.28,0-.64.02-1.08.06-.44.04-.88.11-1.32.21-.43.1-.84.24-1.2.41-.37.18-.61.41-.73.68ZM489.86,191.61c0-.81-.17-1.46-.52-1.96s-.79-.88-1.32-1.16c-.53-.28-1.14-.46-1.81-.56s-1.33-.15-1.99-.15-1.31.06-1.91.18c-.6.12-1.09.32-1.47.59-.32.24-.56.5-.74.8-.18.3-.31.61-.39.95-.08.34-.12.69-.13,1.05-.01.37-.02.73-.02,1.08v.27c-.04.75,0,1.41.1,1.97.11.56.43,1.12.96,1.67.22.22.52.38.92.49.4.11.85.16,1.36.16.81,0,1.63-.1,2.46-.31.83-.21,1.58-.53,2.24-.98s1.2-1.01,1.62-1.69c.41-.68.62-1.49.62-2.42Z"/>
    </g>
    <g>
      <path class="cls-6" d="M415.27,171.03s-7.05,1.32-6.22-12.31c.83-13.63,1.91-14.84.36-20.3-1.55-5.46-.78-10.69,5.31-11.02,5.27-.29,3.56,5.42,3.89,11.68.34,6.25,1.69,11.29,2.06,14.2s-.35,16.22-5.4,17.75Z"/>
      <g>
        <path class="cls-6" d="M458.23,129.73c4.7,1.72,6.85,5.53,6.43,11.42-.02.32-.05.83-.09,1.53-.04.7-.08,1.51-.12,2.43-.04.92-.08,1.9-.12,2.93-.04,1.04-.06,2.06-.06,3.07v3.29c0,1.11.01,2.19.03,3.26,0,.93,0,1.82.02,2.68,0,.86,0,1.65,0,2.36-.01.71-.03,1.33-.05,1.85-.02.52-.05.93-.09,1.23-.08.53-.28.98-.61,1.35-.33.37-.72.67-1.17.9s-.93.4-1.44.5c-.5.1-.97.15-1.41.15-.22,0-.48-.02-.79-.04-.31-.03-.62-.08-.95-.16-.33-.08-.65-.2-.98-.36-.33-.16-.62-.38-.88-.65-.63-.63-.93-1.47-.89-2.52,0-.24,0-.71.02-1.42.01-.71.02-1.57.04-2.58.02-1.01.04-2.12.06-3.34.02-1.21.04-2.45.06-3.69.02-1.25.04-2.46.06-3.63.02-1.18.04-2.23.06-3.17s.03-1.71.05-2.33c0-.61.01-.97.01-1.07,0-.37-.02-.84-.06-1.39-.04-.55-.14-1.09-.3-1.6-.16-.51-.4-.95-.71-1.32-.32-.37-.74-.55-1.28-.55-.42,0-.83.1-1.23.3-.41.2-.77.45-1.1.77-.33.32-.6.68-.82,1.08-.22.41-.35.82-.39,1.23,0,.1-.02.41-.06.92-.04.51-.07,1.17-.1,1.97-.03.8-.06,1.72-.1,2.74-.04,1.03-.06,2.12-.06,3.29,0,1.09,0,2.18.02,3.29.01,1.11.02,2.19.02,3.26.02.93.03,1.82.04,2.67.01.85.01,1.63,0,2.34-.01.71-.03,1.33-.04,1.87-.02.53-.05.95-.09,1.25-.08.53-.28.98-.61,1.35-.33.37-.72.67-1.17.9s-.94.4-1.45.5-.98.15-1.39.15c-.24,0-.51-.01-.82-.04s-.62-.09-.95-.18c-.33-.09-.65-.21-.98-.37-.33-.16-.62-.37-.88-.62-.61-.65-.91-1.49-.89-2.52,0-.22.01-.66.03-1.33.02-.67.04-1.49.06-2.45.02-.96.04-2.02.06-3.19.02-1.17.04-2.34.06-3.53.02-1.19.04-2.35.06-3.48.02-1.14.03-2.16.04-3.07.01-.91.02-1.66.03-2.25,0-.59.01-.94.01-1.04,0-.59-.01-1.18-.04-1.76s-.09-1.13-.18-1.63c-.09-.5-.21-.95-.36-1.33s-.35-.67-.61-.85c-.2-.18-.45-.27-.77-.27-.1,0-.2.01-.31.03-.11.02-.22.05-.34.09-.3.08-.63.23-1.01.44s-.74.52-1.1.9c-.36.39-.67.87-.93,1.44s-.44,1.26-.52,2.05c-.02.28-.04.82-.06,1.62-.02.8-.04,1.74-.06,2.83-.02,1.09-.04,2.27-.05,3.54-.01,1.28-.03,2.54-.04,3.78,0,1.21,0,2.36-.02,3.47-.01,1.11-.02,2.1-.03,2.98s-.03,1.61-.04,2.18c-.02.57-.04.95-.06,1.13-.06.42-.18.83-.37,1.23-.19.4-.46.77-.82,1.1-.36.33-.8.59-1.34.8-.53.21-1.17.31-1.9.31h-.56c-.91-.06-1.65-.21-2.21-.44-.56-.24-1-.55-1.32-.93-.32-.39-.52-.85-.62-1.39-.1-.54-.14-1.16-.12-1.85.02-.95.06-2.1.1-3.45.05-1.35.1-2.75.16-4.18.06-1.43.12-2.82.18-4.15.06-1.33.12-2.45.18-3.34.04-.69.01-1.64-.09-2.85-.1-1.21-.21-2.5-.33-3.88-.14-1.46-.26-2.91-.37-4.34-.11-1.43-.15-2.68-.13-3.75.08-3.7,1.79-5.54,5.13-5.54,1.5,0,2.6.37,3.29,1.1.24.26.41.54.53.86.12.32.2.63.25.95.05.32.07.62.06.92s-.03.57-.04.83l-.03.27c0,.18.03.3.09.36.08-.02.18-.08.3-.18.1-.08.22-.2.36-.37.14-.17.32-.42.53-.76.42-.67.87-1.23,1.35-1.66.48-.43.97-.78,1.45-1.02.48-.25.97-.42,1.47-.52s.96-.15,1.39-.15c.57,0,1.1.05,1.57.16.47.11.87.22,1.19.34.65.24,1.2.51,1.65.83s.82.63,1.11.95c.3.32.54.63.73.93.19.31.35.58.49.82.1.22.19.4.28.53s.17.21.25.21c.04-.02.21-.17.5-.44s.7-.73,1.21-1.36c.85-1.01,1.84-1.74,2.98-2.21,1.14-.46,2.26-.7,3.37-.7.89,0,1.7.14,2.43.41Z"/>
        <path class="cls-6" d="M524.53,129.69c.93.06,1.67.2,2.24.43.56.23,1,.53,1.3.92.31.38.51.85.61,1.39s.14,1.16.12,1.85c-.02.87-.05,1.97-.09,3.29-.04,1.33-.09,2.7-.15,4.14s-.12,2.84-.18,4.21c-.06,1.37-.12,2.54-.18,3.48-.06.77-.1,1.5-.13,2.19-.03.69-.06,1.4-.09,2.12-.03.72-.06,1.49-.09,2.3-.03.81-.06,1.72-.07,2.73-.04,2.08-.37,3.83-.99,5.25-.62,1.42-1.48,2.58-2.58,3.47-1.1.89-2.42,1.53-3.96,1.91-1.54.39-3.25.58-5.13.58-1.19,0-2.35-.07-3.48-.22-1.14-.15-2.15-.37-3.04-.67-2.06-.67-3.56-1.92-4.51-3.75-.95-1.83-1.41-4.36-1.39-7.61,0-.18,0-.44.02-.8.01-.36.02-.78.02-1.28,0-.53,0-1.14.02-1.81s.02-1.37.03-2.11.02-1.48.03-2.24.02-1.5.02-2.21c.02-1.09.02-2.19.02-3.31-.01-1.12-.03-2.21-.05-3.28,0-.93,0-1.82-.02-2.67-.01-.85-.01-1.63,0-2.34.01-.71.03-1.34.05-1.87.02-.53.05-.95.09-1.25.08-.53.28-.98.61-1.35.33-.37.72-.66,1.17-.89s.94-.39,1.45-.49.98-.15,1.39-.15c.22,0,.48.01.79.04s.62.08.95.16c.33.08.65.2.98.36.33.16.62.38.88.65.63.63.93,1.47.89,2.52,0,.24,0,.71-.02,1.42-.01.71-.03,1.58-.04,2.59-.02,1.02-.04,2.13-.06,3.34-.02,1.21-.04,2.43-.06,3.68-.02,1.25-.04,2.46-.06,3.63-.02,1.18-.04,2.23-.06,3.17-.02.94-.04,1.71-.05,2.33s-.01.97-.01,1.07c0,1.03.06,1.89.19,2.58.13.69.34,1.25.62,1.68.29.42.67.73,1.14.9.47.18,1.07.27,1.78.27.81,0,1.45-.13,1.91-.4.46-.27.83-.64,1.08-1.13.26-.48.43-1.06.53-1.73s.19-1.4.27-2.19c.02-.28.04-.81.06-1.6.02-.79.04-1.73.06-2.82.02-1.09.04-2.27.05-3.54,0-1.28.02-2.54.02-3.78.02-1.22.03-2.39.04-3.48.01-1.1.02-2.09.03-2.97,0-.88.02-1.61.04-2.18.02-.57.04-.95.06-1.13.06-.42.18-.83.37-1.25.19-.41.46-.79.82-1.11.36-.33.8-.59,1.33-.8.53-.21,1.17-.31,1.9-.31.1,0,.19,0,.27.02s.17.02.27.02Z"/>
        <path class="cls-6" d="M560.79,133.82c0,.36-.07.76-.22,1.21-.15.46-.42.88-.82,1.28-.77.71-1.8,1.04-3.08.98-.77-.04-1.41-.07-1.93-.09-.71-.06-1.28-.09-1.69-.09-.63,0-1.12.1-1.45.3-.16.1-.32.34-.49.73-.17.39-.27,1.05-.31,2v.06c-.02.59-.03,1.09-.04,1.5-.01.41-.02.77-.03,1.08s-.01.6,0,.85.02.5.02.76v1.75c0,.38,0,.82-.02,1.33-.01.51-.03,1.12-.04,1.81-.02.65-.02,1.39.02,2.22.03.83.06,1.69.1,2.58.04.89.09,1.79.15,2.71.06.92.12,1.79.18,2.62.1,1.36.18,2.54.24,3.51.06.98.07,1.64.03,1.97-.04.4-.16.82-.37,1.26s-.5.86-.89,1.25c-.39.39-.86.71-1.44.96-.57.26-1.25.38-2.02.38h-.47c-1.62-.12-2.78-.56-3.48-1.32-.7-.76-1.03-1.94-.99-3.54.02-.53.04-1.15.07-1.84.03-.69.06-1.42.1-2.19.04-.77.08-1.57.13-2.4.05-.83.1-1.66.16-2.49.08-1.15.15-2.24.21-3.28.06-1.04.11-1.93.15-2.68.04-.81.06-1.66.07-2.54.01-.88.01-1.74,0-2.59-.01-.85-.02-1.64-.03-2.37s-.03-1.34-.05-1.84v-.71c0-.32-.06-.59-.19-.83-.13-.24-.27-.43-.43-.59s-.33-.28-.52-.36c-.19-.08-.34-.13-.46-.15-.2-.02-.37-.03-.52-.02s-.33.03-.55.04c-.22.02-.47.04-.76.06s-.66.03-1.11.03c-.53,0-1.3-.03-2.28-.09-.4-.02-.8-.09-1.2-.21-.41-.12-.77-.31-1.1-.56-.33-.26-.59-.61-.79-1.05-.2-.44-.29-1-.27-1.68,0-.22.02-.52.07-.92.05-.4.17-.81.36-1.23.19-.42.47-.82.84-1.19s.9-.63,1.57-.79c.18-.04.41-.07.7-.09.29-.02.63-.03,1.02-.03.89,0,2.02.03,3.38.09.87.02,1.83.04,2.88.06,1.05.02,2.16.03,3.35.03,1.46,0,2.81-.02,4.05-.05,1.23-.03,2.32-.06,3.25-.1.63-.02,1.19-.04,1.66-.06.47-.02.89-.03,1.25-.03,1.42,0,2.45.4,3.08,1.2.63.8.95,1.92.95,3.37Z"/>
        <path class="cls-6" d="M591.33,139.29c.41.99.74,2.09.96,3.31s.38,2.49.46,3.81.09,2.67.03,4.05c-.06,1.37-.18,2.72-.37,4.05-.19,1.32-.43,2.58-.71,3.78s-.62,2.27-.99,3.22c-.65,1.68-1.41,3.09-2.27,4.23-.86,1.14-1.85,2.04-2.97,2.71s-2.38,1.15-3.8,1.44-3,.43-4.76.43c-1.4,0-2.74-.17-4-.5-1.27-.34-2.43-.82-3.48-1.44-1.06-.62-2-1.38-2.82-2.28-.82-.9-1.5-1.91-2.03-3.04-.51-1.13-.96-2.39-1.33-3.78-.38-1.39-.67-2.86-.88-4.39-.21-1.53-.32-3.11-.33-4.73-.01-1.62.08-3.22.27-4.79.19-1.57.49-3.09.92-4.57.42-1.47.97-2.82,1.65-4.05,2.59-4.7,6.63-7.08,12.13-7.12,3.54,0,6.47.8,8.81,2.39,2.33,1.59,4.17,4.02,5.51,7.28ZM582.52,155.13c.18-1.11.31-2.23.4-3.37.09-1.14.13-2.26.12-3.37-.01-1.11-.07-2.17-.18-3.2-.11-1.03-.27-1.99-.49-2.88-.32-1.29-.95-2.33-1.9-3.13-.95-.8-2.04-1.21-3.26-1.23h-.03c-1.25,0-2.32.43-3.23,1.28-.91.85-1.56,2.05-1.96,3.59-.24.91-.41,1.92-.52,3.02-.11,1.11-.19,2.19-.24,3.25-.05,1.06-.07,2.03-.06,2.92,0,.89.02,1.57.04,2.05.02.38.06.83.13,1.36.07.53.18,1.08.34,1.65.16.56.37,1.12.65,1.68.28.55.62,1.05,1.04,1.5s.92.8,1.51,1.07c.59.27,1.29.4,2.11.4,2.92,0,4.76-2.19,5.51-6.58Z"/>
      </g>
      <path class="cls-6" d="M492.87,149.08c2.35.22,4.07,1.24,5.16,3.05.43.73.74,1.55.9,2.45s.23,1.82.19,2.77c-.04.95-.16,1.88-.37,2.79-.21.91-.48,1.74-.82,2.49-1.09,2.43-2.68,4.28-4.79,5.54-2.11,1.27-4.63,1.9-7.58,1.9-.67,0-1.28-.03-1.81-.09s-1.04-.17-1.53-.33c-.48-.16-.96-.38-1.42-.65-.46-.28-.96-.63-1.5-1.07-.26-.22-.47-.38-.64-.49-.17-.11-.33-.16-.49-.16-.08.02-.16.08-.25.18-.09.1-.18.21-.28.33-.14.18-.31.37-.52.58s-.46.4-.76.58c-.3.18-.65.33-1.05.44-.41.12-.89.18-1.47.18-1.52,0-2.66-.38-3.41-1.13-.77-.79-1.13-2.04-1.07-3.74,0-.53.02-1.15.05-1.84.03-.69.06-1.42.1-2.19.04-.77.08-1.57.13-2.4.05-.83.1-1.66.16-2.49.08-1.15.15-2.24.21-3.28s.11-1.93.15-2.68c.04-.91,0-1.99-.09-3.23-.1-1.25-.22-2.57-.36-3.97-.14-1.36-.27-2.7-.39-4.02-.12-1.32-.16-2.51-.12-3.57.04-1.92.46-3.33,1.26-4.22.8-.9,2.04-1.35,3.72-1.35.65,0,9.37-.09,10.67-.09.47,0,.98.03,1.51.07.53.05,1.11.13,1.72.25,1.13.22,2.22.51,3.29.87,1.07.37,2.03.87,2.89,1.53.86.65,1.58,1.5,2.16,2.54s.95,2.34,1.11,3.9c.1.95.07,1.93-.07,2.93-.15,1.01-.43,1.96-.84,2.85-.42.89-.97,1.69-1.68,2.39-.7.7-1.58,1.23-2.62,1.59-.28.1-.45.19-.53.28-.08.09-.12.14-.12.16,0,.04.08.1.24.18.16.08.46.14.92.18ZM479.96,155.21c-.2.46-.32.94-.37,1.47-.05.52-.07,1.02-.06,1.5.01.47.05.9.12,1.28s.12.63.16.77c.14.47.43.89.87,1.23s.96.63,1.54.85,1.17.38,1.76.49c.59.11,1.11.16,1.54.16.36,0,.77-.03,1.23-.1.46-.07.93-.21,1.41-.41s.91-.5,1.32-.89c.4-.39.73-.9.96-1.56.57-1.52.27-3.09-.92-4.71-.49-.47-1.24-.83-2.22-1.07s-2-.36-3.02-.36c-.28,0-.64.02-1.08.06-.44.04-.88.11-1.32.21-.43.1-.84.24-1.2.41-.37.18-.61.41-.73.68ZM489.86,141.07c0-.81-.17-1.46-.52-1.96s-.79-.88-1.32-1.16c-.53-.28-1.14-.46-1.81-.56s-1.33-.15-1.99-.15-1.31.06-1.91.18c-.6.12-1.09.32-1.47.59-.32.24-.56.5-.74.8-.18.3-.31.61-.39.95-.08.34-.12.69-.13,1.05-.01.37-.02.73-.02,1.08v.27c-.04.75,0,1.41.1,1.97.11.56.43,1.12.96,1.67.22.22.52.38.92.49.4.11.85.16,1.36.16.81,0,1.63-.1,2.46-.31.83-.21,1.58-.53,2.24-.98s1.2-1.01,1.62-1.69c.41-.68.62-1.49.62-2.42Z"/>
    </g>
  </g>
  <g>
    <path class="cls-4" d="M630.57,480.49s-7.84,1.05-6.14-13.93,2.97-16.25,1.57-22.35c-1.39-6.1.33-9.33.44-11.41s-1.51-22.35,5.22-22.36c5.83,0,2.6,12.32,3.07,19.24.47,6.91,1.36,8.88,1.37,15.79.01,6.91,1.21,12.55,1.45,15.77s-1.33,17.86-6.98,19.25Z"/>
    <path class="cls-6" d="M666.1,462.87c.3-6.07-.78-23.9-.34-28.87.43-4.97.25-14.19-.1-17.51-.25-2.41-3-1.88-3-1.88,0,0-4.54.76-5.15,5.18-.47,3.39.11,10.54-.08,16.55-.03.82-1.54,1.45-2.34,1.26-5.43-1.34-11.49-2.21-14.41-.68-1.85.97-2.77,3.91-1.72,6.56,1.19,3.01,2.35,2.32,3.59,2.62s1.17.08,6.72,1.22c.24.05,2.44,1.2,5.16.51,1.11-.28,1.6.29,1.53,1.02-.8,8.86-1.94,22.22-1.47,23.41.63,1.6,1.17,6.89,7.35,5.88,6.18-1,3.96-9.22,4.26-15.28Z"/>
    <g>
      <path class="cls-4" d="M628.64,408.75c-.76-.22-1.32-.85-1.53-1.61-.52-1.98-.88-6.57,2.27-10.25,3.54-4.13,6.59-1.93,7.59,3.46.98,5.3-1.26,7.51-1.8,7.92-.43.33-4.43,1.11-6.52.49Z"/>
      <g>
        <path class="cls-3" d="M624.89,409.71s-4.36-4.39-15.14-7.79c-8.66-2.73-16.54-4.27-16.54-4.27,0,0,8.47,7.73,16.53,10.16,9.86,2.97,15.15,1.91,15.15,1.91Z"/>
        <path class="cls-3" d="M624.69,406.17s-2.33-7.67-8.06-12.58c-5.72-4.91-12.42-5.44-12.42-5.44,0,0,2.62,2.51,6.05,7.73,5.84,8.86,14.42,10.3,14.42,10.3Z"/>
        <path class="cls-3" d="M607.24,398.66s-3.26-8.36-12.23-10.31c0,0,2.61,8.74,12.23,10.31Z"/>
        <path class="cls-3" d="M624.72,413.28s-5.36-2.16-11.69-.65c-4.41,1.06-8.44,3.61-8.44,3.61,0,0,8.28,1.27,11.68.79,5.77-.82,8.46-3.76,8.46-3.76Z"/>
      </g>
    </g>
    <g>
      <path class="cls-4" d="M690.87,450.82c-.02.58-.06,1.2-.1,1.85-.05.65-.1,1.32-.15,2-.06.84-.13,1.67-.18,2.5-.06.83-.09,1.59-.09,2.26,0,.28.02.69.06,1.22.04.54.08,1.14.14,1.8.05.57.1,1.16.15,1.77.04.61.08,1.2.11,1.76s.05,1.08.05,1.54-.02.83-.05,1.09c-.04.28-.14.52-.29.72s-.34.38-.56.52c-.22.14-.46.24-.72.31-.26.07-.52.1-.78.1-.34,0-.68-.06-1-.19s-.59-.3-.81-.51c-.41-.41-.6-.93-.58-1.56.01-.15.01-.38,0-.69,0-.31,0-.65,0-1.03s0-.77,0-1.18-.01-.8-.02-1.15c-.01-.35-.02-.66-.02-.93,0-.26,0-.43,0-.51-.02-.33-.13-.59-.34-.77-.14-.13-.3-.23-.49-.29-.19-.06-.38-.11-.57-.15-.19-.03-.38-.05-.55-.06s-.31,0-.42,0h-.24c-.27.01-.53.03-.8.06-.26.03-.5.09-.71.18s-.38.22-.52.38c-.14.16-.23.38-.26.66-.01.16-.02.37-.02.62s0,.53,0,.84c0,.31.01.63.02.97,0,.34.01.67.02.99.02.57.04,1.08.05,1.52.01.44,0,.76-.02.94-.03.23-.1.45-.2.67-.1.22-.25.42-.44.6-.19.18-.43.32-.72.43-.29.11-.63.17-1.03.17h-.31c-.49-.03-.89-.11-1.2-.24-.31-.13-.54-.3-.71-.51s-.28-.46-.33-.76-.08-.63-.06-1.01c0-.25,0-.53,0-.86,0-.33,0-.68,0-1.05.01-.53.02-1.09.03-1.68.01-.6.02-1.19.03-1.77.01-.58.03-1.14.05-1.67.02-.53.04-.98.06-1.35.02-.39.01-.9-.02-1.54s-.08-1.34-.14-2.08c-.05-.77-.11-1.53-.16-2.27s-.07-1.4-.05-1.98c.04-2.01.98-3.01,2.8-3.01.79,0,1.38.21,1.77.63.18.18.32.39.4.63s.14.48.17.74c.03.26.04.51.03.77,0,.26-.02.5-.04.72l-.02.23c-.02.34-.05.76-.07,1.25s-.05.97-.08,1.44c-.03.47-.04.9-.05,1.27s0,.62,0,.72c.03.18.12.34.25.47.13.13.29.23.47.31s.38.13.59.17.4.06.58.08c.18.02.38.02.62.02l.11-.02c.21-.01.45-.02.71-.04.26-.02.5-.06.72-.12.23-.06.42-.16.59-.3.17-.13.27-.31.31-.54.04-.19.07-.45.08-.78.01-.33.02-.68.02-1.06s0-.77-.02-1.17c-.01-.4-.02-.78-.04-1.13-.02-.35-.03-.67-.05-.93-.02-.27-.03-.45-.04-.55-.1-.78.08-1.43.51-1.93.29-.32.63-.55,1.01-.68.38-.13.73-.19,1.04-.19.12,0,.26,0,.43.02.17.02.34.05.52.1.18.05.35.12.53.21.18.09.33.21.47.36.4.4.58.94.56,1.63Z"/>
      <path class="cls-4" d="M704.62,448.52c.5.03.91.11,1.21.23.31.12.54.29.71.5.17.21.28.46.33.76s.08.63.06,1.01c-.01.47-.03,1.07-.05,1.79-.02.72-.05,1.47-.08,2.25s-.06,1.54-.1,2.29c-.03.75-.06,1.38-.1,1.89-.03.42-.06.82-.07,1.19-.02.38-.03.76-.05,1.15-.02.39-.03.81-.05,1.25-.02.44-.03.93-.04,1.48-.02,1.13-.2,2.08-.54,2.85-.34.77-.8,1.4-1.4,1.88-.6.48-1.31.83-2.15,1.04-.84.21-1.77.31-2.78.31-.64,0-1.27-.04-1.89-.12-.62-.08-1.17-.2-1.65-.36-1.12-.36-1.93-1.04-2.45-2.04-.52-.99-.77-2.37-.76-4.13,0-.1,0-.24,0-.43,0-.19,0-.42,0-.69,0-.29,0-.62,0-.98s.01-.75.02-1.14.01-.8.02-1.21,0-.81,0-1.2c.01-.59.01-1.19,0-1.79,0-.61-.01-1.2-.02-1.78,0-.5,0-.99,0-1.45,0-.46,0-.88,0-1.27,0-.39.01-.72.02-1.01.01-.29.03-.52.05-.68.04-.29.15-.53.33-.73.18-.2.39-.36.64-.48s.51-.21.79-.27.53-.08.76-.08c.12,0,.26,0,.43.02s.34.05.52.09c.18.04.35.11.53.19.18.09.34.2.48.35.34.34.5.8.48,1.37,0,.13,0,.39,0,.77,0,.39-.01.86-.02,1.41-.01.55-.02,1.16-.03,1.81-.01.65-.02,1.32-.03,2s-.02,1.33-.03,1.97c-.01.64-.02,1.21-.03,1.72-.01.51-.02.93-.02,1.26s0,.53,0,.58c0,.56.03,1.02.1,1.4.07.38.18.68.34.91.16.23.36.39.62.49.26.1.58.14.97.14.44,0,.79-.07,1.04-.22.25-.14.45-.35.59-.61.14-.26.24-.58.29-.94s.1-.76.15-1.19c.01-.15.02-.44.03-.87.01-.43.02-.94.03-1.53.01-.59.02-1.23.02-1.92,0-.69,0-1.38,0-2.05.01-.66.02-1.3.02-1.89,0-.6.01-1.13.02-1.61,0-.48.01-.87.02-1.18.01-.31.02-.52.03-.61.03-.23.1-.45.2-.68.1-.23.25-.43.44-.6.19-.18.43-.32.72-.43.29-.11.63-.17,1.03-.17.05,0,.1,0,.14,0s.09,0,.15,0Z"/>
      <path class="cls-4" d="M721.68,459.16c1.28.12,2.21.67,2.8,1.66.24.4.4.84.49,1.33s.13.99.1,1.5c-.02.51-.09,1.02-.2,1.51-.11.49-.26.94-.44,1.35-.59,1.32-1.46,2.32-2.6,3.01-1.14.69-2.51,1.03-4.11,1.03-.36,0-.69-.02-.98-.05s-.57-.09-.83-.18c-.26-.09-.52-.2-.77-.35-.25-.15-.52-.34-.81-.58-.14-.12-.25-.21-.35-.27-.09-.06-.18-.09-.27-.09-.04.01-.09.04-.14.1-.05.05-.1.11-.15.18-.08.1-.17.2-.28.31s-.25.22-.41.31c-.16.1-.35.18-.57.24-.22.06-.49.1-.8.1-.83,0-1.44-.2-1.85-.61-.42-.43-.61-1.1-.58-2.03,0-.29,0-.62.02-1,.02-.38.03-.77.06-1.19.02-.42.05-.85.07-1.3.03-.45.06-.9.09-1.35.04-.62.08-1.21.11-1.78s.06-1.05.08-1.46c.02-.49,0-1.08-.05-1.75-.05-.68-.12-1.39-.19-2.16-.08-.74-.15-1.47-.21-2.18-.06-.71-.09-1.36-.06-1.94.02-1.04.25-1.8.68-2.29.43-.49,1.11-.73,2.02-.73.35,0,5.08-.05,5.79-.05.26,0,.53.01.82.04.29.03.6.07.93.14.61.12,1.21.28,1.79.47.58.2,1.1.47,1.57.83.47.35.86.81,1.17,1.38.32.56.52,1.27.6,2.12.05.51.04,1.05-.04,1.59-.08.55-.23,1.06-.46,1.54-.23.48-.53.91-.91,1.3s-.86.67-1.42.86c-.15.05-.25.1-.29.15-.04.05-.06.08-.06.09,0,.02.04.05.13.1.09.04.25.08.5.1ZM714.12,462.49c-.11.25-.17.51-.2.8-.03.28-.04.56-.03.81,0,.26.03.49.06.69s.07.34.09.42c.08.26.23.48.47.67s.52.34.84.46.64.21.96.27c.32.06.6.09.84.09.19,0,.42-.02.67-.06.25-.04.51-.11.76-.23s.5-.27.72-.48c.22-.21.39-.49.52-.84.31-.83.15-1.68-.5-2.56-.27-.26-.67-.45-1.21-.58s-1.08-.19-1.64-.19c-.15,0-.35.01-.59.03-.24.02-.48.06-.72.11-.24.05-.45.13-.65.23-.2.1-.33.22-.39.37ZM719.49,454.81c0-.44-.09-.79-.28-1.06s-.43-.48-.72-.63c-.29-.15-.62-.25-.98-.31s-.72-.08-1.08-.08-.71.03-1.04.1c-.33.06-.59.17-.8.32-.17.13-.31.27-.4.43-.1.16-.17.33-.21.51-.04.18-.07.37-.07.57,0,.2,0,.39,0,.59v.15c-.02.41,0,.76.06,1.07.06.31.23.61.52.91.12.12.28.21.5.27.21.06.46.09.74.09.44,0,.88-.06,1.34-.17.45-.11.86-.29,1.21-.53s.65-.55.88-.92c.23-.37.34-.81.34-1.31Z"/>
    </g>
    <g>
      <path class="cls-6" d="M679.01,443.64s-3.82.72-3.37-6.68c.45-7.4,1.04-8.05.2-11.02s-.42-5.8,2.88-5.98c2.86-.15,1.93,2.94,2.11,6.34.18,3.39.92,6.13,1.12,7.71.2,1.58-.19,8.8-2.93,9.63Z"/>
      <g>
        <path class="cls-6" d="M702.33,421.23c2.55.93,3.72,3,3.49,6.2-.01.17-.03.45-.05.83-.02.38-.04.82-.06,1.32-.02.5-.04,1.03-.06,1.59-.02.56-.03,1.12-.03,1.67v1.79c0,.6,0,1.19.02,1.77,0,.5,0,.99,0,1.46,0,.47,0,.89,0,1.28,0,.39-.01.72-.02,1.01-.01.28-.03.51-.05.67-.04.29-.15.53-.33.73-.18.2-.39.36-.64.49s-.51.22-.78.27c-.27.05-.53.08-.76.08-.12,0-.26,0-.43-.02-.17-.02-.34-.05-.52-.09-.18-.04-.35-.11-.53-.19-.18-.09-.34-.2-.48-.35-.34-.34-.5-.8-.48-1.37,0-.13,0-.39,0-.77,0-.39.01-.85.02-1.4.01-.55.02-1.15.03-1.81.01-.66.02-1.33.03-2,.01-.68.02-1.33.03-1.97.01-.64.02-1.21.03-1.72s.02-.93.02-1.26c0-.33,0-.53,0-.58,0-.2-.01-.46-.03-.76-.02-.3-.08-.59-.16-.87-.09-.28-.21-.52-.39-.72-.17-.2-.4-.3-.69-.3-.23,0-.45.05-.67.16-.22.11-.42.25-.6.42-.18.17-.32.37-.44.59-.12.22-.19.44-.21.67,0,.05-.01.22-.03.5-.02.28-.04.64-.06,1.07-.02.43-.03.93-.06,1.49-.02.56-.03,1.15-.03,1.79,0,.59,0,1.19,0,1.79s0,1.19,0,1.77c.01.5.02.99.02,1.45,0,.46,0,.88,0,1.27,0,.39-.01.72-.02,1.01-.01.29-.03.51-.05.68-.04.29-.15.53-.33.73-.18.2-.39.36-.64.49s-.51.22-.79.27-.53.08-.76.08c-.13,0-.28,0-.44-.02s-.34-.05-.51-.1c-.18-.05-.35-.12-.53-.2-.18-.09-.34-.2-.48-.34-.33-.35-.49-.81-.48-1.37,0-.12,0-.36.02-.72.01-.36.02-.81.03-1.33.01-.52.02-1.1.03-1.73.01-.63.02-1.27.03-1.92.01-.64.02-1.27.03-1.89.01-.62.02-1.17.02-1.67,0-.49.01-.9.02-1.22,0-.32,0-.51,0-.56,0-.32,0-.64-.02-.96s-.05-.61-.1-.88c-.05-.27-.11-.51-.19-.72s-.19-.36-.33-.46c-.11-.1-.25-.14-.42-.14-.05,0-.11,0-.17.02-.06.01-.12.03-.19.05-.16.04-.34.12-.55.24s-.4.28-.6.49c-.19.21-.36.47-.51.78s-.24.68-.28,1.11c-.01.15-.02.44-.03.88-.01.43-.02.95-.03,1.54-.01.59-.02,1.23-.02,1.92,0,.69-.01,1.38-.02,2.05,0,.65,0,1.28,0,1.88,0,.6-.01,1.14-.02,1.62s-.01.87-.02,1.18c-.01.31-.02.52-.03.61-.03.23-.1.45-.2.67-.1.22-.25.42-.44.6-.19.18-.43.32-.72.43-.29.11-.63.17-1.03.17h-.31c-.49-.03-.89-.11-1.2-.24-.31-.13-.54-.3-.72-.51-.17-.21-.28-.46-.34-.76-.05-.3-.08-.63-.06-1.01.01-.51.03-1.14.06-1.87.03-.73.06-1.49.09-2.27.03-.78.06-1.53.1-2.25.03-.72.06-1.33.1-1.81.02-.38,0-.89-.05-1.54s-.11-1.36-.18-2.11c-.08-.79-.14-1.58-.2-2.36-.06-.78-.08-1.46-.07-2.04.04-2.01.97-3.01,2.78-3.01.81,0,1.41.2,1.79.6.13.14.23.3.29.47.06.17.11.34.14.51.03.17.04.34.03.5s-.01.31-.02.45l-.02.14c0,.1.02.16.05.19.04-.01.1-.04.16-.1.05-.04.12-.11.19-.2.07-.09.17-.23.29-.41.23-.36.47-.67.73-.9.26-.24.53-.42.79-.56.26-.13.53-.23.8-.28s.52-.08.76-.08c.31,0,.6.03.85.09.26.06.47.12.64.18.35.13.65.28.89.45s.44.34.6.51c.16.17.29.34.39.51.1.17.19.31.27.44.05.12.1.21.15.29s.09.11.14.11c.02-.01.11-.09.27-.24s.38-.4.66-.74c.46-.55,1-.95,1.62-1.2.62-.25,1.23-.38,1.83-.38.48,0,.92.08,1.32.23Z"/>
        <path class="cls-6" d="M738.31,421.21c.5.03.91.11,1.21.23.31.12.54.29.71.5.17.21.28.46.33.76s.08.63.06,1.01c-.01.47-.03,1.07-.05,1.79-.02.72-.05,1.47-.08,2.25s-.06,1.54-.1,2.29c-.03.75-.06,1.38-.1,1.89-.03.42-.06.82-.07,1.19-.02.38-.03.76-.05,1.15-.02.39-.03.81-.05,1.25-.02.44-.03.93-.04,1.48-.02,1.13-.2,2.08-.54,2.85-.34.77-.8,1.4-1.4,1.88-.6.48-1.31.83-2.15,1.04-.84.21-1.77.31-2.78.31-.64,0-1.27-.04-1.89-.12-.62-.08-1.17-.2-1.65-.36-1.12-.36-1.93-1.04-2.45-2.04-.52-.99-.77-2.37-.76-4.13,0-.1,0-.24,0-.43,0-.19,0-.42,0-.69,0-.29,0-.62,0-.98s.01-.75.02-1.14.01-.8.02-1.21,0-.81,0-1.2c.01-.59.01-1.19,0-1.79,0-.61-.01-1.2-.02-1.78,0-.5,0-.99,0-1.45,0-.46,0-.88,0-1.27,0-.39.01-.72.02-1.01.01-.29.03-.52.05-.68.04-.29.15-.53.33-.73.18-.2.39-.36.64-.48s.51-.21.79-.27.53-.08.76-.08c.12,0,.26,0,.43.02s.34.05.52.09c.18.04.35.11.53.19.18.09.34.2.48.35.34.34.5.8.48,1.37,0,.13,0,.39,0,.77,0,.39-.01.86-.02,1.41-.01.55-.02,1.16-.03,1.81-.01.65-.02,1.32-.03,2s-.02,1.33-.03,1.97c-.01.64-.02,1.21-.03,1.72-.01.51-.02.93-.02,1.26s0,.53,0,.58c0,.56.03,1.02.1,1.4.07.38.18.68.34.91.16.23.36.39.62.49.26.1.58.14.97.14.44,0,.79-.07,1.04-.22.25-.14.45-.35.59-.61.14-.26.24-.58.29-.94s.1-.76.15-1.19c.01-.15.02-.44.03-.87.01-.43.02-.94.03-1.53.01-.59.02-1.23.02-1.92,0-.69,0-1.38,0-2.05.01-.66.02-1.3.02-1.89,0-.6.01-1.13.02-1.61,0-.48.01-.87.02-1.18.01-.31.02-.52.03-.61.03-.23.1-.45.2-.68.1-.23.25-.43.44-.6.19-.18.43-.32.72-.43.29-.11.63-.17,1.03-.17.05,0,.1,0,.14,0s.09,0,.15,0Z"/>
        <path class="cls-6" d="M757.99,423.45c0,.19-.04.41-.12.66-.08.25-.23.48-.44.69-.42.39-.98.56-1.67.53-.42-.02-.77-.04-1.05-.05-.39-.03-.69-.05-.92-.05-.34,0-.61.05-.79.16-.09.05-.17.18-.27.39-.09.21-.15.57-.17,1.09v.03c-.01.32-.02.59-.02.81,0,.22-.01.42-.02.59s0,.32,0,.46,0,.27,0,.41v.95c0,.2,0,.45,0,.72,0,.28-.01.61-.02.98-.01.35,0,.76,0,1.21.02.45.03.92.06,1.4s.05.97.08,1.47c.03.5.06.97.1,1.42.05.74.1,1.38.13,1.91.03.53.04.89.02,1.07-.02.21-.09.44-.2.68s-.27.47-.48.68c-.21.21-.47.38-.78.52-.31.14-.68.21-1.09.21h-.26c-.88-.06-1.51-.3-1.89-.72-.38-.41-.56-1.05-.54-1.92.01-.29.02-.62.04-1,.02-.38.03-.77.06-1.19.02-.42.05-.85.07-1.3.03-.45.06-.9.09-1.35.04-.62.08-1.21.11-1.78.03-.56.06-1.05.08-1.46.02-.44.03-.9.04-1.38,0-.48,0-.95,0-1.41,0-.46-.01-.89-.02-1.29s-.01-.73-.02-1v-.39c0-.17-.03-.32-.1-.45-.07-.13-.15-.24-.23-.32s-.18-.15-.28-.19c-.1-.04-.19-.07-.25-.08-.11-.01-.2-.01-.28,0s-.18.01-.3.02c-.12.01-.25.02-.41.03s-.36.02-.6.02c-.29,0-.7-.02-1.24-.05-.21-.01-.43-.05-.65-.11-.22-.06-.42-.17-.6-.31-.18-.14-.32-.33-.43-.57-.11-.24-.16-.54-.14-.91,0-.12.01-.28.04-.5.03-.21.09-.44.19-.67.1-.23.25-.45.46-.64s.49-.34.85-.43c.1-.02.22-.04.38-.05.16-.01.34-.02.56-.02.48,0,1.09.02,1.83.05.47.01.99.02,1.56.03.57.01,1.17.02,1.82.02.79,0,1.53,0,2.2-.02.67-.02,1.26-.03,1.76-.06.34-.01.64-.02.9-.03.26-.01.48-.02.68-.02.77,0,1.33.22,1.67.65.34.43.52,1.04.52,1.83Z"/>
        <path class="cls-6" d="M774.56,426.42c.23.54.4,1.13.52,1.79s.21,1.35.25,2.07.05,1.45.02,2.2c-.03.75-.1,1.48-.2,2.2-.1.72-.23,1.4-.39,2.05s-.34,1.23-.54,1.75c-.35.91-.76,1.68-1.23,2.29-.47.62-1,1.11-1.61,1.47s-1.29.63-2.06.78-1.63.23-2.58.23c-.76,0-1.49-.09-2.17-.27-.69-.18-1.32-.44-1.89-.78-.57-.34-1.08-.75-1.53-1.24-.45-.49-.81-1.04-1.1-1.65-.28-.61-.52-1.3-.72-2.05-.2-.76-.36-1.55-.48-2.38-.11-.83-.17-1.69-.18-2.57,0-.88.04-1.75.14-2.6.1-.85.27-1.68.5-2.48.23-.8.53-1.53.89-2.2,1.41-2.55,3.6-3.84,6.58-3.86,1.92,0,3.51.43,4.78,1.3,1.27.86,2.26,2.18,2.99,3.95ZM769.78,435.01c.1-.6.17-1.21.22-1.83.05-.62.07-1.23.06-1.83,0-.6-.04-1.18-.1-1.74-.06-.56-.15-1.08-.27-1.56-.17-.7-.51-1.26-1.03-1.7-.51-.43-1.11-.66-1.77-.67h-.02c-.68,0-1.26.23-1.75.69-.49.46-.85,1.11-1.06,1.95-.13.49-.22,1.04-.28,1.64-.06.6-.1,1.19-.13,1.76-.03.57-.04,1.1-.03,1.59,0,.48.01.85.02,1.11.01.2.03.45.07.74.04.29.1.59.19.89.09.31.2.61.35.91.15.3.34.57.56.81s.5.43.82.58c.32.14.7.22,1.14.22,1.59,0,2.59-1.19,2.99-3.57Z"/>
      </g>
      <path class="cls-6" d="M721.12,431.73c1.28.12,2.21.67,2.8,1.66.24.4.4.84.49,1.33s.13.99.1,1.5c-.02.51-.09,1.02-.2,1.51-.11.49-.26.94-.44,1.35-.59,1.32-1.46,2.32-2.6,3.01-1.14.69-2.51,1.03-4.11,1.03-.36,0-.69-.02-.98-.05s-.57-.09-.83-.18c-.26-.09-.52-.2-.77-.35-.25-.15-.52-.34-.81-.58-.14-.12-.25-.21-.35-.27-.09-.06-.18-.09-.27-.09-.04.01-.09.04-.14.1-.05.05-.1.11-.15.18-.08.1-.17.2-.28.31s-.25.22-.41.31c-.16.1-.35.18-.57.24-.22.06-.49.1-.8.1-.83,0-1.44-.2-1.85-.61-.42-.43-.61-1.1-.58-2.03,0-.29,0-.62.02-1,.02-.38.03-.77.06-1.19.02-.42.05-.85.07-1.3.03-.45.06-.9.09-1.35.04-.62.08-1.21.11-1.78s.06-1.05.08-1.46c.02-.49,0-1.08-.05-1.75-.05-.68-.12-1.39-.19-2.16-.08-.74-.15-1.47-.21-2.18-.06-.71-.09-1.36-.06-1.94.02-1.04.25-1.8.68-2.29.43-.49,1.11-.73,2.02-.73.35,0,5.08-.05,5.79-.05.26,0,.53.01.82.04.29.03.6.07.93.14.61.12,1.21.28,1.79.47.58.2,1.1.47,1.57.83.47.35.86.81,1.17,1.38s.52,1.27.6,2.12c.05.51.04,1.05-.04,1.59-.08.55-.23,1.06-.46,1.54-.23.48-.53.91-.91,1.3-.38.38-.86.67-1.42.86-.15.05-.25.1-.29.15-.04.05-.06.08-.06.09,0,.02.04.05.13.1.09.04.25.08.5.1ZM714.12,435.06c-.11.25-.17.51-.2.8-.03.28-.04.56-.03.81,0,.26.03.49.06.69s.07.34.09.42c.08.26.23.48.47.67s.52.34.84.46.64.21.96.27c.32.06.6.09.84.09.19,0,.42-.02.67-.06.25-.04.51-.11.76-.23s.5-.27.72-.48c.22-.21.39-.49.52-.84.31-.83.15-1.68-.5-2.56-.27-.26-.67-.45-1.21-.58s-1.08-.19-1.64-.19c-.15,0-.35.01-.59.03-.24.02-.48.06-.72.11-.24.05-.45.13-.65.23-.2.1-.33.22-.39.37ZM719.49,427.39c0-.44-.09-.79-.28-1.06s-.43-.48-.72-.63c-.29-.15-.62-.25-.98-.31s-.72-.08-1.08-.08-.71.03-1.04.1c-.33.06-.59.17-.8.32-.17.13-.31.27-.4.43-.1.16-.17.33-.21.51-.04.18-.07.37-.07.57,0,.2,0,.39,0,.59v.15c-.02.41,0,.76.06,1.07.06.31.23.61.52.91.12.12.28.21.5.27.21.06.46.09.74.09.44,0,.88-.06,1.34-.17.45-.11.86-.29,1.21-.53s.65-.55.88-.92c.23-.37.34-.81.34-1.31Z"/>
    </g>
  </g>
  <g>
    <path class="cls-6" d="M364.94,480.49s-7.84,1.05-6.14-13.93c1.7-14.98,2.97-16.25,1.57-22.35-1.39-6.1.33-9.33.44-11.41.11-2.07-1.51-22.35,5.22-22.36,5.83,0,2.6,12.32,3.07,19.24s1.36,8.88,1.37,15.79,1.21,12.55,1.45,15.77-1.33,17.86-6.98,19.25Z"/>
    <path class="cls-7" d="M400.47,462.87c.3-6.07-.78-23.9-.34-28.87.43-4.97.25-14.19-.1-17.51-.25-2.41-3-1.88-3-1.88,0,0-4.54.76-5.15,5.18-.47,3.39.11,10.54-.08,16.55-.03.82-1.54,1.45-2.34,1.26-5.43-1.34-11.49-2.21-14.41-.68-1.85.97-2.77,3.91-1.72,6.56,1.19,3.01,2.35,2.32,3.59,2.62s1.17.08,6.72,1.22c.24.05,2.44,1.2,5.16.51,1.11-.28,1.6.29,1.53,1.02-.8,8.86-1.94,22.22-1.47,23.41.63,1.6,1.17,6.89,7.35,5.88,6.18-1,3.96-9.22,4.26-15.28Z"/>
    <g>
      <path class="cls-6" d="M363.01,408.75c-.76-.22-1.32-.85-1.53-1.61-.52-1.98-.88-6.57,2.27-10.25,3.54-4.13,6.59-1.93,7.59,3.46s-1.26,7.51-1.8,7.92c-.43.33-4.43,1.11-6.52.49Z"/>
      <g>
        <path class="cls-1" d="M359.27,409.71s-4.36-4.39-15.14-7.79c-8.66-2.73-16.54-4.27-16.54-4.27,0,0,8.47,7.73,16.53,10.16,9.86,2.97,15.15,1.91,15.15,1.91Z"/>
        <path class="cls-1" d="M359.06,406.17s-2.33-7.67-8.06-12.58c-5.72-4.91-12.42-5.44-12.42-5.44,0,0,2.62,2.51,6.05,7.73,5.84,8.86,14.42,10.3,14.42,10.3Z"/>
        <path class="cls-1" d="M341.61,398.66s-3.26-8.36-12.23-10.31c0,0,2.61,8.74,12.23,10.31Z"/>
        <path class="cls-1" d="M359.09,413.28s-5.36-2.16-11.69-.65c-4.41,1.06-8.44,3.61-8.44,3.61,0,0,8.28,1.27,11.68.79,5.77-.82,8.46-3.76,8.46-3.76Z"/>
      </g>
    </g>
    <g>
      <path class="cls-1" d="M425.24,450.82c-.02.58-.06,1.2-.1,1.85-.05.65-.1,1.32-.15,2-.06.84-.13,1.67-.18,2.5-.06.83-.09,1.59-.09,2.26,0,.28.02.69.06,1.22.04.54.08,1.14.14,1.8.05.57.1,1.16.15,1.77.04.61.08,1.2.11,1.76s.05,1.08.05,1.54-.02.83-.05,1.09c-.04.28-.14.52-.29.72s-.34.38-.56.52c-.22.14-.46.24-.72.31-.26.07-.52.1-.78.1-.34,0-.68-.06-1-.19s-.59-.3-.81-.51c-.41-.41-.6-.93-.58-1.56.01-.15.01-.38,0-.69,0-.31,0-.65,0-1.03s0-.77,0-1.18-.01-.8-.02-1.15c-.01-.35-.02-.66-.02-.93,0-.26,0-.43,0-.51-.02-.33-.13-.59-.34-.77-.14-.13-.3-.23-.49-.29-.19-.06-.38-.11-.57-.15-.19-.03-.38-.05-.55-.06s-.31,0-.42,0h-.24c-.27.01-.53.03-.8.06-.26.03-.5.09-.71.18s-.38.22-.52.38c-.14.16-.23.38-.26.66-.01.16-.02.37-.02.62s0,.53,0,.84c0,.31.01.63.02.97,0,.34.01.67.02.99.02.57.04,1.08.05,1.52.01.44,0,.76-.02.94-.03.23-.1.45-.2.67-.1.22-.25.42-.44.6-.19.18-.43.32-.72.43-.29.11-.63.17-1.03.17h-.31c-.49-.03-.89-.11-1.2-.24-.31-.13-.54-.3-.71-.51s-.28-.46-.33-.76-.08-.63-.06-1.01c0-.25,0-.53,0-.86,0-.33,0-.68,0-1.05.01-.53.02-1.09.03-1.68.01-.6.02-1.19.03-1.77.01-.58.03-1.14.05-1.67.02-.53.04-.98.06-1.35.02-.39.01-.9-.02-1.54s-.08-1.34-.14-2.08c-.05-.77-.11-1.53-.16-2.27s-.07-1.4-.05-1.98c.04-2.01.98-3.01,2.8-3.01.79,0,1.38.21,1.77.63.18.18.32.39.4.63s.14.48.17.74c.03.26.04.51.03.77,0,.26-.02.5-.04.72l-.02.23c-.02.34-.05.76-.07,1.25s-.05.97-.08,1.44c-.03.47-.04.9-.05,1.27s0,.62,0,.72c.03.18.12.34.25.47.13.13.29.23.47.31s.38.13.59.17.4.06.58.08c.18.02.38.02.62.02l.11-.02c.21-.01.45-.02.71-.04.26-.02.5-.06.72-.12.23-.06.42-.16.59-.3.17-.13.27-.31.31-.54.04-.19.07-.45.08-.78.01-.33.02-.68.02-1.06s0-.77-.02-1.17c-.01-.4-.02-.78-.04-1.13-.02-.35-.03-.67-.05-.93-.02-.27-.03-.45-.04-.55-.1-.78.08-1.43.51-1.93.29-.32.63-.55,1.01-.68.38-.13.73-.19,1.04-.19.12,0,.26,0,.43.02.17.02.34.05.52.1.18.05.35.12.53.21.18.09.33.21.47.36.4.4.58.94.56,1.63Z"/>
      <path class="cls-1" d="M438.99,448.52c.5.03.91.11,1.21.23.31.12.54.29.71.5.17.21.28.46.33.76s.08.63.06,1.01c-.01.47-.03,1.07-.05,1.79-.02.72-.05,1.47-.08,2.25s-.06,1.54-.1,2.29c-.03.75-.06,1.38-.1,1.89-.03.42-.06.82-.07,1.19-.02.38-.03.76-.05,1.15-.02.39-.03.81-.05,1.25-.02.44-.03.93-.04,1.48-.02,1.13-.2,2.08-.54,2.85s-.8,1.4-1.4,1.88c-.6.48-1.31.83-2.15,1.04-.84.21-1.77.31-2.78.31-.64,0-1.27-.04-1.89-.12-.62-.08-1.17-.2-1.65-.36-1.12-.36-1.93-1.04-2.45-2.04-.52-.99-.77-2.37-.76-4.13,0-.1,0-.24,0-.43,0-.19,0-.42,0-.69,0-.29,0-.62,0-.98s.01-.75.02-1.14.01-.8.02-1.21,0-.81,0-1.2c.01-.59.01-1.19,0-1.79,0-.61-.01-1.2-.02-1.78,0-.5,0-.99,0-1.45,0-.46,0-.88,0-1.27,0-.39.01-.72.02-1.01.01-.29.03-.52.05-.68.04-.29.15-.53.33-.73.18-.2.39-.36.64-.48s.51-.21.79-.27.53-.08.76-.08c.12,0,.26,0,.43.02s.34.05.52.09c.18.04.35.11.53.19.18.09.34.2.48.35.34.34.5.8.48,1.37,0,.13,0,.39,0,.77,0,.39-.01.86-.02,1.41-.01.55-.02,1.16-.03,1.81-.01.65-.02,1.32-.03,2s-.02,1.33-.03,1.97c-.01.64-.02,1.21-.03,1.72-.01.51-.02.93-.02,1.26s0,.53,0,.58c0,.56.03,1.02.1,1.4.07.38.18.68.34.91.16.23.36.39.62.49.26.1.58.14.97.14.44,0,.79-.07,1.04-.22.25-.14.45-.35.59-.61.14-.26.24-.58.29-.94s.1-.76.15-1.19c.01-.15.02-.44.03-.87.01-.43.02-.94.03-1.53.01-.59.02-1.23.02-1.92,0-.69,0-1.38,0-2.05.01-.66.02-1.3.02-1.89,0-.6.01-1.13.02-1.61,0-.48.01-.87.02-1.18.01-.31.02-.52.03-.61.03-.23.1-.45.2-.68.1-.23.25-.43.44-.6.19-.18.43-.32.72-.43.29-.11.63-.17,1.03-.17.05,0,.1,0,.14,0s.09,0,.15,0Z"/>
      <path class="cls-1" d="M456.05,459.16c1.28.12,2.21.67,2.8,1.66.24.4.4.84.49,1.33s.13.99.1,1.5c-.02.51-.09,1.02-.2,1.51-.11.49-.26.94-.44,1.35-.59,1.32-1.46,2.32-2.6,3.01-1.14.69-2.51,1.03-4.11,1.03-.36,0-.69-.02-.98-.05s-.57-.09-.83-.18c-.26-.09-.52-.2-.77-.35-.25-.15-.52-.34-.81-.58-.14-.12-.25-.21-.35-.27-.09-.06-.18-.09-.27-.09-.04.01-.09.04-.14.1-.05.05-.1.11-.15.18-.08.1-.17.2-.28.31s-.25.22-.41.31c-.16.1-.35.18-.57.24-.22.06-.49.1-.8.1-.83,0-1.44-.2-1.85-.61-.42-.43-.61-1.1-.58-2.03,0-.29,0-.62.02-1,.02-.38.03-.77.06-1.19.02-.42.05-.85.07-1.3.03-.45.06-.9.09-1.35.04-.62.08-1.21.11-1.78s.06-1.05.08-1.46c.02-.49,0-1.08-.05-1.75-.05-.68-.12-1.39-.19-2.16-.08-.74-.15-1.47-.21-2.18-.06-.71-.09-1.36-.06-1.94.02-1.04.25-1.8.68-2.29.43-.49,1.11-.73,2.02-.73.35,0,5.08-.05,5.79-.05.26,0,.53.01.82.04.29.03.6.07.93.14.61.12,1.21.28,1.79.47.58.2,1.1.47,1.57.83.47.35.86.81,1.17,1.38.32.56.52,1.27.6,2.12.05.51.04,1.05-.04,1.59-.08.55-.23,1.06-.46,1.54-.23.48-.53.91-.91,1.3s-.86.67-1.42.86c-.15.05-.25.1-.29.15-.04.05-.06.08-.06.09,0,.02.04.05.13.1.09.04.25.08.5.1ZM448.49,462.49c-.11.25-.17.51-.2.8-.03.28-.04.56-.03.81,0,.26.03.49.06.69s.07.34.09.42c.08.26.23.48.47.67s.52.34.84.46.64.21.96.27c.32.06.6.09.84.09.19,0,.42-.02.67-.06.25-.04.51-.11.76-.23s.5-.27.72-.48c.22-.21.39-.49.52-.84.31-.83.15-1.68-.5-2.56-.27-.26-.67-.45-1.21-.58s-1.08-.19-1.64-.19c-.15,0-.35.01-.59.03-.24.02-.48.06-.72.11-.24.05-.45.13-.65.23-.2.1-.33.22-.39.37ZM453.86,454.81c0-.44-.09-.79-.28-1.06s-.43-.48-.72-.63c-.29-.15-.62-.25-.98-.31s-.72-.08-1.08-.08-.71.03-1.04.1c-.33.06-.59.17-.8.32-.17.13-.31.27-.4.43-.1.16-.17.33-.21.51-.04.18-.07.37-.07.57,0,.2,0,.39,0,.59v.15c-.02.41,0,.76.06,1.07.06.31.23.61.52.91.12.12.28.21.5.27.21.06.46.09.74.09.44,0,.88-.06,1.34-.17.45-.11.86-.29,1.21-.53s.65-.55.88-.92c.23-.37.34-.81.34-1.31Z"/>
    </g>
    <g>
      <path class="cls-6" d="M413.38,443.64s-3.82.72-3.37-6.68,1.04-8.05.2-11.02c-.84-2.96-.42-5.8,2.88-5.98,2.86-.15,1.93,2.94,2.11,6.34s.92,6.13,1.12,7.71c.2,1.58-.19,8.8-2.93,9.63Z"/>
      <g>
        <path class="cls-6" d="M436.7,421.23c2.55.93,3.72,3,3.49,6.2-.01.17-.03.45-.05.83-.02.38-.04.82-.06,1.32-.02.5-.04,1.03-.06,1.59-.02.56-.03,1.12-.03,1.67v1.79c0,.6,0,1.19.02,1.77,0,.5,0,.99,0,1.46,0,.47,0,.89,0,1.28,0,.39-.01.72-.02,1.01-.01.28-.03.51-.05.67-.04.29-.15.53-.33.73-.18.2-.39.36-.64.49s-.51.22-.78.27c-.27.05-.53.08-.76.08-.12,0-.26,0-.43-.02-.17-.02-.34-.05-.52-.09-.18-.04-.35-.11-.53-.19-.18-.09-.34-.2-.48-.35-.34-.34-.5-.8-.48-1.37,0-.13,0-.39,0-.77,0-.39.01-.85.02-1.4.01-.55.02-1.15.03-1.81.01-.66.02-1.33.03-2,.01-.68.02-1.33.03-1.97.01-.64.02-1.21.03-1.72s.02-.93.02-1.26c0-.33,0-.53,0-.58,0-.2-.01-.46-.03-.76-.02-.3-.08-.59-.16-.87-.09-.28-.21-.52-.39-.72-.17-.2-.4-.3-.69-.3-.23,0-.45.05-.67.16-.22.11-.42.25-.6.42-.18.17-.32.37-.44.59-.12.22-.19.44-.21.67,0,.05-.01.22-.03.5-.02.28-.04.64-.06,1.07-.02.43-.03.93-.06,1.49-.02.56-.03,1.15-.03,1.79,0,.59,0,1.19,0,1.79s0,1.19,0,1.77c.01.5.02.99.02,1.45,0,.46,0,.88,0,1.27,0,.39-.01.72-.02,1.01-.01.29-.03.51-.05.68-.04.29-.15.53-.33.73-.18.2-.39.36-.64.49s-.51.22-.79.27-.53.08-.76.08c-.13,0-.28,0-.44-.02s-.34-.05-.51-.1c-.18-.05-.35-.12-.53-.2-.18-.09-.34-.2-.48-.34-.33-.35-.49-.81-.48-1.37,0-.12,0-.36.02-.72.01-.36.02-.81.03-1.33.01-.52.02-1.1.03-1.73.01-.63.02-1.27.03-1.92.01-.64.02-1.27.03-1.89.01-.62.02-1.17.02-1.67,0-.49.01-.9.02-1.22,0-.32,0-.51,0-.56,0-.32,0-.64-.02-.96s-.05-.61-.1-.88c-.05-.27-.11-.51-.19-.72s-.19-.36-.33-.46c-.11-.1-.25-.14-.42-.14-.05,0-.11,0-.17.02-.06.01-.12.03-.19.05-.16.04-.34.12-.55.24s-.4.28-.6.49c-.19.21-.36.47-.51.78s-.24.68-.28,1.11c-.01.15-.02.44-.03.88-.01.43-.02.95-.03,1.54-.01.59-.02,1.23-.02,1.92,0,.69-.01,1.38-.02,2.05,0,.65,0,1.28,0,1.88,0,.6-.01,1.14-.02,1.62s-.01.87-.02,1.18c-.01.31-.02.52-.03.61-.03.23-.1.45-.2.67-.1.22-.25.42-.44.6-.19.18-.43.32-.72.43-.29.11-.63.17-1.03.17h-.31c-.49-.03-.89-.11-1.2-.24-.31-.13-.54-.3-.72-.51-.17-.21-.28-.46-.34-.76-.05-.3-.08-.63-.06-1.01.01-.51.03-1.14.06-1.87.03-.73.06-1.49.09-2.27.03-.78.06-1.53.1-2.25.03-.72.06-1.33.1-1.81.02-.38,0-.89-.05-1.54s-.11-1.36-.18-2.11c-.08-.79-.14-1.58-.2-2.36-.06-.78-.08-1.46-.07-2.04.04-2.01.97-3.01,2.78-3.01.81,0,1.41.2,1.79.6.13.14.23.3.29.47.06.17.11.34.14.51.03.17.04.34.03.5s-.01.31-.02.45l-.02.14c0,.1.02.16.05.19.04-.01.1-.04.16-.1.05-.04.12-.11.19-.2.07-.09.17-.23.29-.41.23-.36.47-.67.73-.9.26-.24.53-.42.79-.56.26-.13.53-.23.8-.28s.52-.08.76-.08c.31,0,.6.03.85.09.26.06.47.12.64.18.35.13.65.28.89.45s.44.34.6.51c.16.17.29.34.39.51.1.17.19.31.27.44.05.12.1.21.15.29s.09.11.14.11c.02-.01.11-.09.27-.24s.38-.4.66-.74c.46-.55,1-.95,1.62-1.2.62-.25,1.23-.38,1.83-.38.48,0,.92.08,1.32.23Z"/>
        <path class="cls-6" d="M472.68,421.21c.5.03.91.11,1.21.23.31.12.54.29.71.5.17.21.28.46.33.76s.08.63.06,1.01c-.01.47-.03,1.07-.05,1.79-.02.72-.05,1.47-.08,2.25s-.06,1.54-.1,2.29c-.03.75-.06,1.38-.1,1.89-.03.42-.06.82-.07,1.19-.02.38-.03.76-.05,1.15-.02.39-.03.81-.05,1.25-.02.44-.03.93-.04,1.48-.02,1.13-.2,2.08-.54,2.85s-.8,1.4-1.4,1.88c-.6.48-1.31.83-2.15,1.04-.84.21-1.77.31-2.78.31-.64,0-1.27-.04-1.89-.12-.62-.08-1.17-.2-1.65-.36-1.12-.36-1.93-1.04-2.45-2.04-.52-.99-.77-2.37-.76-4.13,0-.1,0-.24,0-.43,0-.19,0-.42,0-.69,0-.29,0-.62,0-.98s.01-.75.02-1.14.01-.8.02-1.21,0-.81,0-1.2c.01-.59.01-1.19,0-1.79,0-.61-.01-1.2-.02-1.78,0-.5,0-.99,0-1.45,0-.46,0-.88,0-1.27,0-.39.01-.72.02-1.01.01-.29.03-.52.05-.68.04-.29.15-.53.33-.73.18-.2.39-.36.64-.48s.51-.21.79-.27.53-.08.76-.08c.12,0,.26,0,.43.02s.34.05.52.09c.18.04.35.11.53.19.18.09.34.2.48.35.34.34.5.8.48,1.37,0,.13,0,.39,0,.77,0,.39-.01.86-.02,1.41-.01.55-.02,1.16-.03,1.81-.01.65-.02,1.32-.03,2s-.02,1.33-.03,1.97c-.01.64-.02,1.21-.03,1.72-.01.51-.02.93-.02,1.26s0,.53,0,.58c0,.56.03,1.02.1,1.4.07.38.18.68.34.91.16.23.36.39.62.49.26.1.58.14.97.14.44,0,.79-.07,1.04-.22.25-.14.45-.35.59-.61.14-.26.24-.58.29-.94s.1-.76.15-1.19c.01-.15.02-.44.03-.87.01-.43.02-.94.03-1.53.01-.59.02-1.23.02-1.92,0-.69,0-1.38,0-2.05.01-.66.02-1.3.02-1.89,0-.6.01-1.13.02-1.61,0-.48.01-.87.02-1.18.01-.31.02-.52.03-.61.03-.23.1-.45.2-.68.1-.23.25-.43.44-.6.19-.18.43-.32.72-.43.29-.11.63-.17,1.03-.17.05,0,.1,0,.14,0s.09,0,.15,0Z"/>
        <path class="cls-6" d="M492.36,423.45c0,.19-.04.41-.12.66-.08.25-.23.48-.44.69-.42.39-.98.56-1.67.53-.42-.02-.77-.04-1.05-.05-.39-.03-.69-.05-.92-.05-.34,0-.61.05-.79.16-.09.05-.17.18-.27.39-.09.21-.15.57-.17,1.09v.03c-.01.32-.02.59-.02.81,0,.22-.01.42-.02.59s0,.32,0,.46,0,.27,0,.41v.95c0,.2,0,.45,0,.72,0,.28-.01.61-.02.98-.01.35,0,.76,0,1.21.02.45.03.92.06,1.4s.05.97.08,1.47c.03.5.06.97.1,1.42.05.74.1,1.38.13,1.91.03.53.04.89.02,1.07-.02.21-.09.44-.2.68s-.27.47-.48.68c-.21.21-.47.38-.78.52-.31.14-.68.21-1.09.21h-.26c-.88-.06-1.51-.3-1.89-.72-.38-.41-.56-1.05-.54-1.92.01-.29.02-.62.04-1,.02-.38.03-.77.06-1.19.02-.42.05-.85.07-1.3.03-.45.06-.9.09-1.35.04-.62.08-1.21.11-1.78.03-.56.06-1.05.08-1.46.02-.44.03-.9.04-1.38,0-.48,0-.95,0-1.41,0-.46-.01-.89-.02-1.29s-.01-.73-.02-1v-.39c0-.17-.03-.32-.1-.45-.07-.13-.15-.24-.23-.32s-.18-.15-.28-.19c-.1-.04-.19-.07-.25-.08-.11-.01-.2-.01-.28,0s-.18.01-.3.02c-.12.01-.25.02-.41.03s-.36.02-.6.02c-.29,0-.7-.02-1.24-.05-.21-.01-.43-.05-.65-.11-.22-.06-.42-.17-.6-.31-.18-.14-.32-.33-.43-.57-.11-.24-.16-.54-.14-.91,0-.12.01-.28.04-.5.03-.21.09-.44.19-.67.1-.23.25-.45.46-.64s.49-.34.85-.43c.1-.02.22-.04.38-.05.16-.01.34-.02.56-.02.48,0,1.09.02,1.83.05.47.01.99.02,1.56.03.57.01,1.17.02,1.82.02.79,0,1.53,0,2.2-.02.67-.02,1.26-.03,1.76-.06.34-.01.64-.02.9-.03.26-.01.48-.02.68-.02.77,0,1.33.22,1.67.65.34.43.52,1.04.52,1.83Z"/>
        <path class="cls-6" d="M508.93,426.42c.23.54.4,1.13.52,1.79s.21,1.35.25,2.07.05,1.45.02,2.2c-.03.75-.1,1.48-.2,2.2-.1.72-.23,1.4-.39,2.05s-.34,1.23-.54,1.75c-.35.91-.76,1.68-1.23,2.29-.47.62-1,1.11-1.61,1.47s-1.29.63-2.06.78-1.63.23-2.58.23c-.76,0-1.49-.09-2.17-.27-.69-.18-1.32-.44-1.89-.78-.57-.34-1.08-.75-1.53-1.24-.45-.49-.81-1.04-1.1-1.65-.28-.61-.52-1.3-.72-2.05-.2-.76-.36-1.55-.48-2.38-.11-.83-.17-1.69-.18-2.57,0-.88.04-1.75.14-2.6.1-.85.27-1.68.5-2.48.23-.8.53-1.53.89-2.2,1.41-2.55,3.6-3.84,6.58-3.86,1.92,0,3.51.43,4.78,1.3,1.27.86,2.26,2.18,2.99,3.95ZM504.15,435.01c.1-.6.17-1.21.22-1.83.05-.62.07-1.23.06-1.83,0-.6-.04-1.18-.1-1.74-.06-.56-.15-1.08-.27-1.56-.17-.7-.51-1.26-1.03-1.7-.51-.43-1.11-.66-1.77-.67h-.02c-.68,0-1.26.23-1.75.69-.49.46-.85,1.11-1.06,1.95-.13.49-.22,1.04-.28,1.64-.06.6-.1,1.19-.13,1.76-.03.57-.04,1.1-.03,1.59,0,.48.01.85.02,1.11.01.2.03.45.07.74.04.29.1.59.19.89.09.31.2.61.35.91.15.3.34.57.56.81s.5.43.82.58c.32.14.7.22,1.14.22,1.59,0,2.59-1.19,2.99-3.57Z"/>
      </g>
      <path class="cls-6" d="M455.5,431.73c1.28.12,2.21.67,2.8,1.66.24.4.4.84.49,1.33s.13.99.1,1.5c-.02.51-.09,1.02-.2,1.51-.11.49-.26.94-.44,1.35-.59,1.32-1.46,2.32-2.6,3.01-1.14.69-2.51,1.03-4.11,1.03-.36,0-.69-.02-.98-.05s-.57-.09-.83-.18c-.26-.09-.52-.2-.77-.35-.25-.15-.52-.34-.81-.58-.14-.12-.25-.21-.35-.27-.09-.06-.18-.09-.27-.09-.04.01-.09.04-.14.1-.05.05-.1.11-.15.18-.08.1-.17.2-.28.31s-.25.22-.41.31c-.16.1-.35.18-.57.24-.22.06-.49.1-.8.1-.83,0-1.44-.2-1.85-.61-.42-.43-.61-1.1-.58-2.03,0-.29,0-.62.02-1,.02-.38.03-.77.06-1.19.02-.42.05-.85.07-1.3.03-.45.06-.9.09-1.35.04-.62.08-1.21.11-1.78s.06-1.05.08-1.46c.02-.49,0-1.08-.05-1.75-.05-.68-.12-1.39-.19-2.16-.08-.74-.15-1.47-.21-2.18-.06-.71-.09-1.36-.06-1.94.02-1.04.25-1.8.68-2.29.43-.49,1.11-.73,2.02-.73.35,0,5.08-.05,5.79-.05.26,0,.53.01.82.04.29.03.6.07.93.14.61.12,1.21.28,1.79.47.58.2,1.1.47,1.57.83.47.35.86.81,1.17,1.38s.52,1.27.6,2.12c.05.51.04,1.05-.04,1.59-.08.55-.23,1.06-.46,1.54-.23.48-.53.91-.91,1.3s-.86.67-1.42.86c-.15.05-.25.1-.29.15-.04.05-.06.08-.06.09,0,.02.04.05.13.1.09.04.25.08.5.1ZM448.49,435.06c-.11.25-.17.51-.2.8-.03.28-.04.56-.03.81,0,.26.03.49.06.69s.07.34.09.42c.08.26.23.48.47.67s.52.34.84.46.64.21.96.27c.32.06.6.09.84.09.19,0,.42-.02.67-.06.25-.04.51-.11.76-.23s.5-.27.72-.48c.22-.21.39-.49.52-.84.31-.83.15-1.68-.5-2.56-.27-.26-.67-.45-1.21-.58s-1.08-.19-1.64-.19c-.15,0-.35.01-.59.03-.24.02-.48.06-.72.11-.24.05-.45.13-.65.23-.2.1-.33.22-.39.37ZM453.86,427.39c0-.44-.09-.79-.28-1.06s-.43-.48-.72-.63c-.29-.15-.62-.25-.98-.31s-.72-.08-1.08-.08-.71.03-1.04.1c-.33.06-.59.17-.8.32-.17.13-.31.27-.4.43-.1.16-.17.33-.21.51-.04.18-.07.37-.07.57,0,.2,0,.39,0,.59v.15c-.02.41,0,.76.06,1.07.06.31.23.61.52.91.12.12.28.21.5.27.21.06.46.09.74.09.44,0,.88-.06,1.34-.17.45-.11.86-.29,1.21-.53s.65-.55.88-.92c.23-.37.34-.81.34-1.31Z"/>
    </g>
  </g>
  <g>
    <path class="cls-6" d="M82.63,481.57s-8.03,1.08-6.29-14.26c1.74-15.33,3.04-16.63,1.61-22.88-1.43-6.25.34-9.55.45-11.68s-1.54-22.88,5.34-22.89c5.96-.01,2.66,12.61,3.14,19.69.48,7.07,1.39,9.09,1.4,16.16.01,7.08,1.24,12.84,1.48,16.15s-1.36,18.28-7.15,19.71Z"/>
    <path class="cls-7" d="M118.99,463.55c.3-6.21-.79-24.46-.35-29.55.44-5.09.26-14.52-.1-17.92-.26-2.47-3.07-1.92-3.07-1.92,0,0-4.64.78-5.27,5.3-.48,3.47.11,10.79-.09,16.94-.03.84-1.58,1.49-2.4,1.29-5.56-1.37-11.76-2.27-14.75-.69-1.89,1-2.83,4-1.76,6.72,1.22,3.08,2.41,2.38,3.67,2.69s1.19.08,6.88,1.25c.25.05,2.5,1.22,5.28.52,1.13-.29,1.64.29,1.57,1.04-.82,9.07-1.99,22.74-1.51,23.96.65,1.63,1.2,7.05,7.53,6.02,6.32-1.03,4.06-9.43,4.36-15.64Z"/>
    <g>
      <path class="cls-6" d="M80.65,408.14c-.77-.23-1.36-.87-1.56-1.65-.54-2.02-.91-6.72,2.32-10.49,3.62-4.23,6.75-1.98,7.76,3.54,1,5.43-1.29,7.69-1.85,8.1-.44.33-4.53,1.14-6.68.5Z"/>
      <g>
        <path class="cls-3" d="M76.82,409.13s-4.46-4.5-15.49-7.98c-8.87-2.8-16.93-4.37-16.93-4.37,0,0,8.67,7.91,16.91,10.4,10.09,3.04,15.5,1.95,15.5,1.95Z"/>
        <path class="cls-3" d="M76.61,405.5s-2.39-7.85-8.25-12.88c-5.86-5.02-12.71-5.57-12.71-5.57,0,0,2.68,2.57,6.2,7.91,5.97,9.07,14.76,10.54,14.76,10.54Z"/>
        <path class="cls-3" d="M58.75,397.82s-3.34-8.55-12.52-10.55c0,0,2.67,8.94,12.52,10.55Z"/>
        <path class="cls-3" d="M76.64,412.79s-5.49-2.21-11.97-.66c-4.51,1.08-8.64,3.7-8.64,3.7,0,0,8.48,1.3,11.95.81,5.91-.84,8.66-3.84,8.66-3.84Z"/>
      </g>
    </g>
    <g>
      <path class="cls-7" d="M144.35,451.21c-.02.59-.06,1.22-.11,1.89-.05.67-.1,1.35-.16,2.04-.07.86-.13,1.71-.19,2.56-.06.85-.09,1.62-.09,2.31,0,.29.02.7.06,1.25.04.55.08,1.16.14,1.84.06.58.1,1.19.15,1.81.04.63.08,1.23.12,1.8s.05,1.1.05,1.57-.02.85-.05,1.12c-.04.29-.14.53-.3.74s-.34.38-.57.53c-.23.14-.47.25-.74.32-.27.07-.54.11-.8.11-.35,0-.69-.07-1.02-.2s-.6-.31-.82-.53c-.42-.42-.61-.95-.59-1.6.01-.15.01-.39,0-.71,0-.32,0-.67,0-1.05s0-.79,0-1.21-.01-.82-.02-1.18c-.01-.36-.02-.68-.03-.95,0-.27,0-.44,0-.52-.02-.34-.14-.6-.35-.79-.14-.13-.31-.23-.5-.3-.19-.07-.39-.12-.58-.15-.2-.03-.38-.05-.56-.06s-.32,0-.43,0h-.25c-.27.01-.55.03-.82.06-.27.03-.51.09-.72.18s-.39.22-.54.39c-.14.16-.23.39-.26.68-.01.16-.02.38-.03.63s0,.54,0,.86c0,.31.01.64.02.99,0,.35.01.68.02,1.01.02.58.04,1.1.05,1.56.01.46,0,.78-.02.96-.03.23-.1.46-.21.68-.1.22-.26.43-.45.61-.2.18-.45.33-.74.45-.3.12-.65.17-1.05.17h-.31c-.51-.03-.91-.12-1.23-.25-.31-.13-.55-.3-.72-.52s-.28-.47-.34-.77-.08-.64-.07-1.03c0-.25,0-.55,0-.88,0-.33,0-.69,0-1.08.01-.54.02-1.11.03-1.72.01-.61.02-1.21.03-1.81.01-.6.03-1.17.05-1.7.02-.54.04-1,.07-1.38.02-.4.01-.92-.02-1.58s-.09-1.37-.14-2.12c-.06-.79-.11-1.56-.16-2.32s-.07-1.43-.05-2.03c.04-2.05,1-3.08,2.87-3.08.81,0,1.42.21,1.81.64.19.19.32.4.41.64s.15.49.17.76c.03.26.04.53.03.79,0,.26-.02.51-.04.74l-.02.23c-.02.35-.05.78-.07,1.28s-.06.99-.08,1.47c-.03.48-.04.92-.05,1.3s0,.63,0,.74c.03.19.12.35.26.48.14.13.3.24.49.31s.39.13.6.17.41.07.59.08c.18.02.39.02.63.02l.12-.02c.22-.01.46-.03.72-.04.26-.02.51-.06.74-.12.23-.07.43-.17.6-.3.17-.14.28-.32.32-.55.04-.2.07-.46.08-.8.01-.33.02-.7.02-1.09s0-.79-.02-1.2c-.01-.41-.03-.8-.04-1.16-.02-.36-.03-.68-.05-.96-.02-.27-.03-.46-.04-.56-.1-.8.08-1.46.53-1.98.3-.33.64-.56,1.03-.69.39-.13.74-.2,1.06-.2.12,0,.27,0,.44.02.17.02.35.05.53.1.18.05.36.12.54.21.18.09.34.22.49.37.41.41.6.96.58,1.66Z"/>
      <path class="cls-7" d="M158.42,448.86c.52.03.93.11,1.24.24.31.13.55.3.72.51.17.21.28.47.34.77s.08.65.07,1.03c-.01.48-.03,1.09-.05,1.83-.02.74-.05,1.5-.08,2.3s-.07,1.58-.1,2.34c-.03.76-.07,1.41-.1,1.94-.03.43-.06.83-.07,1.22-.02.38-.03.78-.05,1.18-.02.4-.03.83-.05,1.28-.02.45-.03.96-.04,1.52-.02,1.15-.21,2.12-.55,2.92s-.82,1.43-1.43,1.93c-.61.49-1.34.85-2.2,1.06-.86.21-1.81.32-2.85.32-.66,0-1.3-.04-1.94-.12-.63-.08-1.19-.21-1.69-.37-1.14-.37-1.98-1.07-2.5-2.08-.53-1.02-.79-2.42-.77-4.22,0-.1,0-.25,0-.44,0-.2,0-.43,0-.71,0-.3,0-.63,0-1s.01-.76.02-1.17.01-.82.02-1.24,0-.83,0-1.23c.01-.6.01-1.22,0-1.84,0-.62-.01-1.23-.03-1.82,0-.52,0-1.01,0-1.48,0-.47,0-.91,0-1.3,0-.4.01-.74.03-1.04.01-.3.03-.53.05-.69.04-.3.16-.55.34-.75.18-.2.4-.37.65-.49s.52-.22.81-.27.54-.08.77-.08c.12,0,.27,0,.44.02s.35.05.53.09c.18.04.36.11.54.2.18.09.34.21.49.36.35.35.52.82.49,1.4,0,.13,0,.4,0,.79,0,.4-.01.88-.02,1.44-.01.57-.02,1.18-.03,1.85-.01.67-.02,1.35-.03,2.04s-.02,1.36-.03,2.02c-.01.65-.02,1.24-.03,1.76-.01.52-.02.95-.03,1.29s0,.54,0,.59c0,.57.04,1.05.11,1.43.07.38.19.69.35.93.16.24.37.4.63.5.26.1.59.15.99.15.45,0,.8-.07,1.06-.22.26-.15.46-.36.6-.63.14-.27.24-.59.3-.96s.1-.78.15-1.22c.01-.15.02-.45.03-.89.01-.44.02-.96.03-1.57.01-.6.02-1.26.03-1.97,0-.71,0-1.41,0-2.1.01-.68.02-1.33.02-1.94,0-.61.01-1.16.02-1.65,0-.49.01-.89.02-1.21.01-.32.02-.53.03-.63.03-.23.1-.46.21-.69.1-.23.26-.44.45-.62.2-.18.45-.33.74-.44.3-.12.65-.17,1.05-.17.06,0,.1,0,.15,0s.09,0,.15,0Z"/>
      <path class="cls-7" d="M175.89,459.74c1.31.12,2.26.69,2.87,1.7.24.41.41.86.5,1.36s.13,1.01.11,1.54c-.02.53-.09,1.04-.21,1.55-.12.51-.27.97-.45,1.38-.6,1.35-1.49,2.38-2.66,3.08-1.17.7-2.57,1.05-4.21,1.05-.37,0-.71-.02-1-.05s-.58-.09-.85-.18c-.27-.09-.53-.21-.79-.36-.26-.15-.54-.35-.83-.59-.14-.12-.26-.21-.35-.27-.09-.06-.18-.09-.27-.09-.04.01-.09.04-.14.1-.05.05-.1.12-.16.18-.08.1-.17.21-.29.32s-.26.22-.42.32c-.16.1-.36.18-.58.25-.23.07-.5.1-.82.1-.85,0-1.48-.21-1.89-.63-.43-.44-.63-1.13-.59-2.08,0-.3,0-.64.03-1.02.02-.38.04-.79.06-1.22.02-.43.05-.87.07-1.33.03-.46.06-.92.09-1.38.04-.64.08-1.24.12-1.82s.06-1.07.08-1.49c.02-.51,0-1.1-.05-1.8-.06-.69-.12-1.43-.2-2.21-.08-.76-.15-1.5-.21-2.23-.07-.73-.09-1.39-.07-1.99.02-1.06.26-1.85.7-2.35.44-.5,1.13-.75,2.07-.75.36,0,5.2-.05,5.93-.05.26,0,.54.01.84.04.3.03.61.07.96.14.63.12,1.24.28,1.83.49.59.2,1.13.49,1.61.85.48.36.88.83,1.2,1.41s.53,1.3.62,2.17c.06.53.04,1.07-.04,1.63-.08.56-.24,1.09-.47,1.58-.23.49-.54.94-.93,1.33s-.88.68-1.46.88c-.15.06-.25.11-.3.16-.04.05-.07.08-.07.09,0,.02.04.06.13.1.09.04.26.08.51.1ZM168.15,463.15c-.11.25-.18.52-.21.82-.03.29-.04.57-.03.83,0,.26.03.5.07.71s.07.35.09.43c.08.26.24.49.49.68s.53.35.86.47.65.21.98.27c.33.06.61.09.86.09.2,0,.43-.02.68-.06.26-.04.52-.12.78-.23s.51-.28.73-.49c.22-.21.4-.5.54-.86.32-.85.15-1.72-.51-2.62-.27-.26-.69-.46-1.24-.59s-1.11-.2-1.68-.2c-.15,0-.35.01-.6.03-.25.02-.49.06-.73.12-.24.06-.46.13-.67.23-.2.1-.34.23-.4.38ZM173.65,455.3c0-.45-.1-.81-.29-1.09s-.44-.49-.73-.64c-.3-.15-.63-.26-1-.31s-.74-.08-1.1-.08-.73.03-1.06.1c-.33.07-.61.18-.82.33-.18.13-.31.28-.41.45-.1.16-.17.34-.21.53-.04.19-.07.38-.07.58,0,.2,0,.4,0,.6v.15c-.02.42,0,.78.06,1.1.06.31.24.62.54.93.12.12.29.21.51.27.22.06.47.09.76.09.45,0,.91-.06,1.37-.17.46-.12.88-.3,1.24-.54s.67-.56.9-.94c.23-.38.35-.83.35-1.34Z"/>
    </g>
    <g>
      <path class="cls-6" d="M132.21,443.86s-3.91.73-3.45-6.84,1.06-8.24.2-11.28-.43-5.94,2.95-6.12c2.93-.16,1.97,3.01,2.16,6.49s.94,6.27,1.14,7.89-.2,9.01-3,9.86Z"/>
      <g>
        <path class="cls-6" d="M156.08,420.92c2.61.96,3.8,3.07,3.57,6.34-.01.18-.03.46-.05.85-.02.39-.04.84-.07,1.35-.02.51-.04,1.05-.07,1.63-.02.58-.03,1.15-.03,1.7v1.83c0,.62,0,1.22.02,1.81,0,.52,0,1.01,0,1.49,0,.48,0,.91,0,1.31,0,.4-.01.74-.03,1.03-.01.29-.03.52-.05.68-.04.3-.16.55-.34.75-.18.2-.4.37-.65.5s-.52.22-.8.28c-.28.06-.54.08-.78.08-.12,0-.27,0-.44-.02-.17-.02-.35-.05-.53-.09-.18-.04-.36-.11-.54-.2-.18-.09-.34-.21-.49-.36-.35-.35-.52-.82-.49-1.4,0-.13,0-.4,0-.79,0-.4.01-.87.02-1.43.01-.56.02-1.18.03-1.85.01-.67.02-1.36.03-2.05.01-.69.02-1.36.03-2.02.01-.65.02-1.24.03-1.76s.02-.95.03-1.29c0-.34,0-.54,0-.59,0-.21-.01-.47-.03-.77-.02-.31-.08-.6-.16-.89-.09-.29-.22-.53-.4-.73-.18-.2-.41-.3-.71-.3-.23,0-.46.06-.68.16-.23.11-.43.25-.61.43-.18.18-.33.38-.45.6-.12.23-.19.45-.21.68,0,.06-.01.23-.03.51-.02.29-.04.65-.06,1.1-.02.45-.04.95-.06,1.52-.02.57-.03,1.18-.03,1.83,0,.6,0,1.21,0,1.83s0,1.22,0,1.81c.01.52.02,1.01.02,1.48,0,.47,0,.91,0,1.3,0,.4-.01.74-.02,1.04-.01.3-.03.53-.05.69-.04.3-.16.55-.34.75-.18.2-.4.37-.65.5s-.52.22-.81.28-.54.08-.77.08c-.13,0-.28,0-.45-.02s-.35-.05-.53-.1c-.18-.05-.36-.12-.54-.21-.18-.09-.34-.2-.49-.35-.34-.36-.51-.83-.49-1.4,0-.12,0-.37.02-.74.01-.37.02-.83.03-1.36.01-.53.02-1.12.03-1.77.01-.65.02-1.3.03-1.96.01-.66.02-1.3.03-1.94.01-.63.02-1.2.02-1.7,0-.5.01-.92.02-1.25,0-.33,0-.52,0-.58,0-.33,0-.66-.02-.98s-.05-.63-.1-.91c-.05-.28-.12-.53-.2-.74s-.19-.37-.34-.47c-.11-.1-.25-.15-.43-.15-.06,0-.11,0-.17.02-.06.01-.12.03-.19.05-.16.04-.35.13-.56.25s-.41.29-.61.5c-.2.21-.37.48-.52.8s-.24.7-.29,1.14c-.01.15-.02.45-.03.9-.01.44-.02.97-.03,1.57-.01.6-.02,1.26-.03,1.97,0,.71-.01,1.41-.02,2.1,0,.67,0,1.31,0,1.93,0,.62-.01,1.17-.02,1.66s-.01.89-.02,1.21c-.01.32-.02.53-.03.63-.03.23-.1.46-.21.68-.1.22-.26.43-.45.61-.2.18-.45.33-.74.45-.3.12-.65.17-1.05.17h-.31c-.51-.03-.91-.12-1.23-.25-.31-.13-.56-.3-.73-.52-.18-.21-.29-.47-.35-.77-.06-.3-.08-.64-.07-1.03.01-.53.03-1.17.06-1.92.03-.75.06-1.53.09-2.32.03-.8.07-1.56.1-2.31.03-.74.07-1.36.1-1.85.02-.38,0-.91-.05-1.58s-.12-1.39-.18-2.16c-.08-.81-.15-1.62-.21-2.41-.06-.8-.09-1.49-.07-2.08.04-2.05.99-3.08,2.85-3.08.83,0,1.44.2,1.83.61.13.14.23.3.3.48.07.18.11.35.14.53.03.18.04.35.03.51s-.01.32-.02.46l-.02.15c0,.1.02.16.05.2.04-.01.1-.04.16-.1.06-.04.12-.11.2-.21.08-.09.18-.23.3-.42.23-.37.48-.68.75-.92.27-.24.54-.43.81-.57.27-.14.54-.23.82-.29s.53-.08.77-.08c.32,0,.61.03.87.09.26.06.48.12.66.19.36.13.67.29.91.46s.45.35.62.53c.16.18.3.35.4.52.1.17.19.32.27.45.05.12.11.22.16.3s.1.12.14.12c.02-.01.12-.09.28-.25s.39-.41.67-.76c.47-.56,1.02-.97,1.66-1.23.63-.26,1.25-.39,1.87-.39.49,0,.94.08,1.35.23Z"/>
        <path class="cls-6" d="M192.91,420.9c.52.03.93.11,1.24.24.31.13.55.3.72.51.17.21.28.47.34.77s.08.65.07,1.03c-.01.48-.03,1.09-.05,1.83-.02.74-.05,1.5-.08,2.3s-.07,1.58-.1,2.34c-.03.76-.07,1.41-.1,1.94-.03.43-.06.83-.07,1.22-.02.38-.03.78-.05,1.18-.02.4-.03.83-.05,1.28-.02.45-.03.96-.04,1.52-.02,1.15-.21,2.12-.55,2.92s-.82,1.43-1.43,1.93c-.61.49-1.34.85-2.2,1.06-.86.21-1.81.32-2.85.32-.66,0-1.3-.04-1.94-.12-.63-.08-1.19-.21-1.69-.37-1.14-.37-1.98-1.07-2.5-2.08-.53-1.02-.79-2.42-.77-4.22,0-.1,0-.25,0-.44,0-.2,0-.43,0-.71,0-.3,0-.63,0-1s.01-.76.02-1.17.01-.82.02-1.24,0-.83,0-1.23c.01-.6.01-1.22,0-1.84,0-.62-.01-1.23-.03-1.82,0-.52,0-1.01,0-1.48,0-.47,0-.91,0-1.3,0-.4.01-.74.03-1.04.01-.3.03-.53.05-.69.04-.3.16-.55.34-.75.18-.2.4-.37.65-.49s.52-.22.81-.27.54-.08.77-.08c.12,0,.27,0,.44.02s.35.05.53.09c.18.04.36.11.54.2.18.09.34.21.49.36.35.35.52.82.49,1.4,0,.13,0,.4,0,.79,0,.4-.01.88-.02,1.44-.01.57-.02,1.18-.03,1.85-.01.67-.02,1.35-.03,2.04s-.02,1.36-.03,2.02c-.01.65-.02,1.24-.03,1.76-.01.52-.02.95-.03,1.29s0,.54,0,.59c0,.57.04,1.05.11,1.43.07.38.19.69.35.93.16.24.37.4.63.5.26.1.59.15.99.15.45,0,.8-.07,1.06-.22.26-.15.46-.36.6-.63.14-.27.24-.59.3-.96s.1-.78.15-1.22c.01-.15.02-.45.03-.89.01-.44.02-.96.03-1.57.01-.6.02-1.26.03-1.97,0-.71,0-1.41,0-2.1.01-.68.02-1.33.02-1.94,0-.61.01-1.16.02-1.65,0-.49.01-.89.02-1.21.01-.32.02-.53.03-.63.03-.23.1-.46.21-.69.1-.23.26-.44.45-.62.2-.18.45-.33.74-.44.3-.12.65-.17,1.05-.17.06,0,.1,0,.15,0s.09,0,.15,0Z"/>
        <path class="cls-6" d="M213.05,423.19c0,.2-.04.42-.12.67-.08.25-.23.49-.45.71-.43.4-1,.58-1.71.54-.43-.02-.79-.04-1.07-.05-.4-.03-.71-.05-.94-.05-.35,0-.62.06-.81.16-.09.06-.18.19-.27.4-.09.21-.15.58-.17,1.11v.03c-.01.33-.02.61-.02.83,0,.23-.01.43-.02.6s0,.33,0,.47,0,.28,0,.42v.97c0,.21,0,.46,0,.74,0,.29-.01.62-.02,1-.01.36,0,.77,0,1.24.02.46.04.94.06,1.43s.05,1,.08,1.51c.03.51.07,1,.1,1.46.05.76.1,1.41.13,1.95.03.54.04.91.02,1.1-.02.22-.09.45-.21.7s-.28.48-.49.69c-.21.21-.48.39-.8.54-.32.14-.69.21-1.12.21h-.26c-.9-.07-1.55-.31-1.94-.73-.39-.42-.57-1.08-.55-1.97.01-.3.02-.64.04-1.02.02-.38.04-.79.06-1.22.02-.43.05-.87.07-1.33.03-.46.06-.92.09-1.38.04-.64.08-1.24.12-1.82.03-.58.06-1.07.08-1.49.02-.45.04-.92.04-1.41,0-.49,0-.97,0-1.44,0-.47-.01-.91-.02-1.32s-.01-.75-.03-1.02v-.4c0-.18-.04-.33-.11-.46-.07-.13-.15-.24-.24-.33s-.18-.15-.29-.2c-.1-.04-.19-.07-.26-.08-.11-.01-.21-.01-.29,0s-.18.01-.3.02c-.12.01-.26.02-.42.03s-.37.02-.62.02c-.3,0-.72-.02-1.27-.05-.22-.01-.44-.05-.67-.12-.23-.07-.43-.17-.61-.31-.18-.14-.33-.34-.44-.58-.11-.25-.16-.56-.15-.93,0-.12.01-.29.04-.51.03-.22.09-.45.2-.68.1-.24.26-.46.47-.66s.5-.35.87-.44c.1-.02.23-.04.39-.05.16-.01.35-.02.57-.02.49,0,1.12.02,1.88.05.48.01,1.02.02,1.6.03.58.01,1.2.02,1.86.02.81,0,1.56,0,2.25-.03.69-.02,1.29-.04,1.8-.06.35-.01.66-.02.92-.03.26-.01.49-.02.69-.02.79,0,1.36.22,1.71.67.35.44.53,1.07.53,1.87Z"/>
        <path class="cls-6" d="M230.02,426.23c.23.55.41,1.16.54,1.84s.21,1.38.26,2.12.05,1.49.02,2.25c-.03.76-.1,1.51-.21,2.25-.1.74-.24,1.44-.4,2.1s-.34,1.26-.55,1.79c-.36.93-.78,1.72-1.26,2.35-.48.63-1.03,1.13-1.65,1.51s-1.32.64-2.11.8-1.67.24-2.64.24c-.78,0-1.52-.09-2.22-.28-.7-.19-1.35-.45-1.94-.8-.59-.35-1.11-.77-1.56-1.27-.46-.5-.83-1.06-1.13-1.69-.29-.63-.53-1.33-.74-2.1-.21-.77-.37-1.59-.49-2.44-.12-.85-.18-1.73-.18-2.63,0-.9.04-1.79.15-2.66.1-.87.27-1.72.51-2.54.24-.82.54-1.57.91-2.25,1.44-2.61,3.68-3.93,6.74-3.95,1.97,0,3.6.44,4.89,1.33,1.3.88,2.32,2.23,3.06,4.04ZM225.12,435.03c.1-.61.17-1.24.22-1.87.05-.63.07-1.25.07-1.87,0-.61-.04-1.21-.1-1.78-.06-.57-.15-1.1-.27-1.6-.18-.71-.53-1.29-1.05-1.74-.53-.45-1.13-.67-1.81-.68h-.02c-.69,0-1.29.24-1.8.71-.51.47-.87,1.14-1.09,1.99-.13.51-.23,1.06-.29,1.68-.06.62-.1,1.22-.13,1.8-.03.59-.04,1.13-.03,1.62,0,.49.01.87.02,1.14.01.21.04.46.07.76.04.3.1.6.19.91.09.31.21.62.36.93.15.31.35.58.58.83s.51.44.84.59c.33.15.72.22,1.17.22,1.62,0,2.65-1.22,3.06-3.66Z"/>
      </g>
      <path class="cls-6" d="M175.32,431.67c1.31.12,2.26.69,2.87,1.7.24.41.41.86.5,1.36s.13,1.01.11,1.54c-.02.53-.09,1.04-.21,1.55-.12.51-.27.97-.45,1.38-.6,1.35-1.49,2.38-2.66,3.08-1.17.7-2.57,1.05-4.21,1.05-.37,0-.71-.02-1-.05s-.58-.09-.85-.18c-.27-.09-.53-.21-.79-.36-.26-.15-.54-.35-.83-.59-.14-.12-.26-.21-.35-.27-.09-.06-.18-.09-.27-.09-.04.01-.09.04-.14.1-.05.05-.1.12-.16.18-.08.1-.17.21-.29.32s-.26.22-.42.32c-.16.1-.36.18-.58.25-.23.07-.5.1-.82.1-.85,0-1.48-.21-1.89-.63-.43-.44-.63-1.13-.59-2.08,0-.3,0-.64.03-1.02.02-.38.04-.79.06-1.22.02-.43.05-.87.07-1.33.03-.46.06-.92.09-1.38.04-.64.08-1.24.12-1.82s.06-1.07.08-1.49c.02-.51,0-1.1-.05-1.8-.06-.69-.12-1.43-.2-2.21-.08-.76-.15-1.5-.21-2.23-.07-.73-.09-1.39-.07-1.99.02-1.06.26-1.85.7-2.35.44-.5,1.13-.75,2.07-.75.36,0,5.2-.05,5.93-.05.26,0,.54.01.84.04.3.03.61.07.96.14.63.12,1.24.28,1.83.49.59.2,1.13.49,1.61.85.48.36.88.83,1.2,1.41s.53,1.3.62,2.17c.06.53.04,1.07-.04,1.63-.08.56-.24,1.09-.47,1.58-.23.49-.54.94-.93,1.33s-.88.68-1.46.88c-.15.06-.25.11-.3.16-.04.05-.07.08-.07.09,0,.02.04.06.13.1.09.04.26.08.51.1ZM168.15,435.08c-.11.25-.18.52-.21.82-.03.29-.04.57-.03.83,0,.26.03.5.07.71s.07.35.09.43c.08.26.24.49.49.68s.53.35.86.47.65.21.98.27c.33.06.61.09.86.09.2,0,.43-.02.68-.06.26-.04.52-.12.78-.23s.51-.28.73-.49c.22-.21.4-.5.54-.86.32-.85.15-1.72-.51-2.62-.27-.26-.69-.46-1.24-.59s-1.11-.2-1.68-.2c-.15,0-.35.01-.6.03-.25.02-.49.06-.73.12-.24.06-.46.13-.67.23-.2.1-.34.23-.4.38ZM173.65,427.22c0-.45-.1-.81-.29-1.09s-.44-.49-.73-.64c-.3-.15-.63-.26-1-.31s-.74-.08-1.1-.08-.73.03-1.06.1c-.33.07-.61.18-.82.33-.18.13-.31.28-.41.45-.1.16-.17.34-.21.53-.04.19-.07.38-.07.58,0,.2,0,.4,0,.6v.15c-.02.42,0,.78.06,1.1.06.31.24.62.54.93.12.12.29.21.51.27.22.06.47.09.76.09.45,0,.91-.06,1.37-.17.46-.12.88-.3,1.24-.54s.67-.56.9-.94c.23-.38.35-.83.35-1.34Z"/>
    </g>
  </g>
  <text class="cls-5" transform="translate(49.3 56.33)"><tspan class="cls-9" x="0" y="0">L</tspan><tspan class="cls-8" x="9.33" y="0">OGO OPTION 1</tspan></text>
</svg>